ISO-10303-21;
HEADER;
/* Generated by software containing ST-Developer
 * from STEP Tools, Inc. (www.steptools.com) 
 */

FILE_DESCRIPTION(
/* description */ (''),
/* implementation_level */ '2;1');

FILE_NAME(
/* name */ '#1 part2 .step',
/* time_stamp */ '2023-07-05T12:05:42+05:30',
/* author */ (''),
/* organization */ (''),
/* preprocessor_version */ 'ST-DEVELOPER v19.2',
/* originating_system */ 'Autodesk Translation Framework v12.6.0.85',
/* authorisation */ '');

FILE_SCHEMA (('AUTOMOTIVE_DESIGN { 1 0 10303 214 3 1 1 }'));
ENDSEC;

DATA;
#10=MECHANICAL_DESIGN_GEOMETRIC_PRESENTATION_REPRESENTATION('',(#13),#263);
#11=SHAPE_REPRESENTATION_RELATIONSHIP('SRR','None',#270,#12);
#12=ADVANCED_BREP_SHAPE_REPRESENTATION('',(#14),#262);
#13=STYLED_ITEM('',(#280),#14);
#14=MANIFOLD_SOLID_BREP('Body1',#113);
#15=LINE('',#255,#17);
#16=LINE('',#259,#18);
#17=VECTOR('',#171,2.2);
#18=VECTOR('',#178,1.6);
#19=CYLINDRICAL_SURFACE('',#139,2.2);
#20=CYLINDRICAL_SURFACE('',#142,1.6);
#21=FACE_BOUND('',#39,.T.);
#22=FACE_BOUND('',#42,.T.);
#23=FACE_BOUND('',#44,.T.);
#24=FACE_BOUND('',#47,.T.);
#25=PLANE('',#130);
#26=PLANE('',#135);
#27=PLANE('',#137);
#28=PLANE('',#141);
#29=FACE_OUTER_BOUND('',#37,.T.);
#30=FACE_OUTER_BOUND('',#38,.T.);
#31=FACE_OUTER_BOUND('',#40,.T.);
#32=FACE_OUTER_BOUND('',#41,.T.);
#33=FACE_OUTER_BOUND('',#43,.T.);
#34=FACE_OUTER_BOUND('',#45,.T.);
#35=FACE_OUTER_BOUND('',#46,.T.);
#36=FACE_OUTER_BOUND('',#48,.T.);
#37=EDGE_LOOP('',(#79,#80,#81,#82));
#38=EDGE_LOOP('',(#83));
#39=EDGE_LOOP('',(#84));
#40=EDGE_LOOP('',(#85,#86,#87,#88));
#41=EDGE_LOOP('',(#89));
#42=EDGE_LOOP('',(#90));
#43=EDGE_LOOP('',(#91));
#44=EDGE_LOOP('',(#92));
#45=EDGE_LOOP('',(#93,#94,#95,#96));
#46=EDGE_LOOP('',(#97));
#47=EDGE_LOOP('',(#98));
#48=EDGE_LOOP('',(#99,#100,#101,#102));
#49=CIRCLE('',#127,5.);
#50=CIRCLE('',#128,2.99999999999999);
#51=CIRCLE('',#129,2.09526249034444);
#52=CIRCLE('',#131,1.6);
#53=CIRCLE('',#132,5.);
#54=CIRCLE('',#133,3.00000000000001);
#55=CIRCLE('',#134,2.09526249034444);
#56=CIRCLE('',#136,1.6);
#57=CIRCLE('',#138,2.2);
#58=CIRCLE('',#140,2.2);
#59=VERTEX_POINT('',#207);
#60=VERTEX_POINT('',#209);
#61=VERTEX_POINT('',#213);
#62=VERTEX_POINT('',#242);
#63=VERTEX_POINT('',#244);
#64=VERTEX_POINT('',#248);
#65=VERTEX_POINT('',#251);
#66=VERTEX_POINT('',#254);
#67=EDGE_CURVE('',#59,#59,#49,.T.);
#68=EDGE_CURVE('',#59,#60,#50,.T.);
#69=EDGE_CURVE('',#60,#60,#51,.T.);
#70=EDGE_CURVE('',#61,#61,#52,.T.);
#71=EDGE_CURVE('',#62,#62,#53,.T.);
#72=EDGE_CURVE('',#62,#63,#54,.T.);
#73=EDGE_CURVE('',#63,#63,#55,.T.);
#74=EDGE_CURVE('',#64,#64,#56,.T.);
#75=EDGE_CURVE('',#65,#65,#57,.T.);
#76=EDGE_CURVE('',#65,#66,#15,.T.);
#77=EDGE_CURVE('',#66,#66,#58,.T.);
#78=EDGE_CURVE('',#64,#61,#16,.T.);
#79=ORIENTED_EDGE('',*,*,#67,.T.);
#80=ORIENTED_EDGE('',*,*,#68,.T.);
#81=ORIENTED_EDGE('',*,*,#69,.T.);
#82=ORIENTED_EDGE('',*,*,#68,.F.);
#83=ORIENTED_EDGE('',*,*,#69,.F.);
#84=ORIENTED_EDGE('',*,*,#70,.T.);
#85=ORIENTED_EDGE('',*,*,#71,.T.);
#86=ORIENTED_EDGE('',*,*,#72,.T.);
#87=ORIENTED_EDGE('',*,*,#73,.T.);
#88=ORIENTED_EDGE('',*,*,#72,.F.);
#89=ORIENTED_EDGE('',*,*,#73,.F.);
#90=ORIENTED_EDGE('',*,*,#74,.F.);
#91=ORIENTED_EDGE('',*,*,#67,.F.);
#92=ORIENTED_EDGE('',*,*,#75,.T.);
#93=ORIENTED_EDGE('',*,*,#75,.F.);
#94=ORIENTED_EDGE('',*,*,#76,.T.);
#95=ORIENTED_EDGE('',*,*,#77,.T.);
#96=ORIENTED_EDGE('',*,*,#76,.F.);
#97=ORIENTED_EDGE('',*,*,#71,.F.);
#98=ORIENTED_EDGE('',*,*,#77,.F.);
#99=ORIENTED_EDGE('',*,*,#74,.T.);
#100=ORIENTED_EDGE('',*,*,#78,.T.);
#101=ORIENTED_EDGE('',*,*,#70,.F.);
#102=ORIENTED_EDGE('',*,*,#78,.F.);
#103=(
BOUNDED_SURFACE()
B_SPLINE_SURFACE(2,2,((#180,#181,#182,#183,#184,#185,#186,#187,#188),(#189,
#190,#191,#192,#193,#194,#195,#196,#197),(#198,#199,#200,#201,#202,#203,
#204,#205,#206)),.UNSPECIFIED.,.F.,.T.,.F.)
B_SPLINE_SURFACE_WITH_KNOTS((3,3),(3,2,2,2,3),(-1.5707963267949,-0.252680255142072),
(-3.14159265358979,-1.5707963267949,0.,1.5707963267949,3.14159265358979),
 .UNSPECIFIED.)
GEOMETRIC_REPRESENTATION_ITEM()
RATIONAL_B_SPLINE_SURFACE(((1.,0.707106781186548,1.,0.707106781186548,1.,
0.707106781186548,1.,0.707106781186548,1.),(0.790569415042093,0.559016994374946,
0.790569415042093,0.559016994374946,0.790569415042093,0.559016994374946,
0.790569415042093,0.559016994374946,0.790569415042093),(1.,0.707106781186548,
1.,0.707106781186548,1.,0.707106781186548,1.,0.707106781186548,1.)))
REPRESENTATION_ITEM('')
SURFACE()
);
#104=(
BOUNDED_SURFACE()
B_SPLINE_SURFACE(2,2,((#215,#216,#217,#218,#219,#220,#221,#222,#223),(#224,
#225,#226,#227,#228,#229,#230,#231,#232),(#233,#234,#235,#236,#237,#238,
#239,#240,#241)),.UNSPECIFIED.,.F.,.T.,.F.)
B_SPLINE_SURFACE_WITH_KNOTS((3,3),(3,2,2,2,3),(-1.5707963267949,-0.252680255142074),
(-3.14159265358979,-1.5707963267949,0.,1.5707963267949,3.14159265358979),
 .UNSPECIFIED.)
GEOMETRIC_REPRESENTATION_ITEM()
RATIONAL_B_SPLINE_SURFACE(((1.,0.707106781186548,1.,0.707106781186548,1.,
0.707106781186548,1.,0.707106781186548,1.),(0.790569415042093,0.559016994374946,
0.790569415042093,0.559016994374946,0.790569415042093,0.559016994374946,
0.790569415042093,0.559016994374946,0.790569415042093),(1.,0.707106781186548,
1.,0.707106781186548,1.,0.707106781186548,1.,0.707106781186548,1.)))
REPRESENTATION_ITEM('')
SURFACE()
);
#105=ADVANCED_FACE('',(#29),#103,.F.);
#106=ADVANCED_FACE('',(#30,#21),#25,.T.);
#107=ADVANCED_FACE('',(#31),#104,.F.);
#108=ADVANCED_FACE('',(#32,#22),#26,.F.);
#109=ADVANCED_FACE('',(#33,#23),#27,.F.);
#110=ADVANCED_FACE('',(#34),#19,.T.);
#111=ADVANCED_FACE('',(#35,#24),#28,.F.);
#112=ADVANCED_FACE('',(#36),#20,.F.);
#113=CLOSED_SHELL('',(#105,#106,#107,#108,#109,#110,#111,#112));
#114=DERIVED_UNIT_ELEMENT(#116,1.);
#115=DERIVED_UNIT_ELEMENT(#265,-3.);
#116=(
MASS_UNIT()
NAMED_UNIT(*)
SI_UNIT(.KILO.,.GRAM.)
);
#117=DERIVED_UNIT((#114,#115));
#118=MEASURE_REPRESENTATION_ITEM('density measure',
POSITIVE_RATIO_MEASURE(7850.),#117);
#119=PROPERTY_DEFINITION_REPRESENTATION(#124,#121);
#120=PROPERTY_DEFINITION_REPRESENTATION(#125,#122);
#121=REPRESENTATION('material name',(#123),#262);
#122=REPRESENTATION('density',(#118),#262);
#123=DESCRIPTIVE_REPRESENTATION_ITEM('Steel','Steel');
#124=PROPERTY_DEFINITION('material property','material name',#272);
#125=PROPERTY_DEFINITION('material property','density of part',#272);
#126=AXIS2_PLACEMENT_3D('',#179,#143,#144);
#127=AXIS2_PLACEMENT_3D('',#208,#145,#146);
#128=AXIS2_PLACEMENT_3D('',#210,#147,#148);
#129=AXIS2_PLACEMENT_3D('',#211,#149,#150);
#130=AXIS2_PLACEMENT_3D('',#212,#151,#152);
#131=AXIS2_PLACEMENT_3D('',#214,#153,#154);
#132=AXIS2_PLACEMENT_3D('',#243,#155,#156);
#133=AXIS2_PLACEMENT_3D('',#245,#157,#158);
#134=AXIS2_PLACEMENT_3D('',#246,#159,#160);
#135=AXIS2_PLACEMENT_3D('',#247,#161,#162);
#136=AXIS2_PLACEMENT_3D('',#249,#163,#164);
#137=AXIS2_PLACEMENT_3D('',#250,#165,#166);
#138=AXIS2_PLACEMENT_3D('',#252,#167,#168);
#139=AXIS2_PLACEMENT_3D('',#253,#169,#170);
#140=AXIS2_PLACEMENT_3D('',#256,#172,#173);
#141=AXIS2_PLACEMENT_3D('',#257,#174,#175);
#142=AXIS2_PLACEMENT_3D('',#258,#176,#177);
#143=DIRECTION('axis',(0.,0.,1.));
#144=DIRECTION('refdir',(1.,0.,0.));
#145=DIRECTION('center_axis',(1.,0.,0.));
#146=DIRECTION('ref_axis',(0.,1.,0.));
#147=DIRECTION('center_axis',(2.27517914337605E-15,-1.,1.22464679914736E-16));
#148=DIRECTION('ref_axis',(3.26839792865148E-16,-1.22464679914735E-16,-1.));
#149=DIRECTION('center_axis',(-1.,0.,0.));
#150=DIRECTION('ref_axis',(0.,-1.,0.));
#151=DIRECTION('center_axis',(1.,0.,0.));
#152=DIRECTION('ref_axis',(0.,1.,0.));
#153=DIRECTION('center_axis',(-1.,0.,0.));
#154=DIRECTION('ref_axis',(0.,1.,0.));
#155=DIRECTION('center_axis',(-1.,0.,0.));
#156=DIRECTION('ref_axis',(0.,1.,0.));
#157=DIRECTION('center_axis',(2.87947806097206E-15,-1.,-1.22464679914738E-16));
#158=DIRECTION('ref_axis',(9.80519378595444E-16,-1.22464679914735E-16,1.));
#159=DIRECTION('center_axis',(1.,0.,0.));
#160=DIRECTION('ref_axis',(0.,-1.,0.));
#161=DIRECTION('center_axis',(1.,0.,0.));
#162=DIRECTION('ref_axis',(0.,1.,0.));
#163=DIRECTION('center_axis',(-1.,0.,0.));
#164=DIRECTION('ref_axis',(0.,1.,0.));
#165=DIRECTION('center_axis',(1.,0.,0.));
#166=DIRECTION('ref_axis',(0.,0.,-1.));
#167=DIRECTION('center_axis',(1.,0.,0.));
#168=DIRECTION('ref_axis',(0.,0.,-1.));
#169=DIRECTION('center_axis',(1.,0.,0.));
#170=DIRECTION('ref_axis',(0.,1.,0.));
#171=DIRECTION('',(-1.,0.,0.));
#172=DIRECTION('center_axis',(1.,0.,0.));
#173=DIRECTION('ref_axis',(0.,0.,-1.));
#174=DIRECTION('center_axis',(-1.,0.,0.));
#175=DIRECTION('ref_axis',(0.,0.,1.));
#176=DIRECTION('center_axis',(1.,0.,0.));
#177=DIRECTION('ref_axis',(0.,1.,0.));
#178=DIRECTION('',(1.,0.,0.));
#179=CARTESIAN_POINT('',(0.,0.,0.));
#180=CARTESIAN_POINT('Ctrl Pts',(6.,8.83781666226123E-15,-2.09526249034443));
#181=CARTESIAN_POINT('Ctrl Pts',(6.00000000000001,-2.09526249034442,-2.09526249034443));
#182=CARTESIAN_POINT('Ctrl Pts',(6.00000000000001,-2.09526249034442,1.00309529165239E-15));
#183=CARTESIAN_POINT('Ctrl Pts',(6.00000000000001,-2.09526249034442,2.09526249034443));
#184=CARTESIAN_POINT('Ctrl Pts',(6.,8.83781666226122E-15,2.09526249034443));
#185=CARTESIAN_POINT('Ctrl Pts',(6.,2.09526249034444,2.09526249034443));
#186=CARTESIAN_POINT('Ctrl Pts',(6.,2.09526249034444,1.0030952916524E-15));
#187=CARTESIAN_POINT('Ctrl Pts',(6.,2.09526249034444,-2.09526249034443));
#188=CARTESIAN_POINT('Ctrl Pts',(6.,8.83781666226123E-15,-2.09526249034443));
#189=CARTESIAN_POINT('Ctrl Pts',(6.00000000000001,8.83781666226125E-15,
-4.4190524980689));
#190=CARTESIAN_POINT('Ctrl Pts',(6.00000000000002,-4.41905249806889,-4.4190524980689));
#191=CARTESIAN_POINT('Ctrl Pts',(6.00000000000002,-4.41905249806889,1.0030952916524E-15));
#192=CARTESIAN_POINT('Ctrl Pts',(6.00000000000002,-4.41905249806889,4.4190524980689));
#193=CARTESIAN_POINT('Ctrl Pts',(6.00000000000001,8.83781666226125E-15,
4.4190524980689));
#194=CARTESIAN_POINT('Ctrl Pts',(6.,4.41905249806891,4.4190524980689));
#195=CARTESIAN_POINT('Ctrl Pts',(6.,4.41905249806891,1.00309529165239E-15));
#196=CARTESIAN_POINT('Ctrl Pts',(6.,4.41905249806891,-4.4190524980689));
#197=CARTESIAN_POINT('Ctrl Pts',(6.00000000000001,8.83781666226125E-15,
-4.4190524980689));
#198=CARTESIAN_POINT('Ctrl Pts',(3.74999999999999,3.71866358966508E-15,
-5.));
#199=CARTESIAN_POINT('Ctrl Pts',(3.75,-5.,-5.));
#200=CARTESIAN_POINT('Ctrl Pts',(3.75,-5.,1.53195627389399E-16));
#201=CARTESIAN_POINT('Ctrl Pts',(3.75,-5.,5.));
#202=CARTESIAN_POINT('Ctrl Pts',(3.74999999999999,3.71866358966508E-15,
5.));
#203=CARTESIAN_POINT('Ctrl Pts',(3.74999999999998,5.,5.));
#204=CARTESIAN_POINT('Ctrl Pts',(3.74999999999998,5.00000000000001,1.53195627389393E-16));
#205=CARTESIAN_POINT('Ctrl Pts',(3.74999999999998,5.,-5.));
#206=CARTESIAN_POINT('Ctrl Pts',(3.74999999999999,3.71866358966508E-15,
-5.));
#207=CARTESIAN_POINT('',(3.75,3.10634019009143E-15,-5.));
#208=CARTESIAN_POINT('Origin',(3.75,0.,0.));
#209=CARTESIAN_POINT('',(6.,8.58122101204384E-15,-2.09526249034444));
#210=CARTESIAN_POINT('Origin',(3.00000000000001,1.75568358191571E-15,-2.09526249034444));
#211=CARTESIAN_POINT('Origin',(6.,0.,0.));
#212=CARTESIAN_POINT('Origin',(6.,0.,0.));
#213=CARTESIAN_POINT('',(6.,-1.6,-1.95943487863577E-16));
#214=CARTESIAN_POINT('Origin',(6.,0.,0.));
#215=CARTESIAN_POINT('Ctrl Pts',(1.66533453693773E-15,-1.42589382450811E-14,
2.09526249034443));
#216=CARTESIAN_POINT('Ctrl Pts',(7.69859690986219E-15,-2.09526249034444,
2.09526249034443));
#217=CARTESIAN_POINT('Ctrl Pts',(5.47815086061188E-15,-2.09526249034444,
4.98439746911279E-15));
#218=CARTESIAN_POINT('Ctrl Pts',(3.25770481136157E-15,-2.09526249034444,
-2.09526249034442));
#219=CARTESIAN_POINT('Ctrl Pts',(-2.77555756156289E-15,-1.42589382450811E-14,
-2.09526249034442));
#220=CARTESIAN_POINT('Ctrl Pts',(-8.80881993448735E-15,2.09526249034441,
-2.09526249034442));
#221=CARTESIAN_POINT('Ctrl Pts',(-6.58837388523704E-15,2.09526249034441,
4.9843974691128E-15));
#222=CARTESIAN_POINT('Ctrl Pts',(-4.36792783598672E-15,2.09526249034441,
2.09526249034443));
#223=CARTESIAN_POINT('Ctrl Pts',(1.66533453693773E-15,-1.42589382450811E-14,
2.09526249034443));
#224=CARTESIAN_POINT('Ctrl Pts',(-6.1232657897068E-15,-1.42589382450811E-14,
4.4190524980689));
#225=CARTESIAN_POINT('Ctrl Pts',(6.60129892876639E-15,-4.41905249806891,
4.4190524980689));
#226=CARTESIAN_POINT('Ctrl Pts',(2.1774459845342E-15,-4.41905249806891,
4.98439746911279E-15));
#227=CARTESIAN_POINT('Ctrl Pts',(-2.24640695969798E-15,-4.41905249806891,
-4.41905249806889));
#228=CARTESIAN_POINT('Ctrl Pts',(-1.49709716781712E-14,-1.42589382450811E-14,
-4.4190524980689));
#229=CARTESIAN_POINT('Ctrl Pts',(-2.76955363966444E-14,4.41905249806888,
-4.41905249806889));
#230=CARTESIAN_POINT('Ctrl Pts',(-2.32716834524122E-14,4.41905249806889,
4.98439746911282E-15));
#231=CARTESIAN_POINT('Ctrl Pts',(-1.884783050818E-14,4.41905249806888,4.4190524980689));
#232=CARTESIAN_POINT('Ctrl Pts',(-6.1232657897068E-15,-1.42589382450811E-14,
4.4190524980689));
#233=CARTESIAN_POINT('Ctrl Pts',(2.25000000000002,-7.78011260789387E-15,
5.00000000000001));
#234=CARTESIAN_POINT('Ctrl Pts',(2.25000000000004,-5.00000000000002,5.00000000000001));
#235=CARTESIAN_POINT('Ctrl Pts',(2.25000000000003,-5.00000000000002,2.83987656083186E-15));
#236=CARTESIAN_POINT('Ctrl Pts',(2.25000000000003,-5.00000000000002,-5.));
#237=CARTESIAN_POINT('Ctrl Pts',(2.25000000000001,-7.78011260789387E-15,
-5.00000000000001));
#238=CARTESIAN_POINT('Ctrl Pts',(2.25,5.,-5.));
#239=CARTESIAN_POINT('Ctrl Pts',(2.25,5.,2.83987656083189E-15));
#240=CARTESIAN_POINT('Ctrl Pts',(2.25000000000001,5.,5.00000000000001));
#241=CARTESIAN_POINT('Ctrl Pts',(2.25000000000002,-7.78011260789387E-15,
5.00000000000001));
#242=CARTESIAN_POINT('',(2.25,-8.39243600746761E-15,5.));
#243=CARTESIAN_POINT('Origin',(2.25,0.,0.));
#244=CARTESIAN_POINT('',(0.,-1.45155338952984E-14,2.09526249034444));
#245=CARTESIAN_POINT('Origin',(3.00000000000001,-5.87709971238224E-15,2.09526249034444));
#246=CARTESIAN_POINT('Origin',(0.,0.,0.));
#247=CARTESIAN_POINT('Origin',(0.,0.,0.));
#248=CARTESIAN_POINT('',(0.,-1.6,-1.95943487863577E-16));
#249=CARTESIAN_POINT('Origin',(0.,0.,0.));
#250=CARTESIAN_POINT('Origin',(3.75,2.2,0.));
#251=CARTESIAN_POINT('',(3.75,-2.2,-2.69422295812418E-16));
#252=CARTESIAN_POINT('Origin',(3.75,0.,0.));
#253=CARTESIAN_POINT('Origin',(3.,0.,0.));
#254=CARTESIAN_POINT('',(2.25,-2.2,-2.69422295812418E-16));
#255=CARTESIAN_POINT('',(3.,-2.2,-2.69422295812418E-16));
#256=CARTESIAN_POINT('Origin',(2.25,0.,0.));
#257=CARTESIAN_POINT('Origin',(2.25,14.2332109396534,0.));
#258=CARTESIAN_POINT('Origin',(0.,0.,0.));
#259=CARTESIAN_POINT('',(0.,-1.6,-1.95943487863577E-16));
#260=UNCERTAINTY_MEASURE_WITH_UNIT(LENGTH_MEASURE(0.01),#264,
'DISTANCE_ACCURACY_VALUE',
'Maximum model space distance between geometric entities at asserted c
onnectivities');
#261=UNCERTAINTY_MEASURE_WITH_UNIT(LENGTH_MEASURE(0.01),#264,
'DISTANCE_ACCURACY_VALUE',
'Maximum model space distance between geometric entities at asserted c
onnectivities');
#262=(
GEOMETRIC_REPRESENTATION_CONTEXT(3)
GLOBAL_UNCERTAINTY_ASSIGNED_CONTEXT((#260))
GLOBAL_UNIT_ASSIGNED_CONTEXT((#264,#266,#267))
REPRESENTATION_CONTEXT('','3D')
);
#263=(
GEOMETRIC_REPRESENTATION_CONTEXT(3)
GLOBAL_UNCERTAINTY_ASSIGNED_CONTEXT((#261))
GLOBAL_UNIT_ASSIGNED_CONTEXT((#264,#266,#267))
REPRESENTATION_CONTEXT('','3D')
);
#264=(
LENGTH_UNIT()
NAMED_UNIT(*)
SI_UNIT(.MILLI.,.METRE.)
);
#265=(
LENGTH_UNIT()
NAMED_UNIT(*)
SI_UNIT($,.METRE.)
);
#266=(
NAMED_UNIT(*)
PLANE_ANGLE_UNIT()
SI_UNIT($,.RADIAN.)
);
#267=(
NAMED_UNIT(*)
SI_UNIT($,.STERADIAN.)
SOLID_ANGLE_UNIT()
);
#268=SHAPE_DEFINITION_REPRESENTATION(#269,#270);
#269=PRODUCT_DEFINITION_SHAPE('',$,#272);
#270=SHAPE_REPRESENTATION('',(#126),#262);
#271=PRODUCT_DEFINITION_CONTEXT('part definition',#276,'design');
#272=PRODUCT_DEFINITION('#1 part2','#1 part2 v1',#273,#271);
#273=PRODUCT_DEFINITION_FORMATION('',$,#278);
#274=PRODUCT_RELATED_PRODUCT_CATEGORY('#1 part2 v1','#1 part2 v1',(#278));
#275=APPLICATION_PROTOCOL_DEFINITION('international standard',
'automotive_design',2009,#276);
#276=APPLICATION_CONTEXT(
'Core Data for Automotive Mechanical Design Process');
#277=PRODUCT_CONTEXT('part definition',#276,'mechanical');
#278=PRODUCT('#1 part2','#1 part2 v1',$,(#277));
#279=PRESENTATION_STYLE_ASSIGNMENT((#281));
#280=PRESENTATION_STYLE_ASSIGNMENT((#282));
#281=SURFACE_STYLE_USAGE(.BOTH.,#283);
#282=SURFACE_STYLE_USAGE(.BOTH.,#284);
#283=SURFACE_SIDE_STYLE('',(#285));
#284=SURFACE_SIDE_STYLE('',(#286));
#285=SURFACE_STYLE_FILL_AREA(#287);
#286=SURFACE_STYLE_FILL_AREA(#288);
#287=FILL_AREA_STYLE('Steel - Satin',(#289));
#288=FILL_AREA_STYLE('Opaque(160,160,160)',(#290));
#289=FILL_AREA_STYLE_COLOUR('Steel - Satin',#291);
#290=FILL_AREA_STYLE_COLOUR('Opaque(160,160,160)',#292);
#291=COLOUR_RGB('Steel - Satin',0.627450980392157,0.627450980392157,0.627450980392157);
#292=COLOUR_RGB('Opaque(160,160,160)',0.627450980392157,0.627450980392157,
0.627450980392157);
ENDSEC;
END-ISO-10303-21;
