ISO-10303-21;
HEADER;
/* Generated by software containing ST-Developer
 * from STEP Tools, Inc. (www.steptools.com) 
 */

FILE_DESCRIPTION(
/* description */ (''),
/* implementation_level */ '2;1');

FILE_NAME(
/* name */ '#2 part 6 pin .step',
/* time_stamp */ '2023-07-05T12:04:53+05:30',
/* author */ (''),
/* organization */ (''),
/* preprocessor_version */ 'ST-DEVELOPER v19.2',
/* originating_system */ 'Autodesk Translation Framework v12.6.0.85',
/* authorisation */ '');

FILE_SCHEMA (('AUTOMOTIVE_DESIGN { 1 0 10303 214 3 1 1 }'));
ENDSEC;

DATA;
#10=MECHANICAL_DESIGN_GEOMETRIC_PRESENTATION_REPRESENTATION('',(#13),#331);
#11=SHAPE_REPRESENTATION_RELATIONSHIP('SRR','None',#338,#12);
#12=ADVANCED_BREP_SHAPE_REPRESENTATION('',(#14),#330);
#13=STYLED_ITEM('',(#348),#14);
#14=MANIFOLD_SOLID_BREP('Body1',#184);
#15=CONICAL_SURFACE('',#217,1.19999999664724,0.274167452090594);
#16=FACE_BOUND('',#39,.T.);
#17=FACE_BOUND('',#41,.T.);
#18=FACE_BOUND('',#47,.T.);
#19=PLANE('',#201);
#20=PLANE('',#202);
#21=PLANE('',#203);
#22=PLANE('',#207);
#23=PLANE('',#212);
#24=PLANE('',#213);
#25=PLANE('',#215);
#26=FACE_OUTER_BOUND('',#37,.T.);
#27=FACE_OUTER_BOUND('',#38,.T.);
#28=FACE_OUTER_BOUND('',#40,.T.);
#29=FACE_OUTER_BOUND('',#42,.T.);
#30=FACE_OUTER_BOUND('',#43,.T.);
#31=FACE_OUTER_BOUND('',#44,.T.);
#32=FACE_OUTER_BOUND('',#45,.T.);
#33=FACE_OUTER_BOUND('',#46,.T.);
#34=FACE_OUTER_BOUND('',#48,.T.);
#35=FACE_OUTER_BOUND('',#49,.T.);
#36=FACE_OUTER_BOUND('',#50,.T.);
#37=EDGE_LOOP('',(#124,#125,#126,#127));
#38=EDGE_LOOP('',(#128,#129,#130,#131));
#39=EDGE_LOOP('',(#132));
#40=EDGE_LOOP('',(#133,#134,#135,#136));
#41=EDGE_LOOP('',(#137));
#42=EDGE_LOOP('',(#138,#139,#140,#141,#142));
#43=EDGE_LOOP('',(#143,#144));
#44=EDGE_LOOP('',(#145,#146,#147,#148,#149,#150,#151,#152,#153,#154,#155,
#156));
#45=EDGE_LOOP('',(#157,#158));
#46=EDGE_LOOP('',(#159));
#47=EDGE_LOOP('',(#160));
#48=EDGE_LOOP('',(#161));
#49=EDGE_LOOP('',(#162,#163,#164,#165));
#50=EDGE_LOOP('',(#166,#167,#168,#169));
#51=LINE('',#283,#63);
#52=LINE('',#288,#64);
#53=LINE('',#290,#65);
#54=LINE('',#292,#66);
#55=LINE('',#293,#67);
#56=LINE('',#297,#68);
#57=LINE('',#299,#69);
#58=LINE('',#301,#70);
#59=LINE('',#302,#71);
#60=LINE('',#313,#72);
#61=LINE('',#325,#73);
#62=LINE('',#327,#74);
#63=VECTOR('',#226,2.2);
#64=VECTOR('',#231,10.);
#65=VECTOR('',#232,10.);
#66=VECTOR('',#233,10.);
#67=VECTOR('',#234,10.);
#68=VECTOR('',#237,10.);
#69=VECTOR('',#238,10.);
#70=VECTOR('',#239,10.);
#71=VECTOR('',#240,10.);
#72=VECTOR('',#257,3.);
#73=VECTOR('',#274,1.19999999664724);
#74=VECTOR('',#277,2.1);
#75=CIRCLE('',#199,2.2);
#76=CIRCLE('',#200,2.2);
#77=CIRCLE('',#204,3.);
#78=CIRCLE('',#205,3.);
#79=CIRCLE('',#206,3.);
#80=CIRCLE('',#208,3.);
#81=CIRCLE('',#210,3.);
#82=CIRCLE('',#211,3.);
#83=CIRCLE('',#214,2.1);
#84=CIRCLE('',#216,0.299999993294478);
#85=CIRCLE('',#218,2.1);
#86=VERTEX_POINT('',#280);
#87=VERTEX_POINT('',#282);
#88=VERTEX_POINT('',#286);
#89=VERTEX_POINT('',#287);
#90=VERTEX_POINT('',#289);
#91=VERTEX_POINT('',#291);
#92=VERTEX_POINT('',#295);
#93=VERTEX_POINT('',#296);
#94=VERTEX_POINT('',#298);
#95=VERTEX_POINT('',#300);
#96=VERTEX_POINT('',#305);
#97=VERTEX_POINT('',#312);
#98=VERTEX_POINT('',#317);
#99=VERTEX_POINT('',#320);
#100=VERTEX_POINT('',#323);
#101=EDGE_CURVE('',#86,#86,#75,.T.);
#102=EDGE_CURVE('',#86,#87,#51,.T.);
#103=EDGE_CURVE('',#87,#87,#76,.T.);
#104=EDGE_CURVE('',#88,#89,#52,.T.);
#105=EDGE_CURVE('',#88,#90,#53,.T.);
#106=EDGE_CURVE('',#91,#90,#54,.T.);
#107=EDGE_CURVE('',#89,#91,#55,.T.);
#108=EDGE_CURVE('',#92,#93,#56,.T.);
#109=EDGE_CURVE('',#92,#94,#57,.T.);
#110=EDGE_CURVE('',#95,#94,#58,.T.);
#111=EDGE_CURVE('',#93,#95,#59,.T.);
#112=EDGE_CURVE('',#90,#95,#77,.T.);
#113=EDGE_CURVE('',#94,#96,#78,.T.);
#114=EDGE_CURVE('',#96,#91,#79,.T.);
#115=EDGE_CURVE('',#93,#92,#80,.T.);
#116=EDGE_CURVE('',#89,#88,#81,.T.);
#117=EDGE_CURVE('',#96,#97,#60,.T.);
#118=EDGE_CURVE('',#97,#97,#82,.T.);
#119=EDGE_CURVE('',#98,#98,#83,.T.);
#120=EDGE_CURVE('',#99,#99,#84,.T.);
#121=EDGE_CURVE('',#100,#100,#85,.T.);
#122=EDGE_CURVE('',#100,#99,#61,.T.);
#123=EDGE_CURVE('',#98,#100,#62,.T.);
#124=ORIENTED_EDGE('',*,*,#101,.F.);
#125=ORIENTED_EDGE('',*,*,#102,.T.);
#126=ORIENTED_EDGE('',*,*,#103,.F.);
#127=ORIENTED_EDGE('',*,*,#102,.F.);
#128=ORIENTED_EDGE('',*,*,#104,.F.);
#129=ORIENTED_EDGE('',*,*,#105,.T.);
#130=ORIENTED_EDGE('',*,*,#106,.F.);
#131=ORIENTED_EDGE('',*,*,#107,.F.);
#132=ORIENTED_EDGE('',*,*,#103,.T.);
#133=ORIENTED_EDGE('',*,*,#108,.F.);
#134=ORIENTED_EDGE('',*,*,#109,.T.);
#135=ORIENTED_EDGE('',*,*,#110,.F.);
#136=ORIENTED_EDGE('',*,*,#111,.F.);
#137=ORIENTED_EDGE('',*,*,#101,.T.);
#138=ORIENTED_EDGE('',*,*,#112,.T.);
#139=ORIENTED_EDGE('',*,*,#110,.T.);
#140=ORIENTED_EDGE('',*,*,#113,.T.);
#141=ORIENTED_EDGE('',*,*,#114,.T.);
#142=ORIENTED_EDGE('',*,*,#106,.T.);
#143=ORIENTED_EDGE('',*,*,#115,.T.);
#144=ORIENTED_EDGE('',*,*,#108,.T.);
#145=ORIENTED_EDGE('',*,*,#113,.F.);
#146=ORIENTED_EDGE('',*,*,#109,.F.);
#147=ORIENTED_EDGE('',*,*,#115,.F.);
#148=ORIENTED_EDGE('',*,*,#111,.T.);
#149=ORIENTED_EDGE('',*,*,#112,.F.);
#150=ORIENTED_EDGE('',*,*,#105,.F.);
#151=ORIENTED_EDGE('',*,*,#116,.F.);
#152=ORIENTED_EDGE('',*,*,#107,.T.);
#153=ORIENTED_EDGE('',*,*,#114,.F.);
#154=ORIENTED_EDGE('',*,*,#117,.T.);
#155=ORIENTED_EDGE('',*,*,#118,.T.);
#156=ORIENTED_EDGE('',*,*,#117,.F.);
#157=ORIENTED_EDGE('',*,*,#104,.T.);
#158=ORIENTED_EDGE('',*,*,#116,.T.);
#159=ORIENTED_EDGE('',*,*,#118,.F.);
#160=ORIENTED_EDGE('',*,*,#119,.T.);
#161=ORIENTED_EDGE('',*,*,#120,.F.);
#162=ORIENTED_EDGE('',*,*,#121,.F.);
#163=ORIENTED_EDGE('',*,*,#122,.T.);
#164=ORIENTED_EDGE('',*,*,#120,.T.);
#165=ORIENTED_EDGE('',*,*,#122,.F.);
#166=ORIENTED_EDGE('',*,*,#119,.F.);
#167=ORIENTED_EDGE('',*,*,#123,.T.);
#168=ORIENTED_EDGE('',*,*,#121,.T.);
#169=ORIENTED_EDGE('',*,*,#123,.F.);
#170=CYLINDRICAL_SURFACE('',#198,2.2);
#171=CYLINDRICAL_SURFACE('',#209,3.);
#172=CYLINDRICAL_SURFACE('',#219,2.1);
#173=ADVANCED_FACE('',(#26),#170,.F.);
#174=ADVANCED_FACE('',(#27,#16),#19,.T.);
#175=ADVANCED_FACE('',(#28,#17),#20,.T.);
#176=ADVANCED_FACE('',(#29),#21,.T.);
#177=ADVANCED_FACE('',(#30),#22,.T.);
#178=ADVANCED_FACE('',(#31),#171,.T.);
#179=ADVANCED_FACE('',(#32),#23,.T.);
#180=ADVANCED_FACE('',(#33,#18),#24,.F.);
#181=ADVANCED_FACE('',(#34),#25,.T.);
#182=ADVANCED_FACE('',(#35),#15,.T.);
#183=ADVANCED_FACE('',(#36),#172,.T.);
#184=CLOSED_SHELL('',(#173,#174,#175,#176,#177,#178,#179,#180,#181,#182,
#183));
#185=DERIVED_UNIT_ELEMENT(#187,1.);
#186=DERIVED_UNIT_ELEMENT(#333,-3.);
#187=(
MASS_UNIT()
NAMED_UNIT(*)
SI_UNIT(.KILO.,.GRAM.)
);
#188=DERIVED_UNIT((#185,#186));
#189=MEASURE_REPRESENTATION_ITEM('density measure',
POSITIVE_RATIO_MEASURE(7850.),#188);
#190=PROPERTY_DEFINITION_REPRESENTATION(#195,#192);
#191=PROPERTY_DEFINITION_REPRESENTATION(#196,#193);
#192=REPRESENTATION('material name',(#194),#330);
#193=REPRESENTATION('density',(#189),#330);
#194=DESCRIPTIVE_REPRESENTATION_ITEM('Steel','Steel');
#195=PROPERTY_DEFINITION('material property','material name',#340);
#196=PROPERTY_DEFINITION('material property','density of part',#340);
#197=AXIS2_PLACEMENT_3D('',#278,#220,#221);
#198=AXIS2_PLACEMENT_3D('',#279,#222,#223);
#199=AXIS2_PLACEMENT_3D('',#281,#224,#225);
#200=AXIS2_PLACEMENT_3D('',#284,#227,#228);
#201=AXIS2_PLACEMENT_3D('',#285,#229,#230);
#202=AXIS2_PLACEMENT_3D('',#294,#235,#236);
#203=AXIS2_PLACEMENT_3D('',#303,#241,#242);
#204=AXIS2_PLACEMENT_3D('',#304,#243,#244);
#205=AXIS2_PLACEMENT_3D('',#306,#245,#246);
#206=AXIS2_PLACEMENT_3D('',#307,#247,#248);
#207=AXIS2_PLACEMENT_3D('',#308,#249,#250);
#208=AXIS2_PLACEMENT_3D('',#309,#251,#252);
#209=AXIS2_PLACEMENT_3D('',#310,#253,#254);
#210=AXIS2_PLACEMENT_3D('',#311,#255,#256);
#211=AXIS2_PLACEMENT_3D('',#314,#258,#259);
#212=AXIS2_PLACEMENT_3D('',#315,#260,#261);
#213=AXIS2_PLACEMENT_3D('',#316,#262,#263);
#214=AXIS2_PLACEMENT_3D('',#318,#264,#265);
#215=AXIS2_PLACEMENT_3D('',#319,#266,#267);
#216=AXIS2_PLACEMENT_3D('',#321,#268,#269);
#217=AXIS2_PLACEMENT_3D('',#322,#270,#271);
#218=AXIS2_PLACEMENT_3D('',#324,#272,#273);
#219=AXIS2_PLACEMENT_3D('',#326,#275,#276);
#220=DIRECTION('axis',(0.,0.,1.));
#221=DIRECTION('refdir',(1.,0.,0.));
#222=DIRECTION('center_axis',(0.,1.,0.));
#223=DIRECTION('ref_axis',(0.,0.,-1.));
#224=DIRECTION('center_axis',(0.,1.,0.));
#225=DIRECTION('ref_axis',(0.,0.,-1.));
#226=DIRECTION('',(0.,1.,0.));
#227=DIRECTION('center_axis',(0.,-1.,0.));
#228=DIRECTION('ref_axis',(0.,0.,-1.));
#229=DIRECTION('center_axis',(0.,1.,0.));
#230=DIRECTION('ref_axis',(-1.,0.,0.));
#231=DIRECTION('',(1.,0.,0.));
#232=DIRECTION('',(0.,0.,1.));
#233=DIRECTION('',(-1.,0.,0.));
#234=DIRECTION('',(0.,0.,1.));
#235=DIRECTION('center_axis',(0.,-1.,0.));
#236=DIRECTION('ref_axis',(1.,0.,0.));
#237=DIRECTION('',(-1.,0.,0.));
#238=DIRECTION('',(0.,0.,1.));
#239=DIRECTION('',(1.,0.,0.));
#240=DIRECTION('',(0.,0.,1.));
#241=DIRECTION('center_axis',(0.,0.,1.));
#242=DIRECTION('ref_axis',(-1.,0.,0.));
#243=DIRECTION('center_axis',(0.,0.,1.));
#244=DIRECTION('ref_axis',(-1.,0.,0.));
#245=DIRECTION('center_axis',(0.,0.,1.));
#246=DIRECTION('ref_axis',(-1.,0.,0.));
#247=DIRECTION('center_axis',(0.,0.,1.));
#248=DIRECTION('ref_axis',(-1.,0.,0.));
#249=DIRECTION('center_axis',(0.,0.,1.));
#250=DIRECTION('ref_axis',(-1.,0.,0.));
#251=DIRECTION('center_axis',(0.,0.,1.));
#252=DIRECTION('ref_axis',(-1.,0.,0.));
#253=DIRECTION('center_axis',(0.,0.,1.));
#254=DIRECTION('ref_axis',(-1.,0.,0.));
#255=DIRECTION('center_axis',(0.,0.,1.));
#256=DIRECTION('ref_axis',(-1.,0.,0.));
#257=DIRECTION('',(0.,0.,-1.));
#258=DIRECTION('center_axis',(0.,0.,1.));
#259=DIRECTION('ref_axis',(-1.,0.,0.));
#260=DIRECTION('center_axis',(0.,0.,1.));
#261=DIRECTION('ref_axis',(-1.,0.,0.));
#262=DIRECTION('center_axis',(0.,0.,1.));
#263=DIRECTION('ref_axis',(-1.,0.,0.));
#264=DIRECTION('center_axis',(0.,0.,1.));
#265=DIRECTION('ref_axis',(1.,0.,0.));
#266=DIRECTION('center_axis',(0.,0.,-1.));
#267=DIRECTION('ref_axis',(-1.,0.,0.));
#268=DIRECTION('center_axis',(0.,0.,1.));
#269=DIRECTION('ref_axis',(1.,0.,0.));
#270=DIRECTION('center_axis',(0.,0.,1.));
#271=DIRECTION('ref_axis',(1.,0.,0.));
#272=DIRECTION('center_axis',(0.,0.,1.));
#273=DIRECTION('ref_axis',(1.,0.,0.));
#274=DIRECTION('',(0.270745577852956,3.31567705300923E-17,-0.962650939891022));
#275=DIRECTION('center_axis',(0.,0.,1.));
#276=DIRECTION('ref_axis',(1.,0.,0.));
#277=DIRECTION('',(0.,0.,-1.));
#278=CARTESIAN_POINT('',(0.,0.,0.));
#279=CARTESIAN_POINT('Origin',(0.,1.19902026463847,34.95));
#280=CARTESIAN_POINT('',(2.69422295812418E-16,-1.00097973536153,37.15));
#281=CARTESIAN_POINT('Origin',(0.,-1.00097973536153,34.95));
#282=CARTESIAN_POINT('',(-2.69422295812418E-16,1.,37.15));
#283=CARTESIAN_POINT('',(2.69422295812418E-16,1.19902026463847,37.15));
#284=CARTESIAN_POINT('Origin',(0.,1.,34.95));
#285=CARTESIAN_POINT('Origin',(2.82842712474619,1.,31.4));
#286=CARTESIAN_POINT('',(-2.82842712474619,1.,32.));
#287=CARTESIAN_POINT('',(2.82842712474619,1.,32.));
#288=CARTESIAN_POINT('',(-2.82842712474619,1.,32.));
#289=CARTESIAN_POINT('',(-2.82842712474619,1.,37.9));
#290=CARTESIAN_POINT('',(-2.82842712474619,1.,31.4));
#291=CARTESIAN_POINT('',(2.82842712474619,1.,37.9));
#292=CARTESIAN_POINT('',(-2.82842712474619,1.,37.9));
#293=CARTESIAN_POINT('',(2.82842712474619,1.,31.4));
#294=CARTESIAN_POINT('Origin',(-2.82808054506861,-1.00097973536153,31.4));
#295=CARTESIAN_POINT('',(2.82808054506861,-1.00097973536153,32.));
#296=CARTESIAN_POINT('',(-2.82808054506861,-1.00097973536153,32.));
#297=CARTESIAN_POINT('',(-2.82842712474619,-1.00097973536153,32.));
#298=CARTESIAN_POINT('',(2.82808054506861,-1.00097973536153,37.9));
#299=CARTESIAN_POINT('',(2.82808054506861,-1.00097973536153,31.4));
#300=CARTESIAN_POINT('',(-2.82808054506861,-1.00097973536153,37.9));
#301=CARTESIAN_POINT('',(-2.82842712474619,-1.00097973536153,37.9));
#302=CARTESIAN_POINT('',(-2.82808054506861,-1.00097973536153,31.4));
#303=CARTESIAN_POINT('Origin',(0.,-0.000489867680767142,37.9));
#304=CARTESIAN_POINT('Origin',(0.,0.,37.9));
#305=CARTESIAN_POINT('',(3.,3.67394039744206E-16,37.9));
#306=CARTESIAN_POINT('Origin',(0.,0.,37.9));
#307=CARTESIAN_POINT('Origin',(0.,0.,37.9));
#308=CARTESIAN_POINT('Origin',(0.,-2.00048986768077,32.));
#309=CARTESIAN_POINT('Origin',(0.,0.,32.));
#310=CARTESIAN_POINT('Origin',(0.,0.,31.4));
#311=CARTESIAN_POINT('Origin',(0.,0.,32.));
#312=CARTESIAN_POINT('',(3.,3.67394039744206E-16,31.4));
#313=CARTESIAN_POINT('',(3.,3.67394039744206E-16,31.4));
#314=CARTESIAN_POINT('Origin',(0.,0.,31.4));
#315=CARTESIAN_POINT('Origin',(0.,2.,32.));
#316=CARTESIAN_POINT('Origin',(0.,2.,31.4));
#317=CARTESIAN_POINT('',(-2.1,-2.57175827820944E-16,31.4));
#318=CARTESIAN_POINT('Origin',(0.,0.,31.4));
#319=CARTESIAN_POINT('Origin',(0.299999993294477,0.,5.51091047298464E-17));
#320=CARTESIAN_POINT('',(-0.299999993294478,-3.67394031532309E-17,0.));
#321=CARTESIAN_POINT('Origin',(0.,0.,0.));
#322=CARTESIAN_POINT('Origin',(0.,0.,3.2));
#323=CARTESIAN_POINT('',(-2.1,-2.57175827820944E-16,6.4));
#324=CARTESIAN_POINT('Origin',(0.,0.,6.4));
#325=CARTESIAN_POINT('',(-1.19999999664724,-1.46957615487088E-16,3.2));
#326=CARTESIAN_POINT('Origin',(0.,0.,18.9));
#327=CARTESIAN_POINT('',(-2.1,-2.57175827820944E-16,18.9));
#328=UNCERTAINTY_MEASURE_WITH_UNIT(LENGTH_MEASURE(0.01),#332,
'DISTANCE_ACCURACY_VALUE',
'Maximum model space distance between geometric entities at asserted c
onnectivities');
#329=UNCERTAINTY_MEASURE_WITH_UNIT(LENGTH_MEASURE(0.01),#332,
'DISTANCE_ACCURACY_VALUE',
'Maximum model space distance between geometric entities at asserted c
onnectivities');
#330=(
GEOMETRIC_REPRESENTATION_CONTEXT(3)
GLOBAL_UNCERTAINTY_ASSIGNED_CONTEXT((#328))
GLOBAL_UNIT_ASSIGNED_CONTEXT((#332,#334,#335))
REPRESENTATION_CONTEXT('','3D')
);
#331=(
GEOMETRIC_REPRESENTATION_CONTEXT(3)
GLOBAL_UNCERTAINTY_ASSIGNED_CONTEXT((#329))
GLOBAL_UNIT_ASSIGNED_CONTEXT((#332,#334,#335))
REPRESENTATION_CONTEXT('','3D')
);
#332=(
LENGTH_UNIT()
NAMED_UNIT(*)
SI_UNIT(.MILLI.,.METRE.)
);
#333=(
LENGTH_UNIT()
NAMED_UNIT(*)
SI_UNIT($,.METRE.)
);
#334=(
NAMED_UNIT(*)
PLANE_ANGLE_UNIT()
SI_UNIT($,.RADIAN.)
);
#335=(
NAMED_UNIT(*)
SI_UNIT($,.STERADIAN.)
SOLID_ANGLE_UNIT()
);
#336=SHAPE_DEFINITION_REPRESENTATION(#337,#338);
#337=PRODUCT_DEFINITION_SHAPE('',$,#340);
#338=SHAPE_REPRESENTATION('',(#197),#330);
#339=PRODUCT_DEFINITION_CONTEXT('part definition',#344,'design');
#340=PRODUCT_DEFINITION('#2 part 6 pin','#2 part 6 pin v1',#341,#339);
#341=PRODUCT_DEFINITION_FORMATION('',$,#346);
#342=PRODUCT_RELATED_PRODUCT_CATEGORY('#2 part 6 pin v1',
'#2 part 6 pin v1',(#346));
#343=APPLICATION_PROTOCOL_DEFINITION('international standard',
'automotive_design',2009,#344);
#344=APPLICATION_CONTEXT(
'Core Data for Automotive Mechanical Design Process');
#345=PRODUCT_CONTEXT('part definition',#344,'mechanical');
#346=PRODUCT('#2 part 6 pin','#2 part 6 pin v1',$,(#345));
#347=PRESENTATION_STYLE_ASSIGNMENT((#349));
#348=PRESENTATION_STYLE_ASSIGNMENT((#350));
#349=SURFACE_STYLE_USAGE(.BOTH.,#351);
#350=SURFACE_STYLE_USAGE(.BOTH.,#352);
#351=SURFACE_SIDE_STYLE('',(#353));
#352=SURFACE_SIDE_STYLE('',(#354));
#353=SURFACE_STYLE_FILL_AREA(#355);
#354=SURFACE_STYLE_FILL_AREA(#356);
#355=FILL_AREA_STYLE('Steel - Satin',(#357));
#356=FILL_AREA_STYLE('Opaque(191,189,187)',(#358));
#357=FILL_AREA_STYLE_COLOUR('Steel - Satin',#359);
#358=FILL_AREA_STYLE_COLOUR('Opaque(191,189,187)',#360);
#359=COLOUR_RGB('Steel - Satin',0.627450980392157,0.627450980392157,0.627450980392157);
#360=COLOUR_RGB('Opaque(191,189,187)',0.749019607843137,0.741176470588235,
0.733333333333333);
ENDSEC;
END-ISO-10303-21;
