ISO-10303-21;
HEADER;
/* Generated by software containing ST-Developer
 * from STEP Tools, Inc. (www.steptools.com) 
 */

FILE_DESCRIPTION(
/* description */ (''),
/* implementation_level */ '2;1');

FILE_NAME(
/* name */ '#2 part  spring .step',
/* time_stamp */ '2023-07-05T12:04:34+05:30',
/* author */ (''),
/* organization */ (''),
/* preprocessor_version */ 'ST-DEVELOPER v19.2',
/* originating_system */ 'Autodesk Translation Framework v12.6.0.85',
/* authorisation */ '');

FILE_SCHEMA (('AUTOMOTIVE_DESIGN { 1 0 10303 214 3 1 1 }'));
ENDSEC;

DATA;
#10=MECHANICAL_DESIGN_GEOMETRIC_PRESENTATION_REPRESENTATION('',(#13),#711);
#11=SHAPE_REPRESENTATION_RELATIONSHIP('SRR','None',#718,#12);
#12=ADVANCED_BREP_SHAPE_REPRESENTATION('',(#14),#710);
#13=STYLED_ITEM('',(#728),#14);
#14=MANIFOLD_SOLID_BREP('Body1',#41);
#15=PLANE('',#55);
#16=PLANE('',#56);
#17=FACE_OUTER_BOUND('',#20,.T.);
#18=FACE_OUTER_BOUND('',#21,.T.);
#19=FACE_OUTER_BOUND('',#22,.T.);
#20=EDGE_LOOP('',(#31,#32,#33,#34));
#21=EDGE_LOOP('',(#35));
#22=EDGE_LOOP('',(#36));
#23=B_SPLINE_CURVE_WITH_KNOTS('',3,(#582,#583,#584,#585,#586,#587,#588,
#589,#590,#591,#592,#593,#594,#595,#596,#597,#598,#599,#600,#601,#602,#603,
#604,#605,#606,#607,#608,#609,#610,#611,#612,#613,#614,#615,#616,#617,#618,
#619),.UNSPECIFIED.,.T.,.F.,(4,2,2,2,2,2,2,2,2,2,2,2,2,2,2,2,2,2,4),(-0.0813046709720418,
-0.0809640400808121,-0.0770568404022295,-0.0733723052242398,-0.0690240233529592,
-0.0639152671513428,-0.0588595797849371,-0.0536316941967948,-0.0495552683476978,
-0.0457327293811903,-0.0418927721153022,-0.0377634463685603,-0.0324493413645312,
-0.0263859518195366,-0.0187171955586625,-0.0121398863472239,-0.00651311443573556,
-0.000540415460643976,0.),.UNSPECIFIED.);
#24=B_SPLINE_CURVE_WITH_KNOTS('',3,(#621,#622,#623,#624,#625,#626,#627,
#628,#629,#630,#631,#632,#633,#634,#635,#636,#637,#638,#639,#640,#641,#642,
#643,#644,#645,#646,#647,#648,#649,#650,#651,#652,#653,#654,#655,#656,#657,
#658,#659,#660,#661,#662,#663,#664,#665,#666,#667),.UNSPECIFIED.,.F.,.F.,
(4,1,1,1,1,1,1,1,1,1,1,1,1,1,1,1,1,1,1,1,1,1,1,1,1,1,1,1,1,1,1,1,1,1,1,
1,1,1,1,1,1,1,1,1,4),(0.,0.483321946706122,0.966643893412244,1.44996584011837,
1.93328778682449,2.41660973353061,2.89993168023673,3.38325362694285,3.86657557364898,
4.83321946706122,5.79986336047346,6.28318530717959,6.76650725388571,7.73315114729795,
8.21647309400407,8.6997950407102,9.18311698741632,9.66643893412244,10.1497608808286,
10.6330828275347,11.1164047742408,11.5997267209469,12.5663706143592,13.5330145077714,
14.4996584011837,15.4663022945959,16.4329461880081,16.9162681347143,17.3995900814204,
17.8829120281265,18.3662339748326,18.8495559215388,19.3328778682449,19.816199814951,
20.2995217616571,20.7828437083632,21.2661656550694,21.7494876017755,22.2328095484816,
22.7161314951877,23.1994534418939,23.6827753886,24.1660973353061,24.6494192820122,
25.1327412287183),.UNSPECIFIED.);
#25=B_SPLINE_CURVE_WITH_KNOTS('',3,(#668,#669,#670,#671,#672,#673,#674,
#675,#676,#677,#678,#679,#680,#681,#682,#683,#684,#685,#686,#687,#688,#689,
#690,#691,#692,#693,#694,#695,#696,#697,#698,#699,#700,#701,#702,#703,#704,
#705),.UNSPECIFIED.,.T.,.F.,(4,2,2,2,2,2,2,2,2,2,2,2,2,2,2,2,2,2,4),(-0.081304671795045,
-0.0809640409017481,-0.0770568411835853,-0.0733723059682796,-0.0690240240529328,
-0.0639152677995703,-0.0588595803819255,-0.0536316947408114,-0.0495552688503811,
-0.0457327298451273,-0.0418927725403423,-0.0377634467517856,-0.0324493416939051,
-0.02638595208713,-0.0187171957472754,-0.0121398864681274,-0.00651311449866643,
-0.000540415462089111,0.),.UNSPECIFIED.);
#26=VERTEX_POINT('',#581);
#27=VERTEX_POINT('',#620);
#28=EDGE_CURVE('',#26,#26,#23,.T.);
#29=EDGE_CURVE('',#26,#27,#24,.T.);
#30=EDGE_CURVE('',#27,#27,#25,.T.);
#31=ORIENTED_EDGE('',*,*,#28,.T.);
#32=ORIENTED_EDGE('',*,*,#29,.T.);
#33=ORIENTED_EDGE('',*,*,#30,.F.);
#34=ORIENTED_EDGE('',*,*,#29,.F.);
#35=ORIENTED_EDGE('',*,*,#30,.T.);
#36=ORIENTED_EDGE('',*,*,#28,.F.);
#37=B_SPLINE_SURFACE_WITH_KNOTS('',3,3,((#64,#65,#66,#67,#68,#69,#70,#71,
#72,#73,#74,#75,#76,#77,#78,#79,#80,#81,#82,#83,#84,#85,#86,#87,#88,#89,
#90,#91,#92,#93,#94,#95,#96,#97,#98,#99,#100,#101,#102,#103,#104,#105,#106,
#107,#108,#109,#110),(#111,#112,#113,#114,#115,#116,#117,#118,#119,#120,
#121,#122,#123,#124,#125,#126,#127,#128,#129,#130,#131,#132,#133,#134,#135,
#136,#137,#138,#139,#140,#141,#142,#143,#144,#145,#146,#147,#148,#149,#150,
#151,#152,#153,#154,#155,#156,#157),(#158,#159,#160,#161,#162,#163,#164,
#165,#166,#167,#168,#169,#170,#171,#172,#173,#174,#175,#176,#177,#178,#179,
#180,#181,#182,#183,#184,#185,#186,#187,#188,#189,#190,#191,#192,#193,#194,
#195,#196,#197,#198,#199,#200,#201,#202,#203,#204),(#205,#206,#207,#208,
#209,#210,#211,#212,#213,#214,#215,#216,#217,#218,#219,#220,#221,#222,#223,
#224,#225,#226,#227,#228,#229,#230,#231,#232,#233,#234,#235,#236,#237,#238,
#239,#240,#241,#242,#243,#244,#245,#246,#247,#248,#249,#250,#251),(#252,
#253,#254,#255,#256,#257,#258,#259,#260,#261,#262,#263,#264,#265,#266,#267,
#268,#269,#270,#271,#272,#273,#274,#275,#276,#277,#278,#279,#280,#281,#282,
#283,#284,#285,#286,#287,#288,#289,#290,#291,#292,#293,#294,#295,#296,#297,
#298),(#299,#300,#301,#302,#303,#304,#305,#306,#307,#308,#309,#310,#311,
#312,#313,#314,#315,#316,#317,#318,#319,#320,#321,#322,#323,#324,#325,#326,
#327,#328,#329,#330,#331,#332,#333,#334,#335,#336,#337,#338,#339,#340,#341,
#342,#343,#344,#345),(#346,#347,#348,#349,#350,#351,#352,#353,#354,#355,
#356,#357,#358,#359,#360,#361,#362,#363,#364,#365,#366,#367,#368,#369,#370,
#371,#372,#373,#374,#375,#376,#377,#378,#379,#380,#381,#382,#383,#384,#385,
#386,#387,#388,#389,#390,#391,#392),(#393,#394,#395,#396,#397,#398,#399,
#400,#401,#402,#403,#404,#405,#406,#407,#408,#409,#410,#411,#412,#413,#414,
#415,#416,#417,#418,#419,#420,#421,#422,#423,#424,#425,#426,#427,#428,#429,
#430,#431,#432,#433,#434,#435,#436,#437,#438,#439),(#440,#441,#442,#443,
#444,#445,#446,#447,#448,#449,#450,#451,#452,#453,#454,#455,#456,#457,#458,
#459,#460,#461,#462,#463,#464,#465,#466,#467,#468,#469,#470,#471,#472,#473,
#474,#475,#476,#477,#478,#479,#480,#481,#482,#483,#484,#485,#486),(#487,
#488,#489,#490,#491,#492,#493,#494,#495,#496,#497,#498,#499,#500,#501,#502,
#503,#504,#505,#506,#507,#508,#509,#510,#511,#512,#513,#514,#515,#516,#517,
#518,#519,#520,#521,#522,#523,#524,#525,#526,#527,#528,#529,#530,#531,#532,
#533),(#534,#535,#536,#537,#538,#539,#540,#541,#542,#543,#544,#545,#546,
#547,#548,#549,#550,#551,#552,#553,#554,#555,#556,#557,#558,#559,#560,#561,
#562,#563,#564,#565,#566,#567,#568,#569,#570,#571,#572,#573,#574,#575,#576,
#577,#578,#579,#580)),.UNSPECIFIED.,.T.,.F.,.F.,(4,1,1,1,1,1,1,1,4),(4,
1,1,1,1,1,1,1,1,1,1,1,1,1,1,1,1,1,1,1,1,1,1,1,1,1,1,1,1,1,1,1,1,1,1,1,1,
1,1,1,1,1,1,1,4),(-3.14159265358979,-2.46839422782055,-2.24399475256414,
-1.34639685153848,-0.448798950512828,0.448798950512828,1.34639685153848,
2.24399475256414,3.14159265358979),(0.,0.483321946706122,0.966643893412244,
1.44996584011837,1.93328778682449,2.41660973353061,2.89993168023673,3.38325362694285,
3.86657557364898,4.83321946706122,5.79986336047346,6.28318530717959,6.76650725388571,
7.73315114729795,8.21647309400407,8.6997950407102,9.18311698741632,9.66643893412244,
10.1497608808286,10.6330828275347,11.1164047742408,11.5997267209469,12.5663706143592,
13.5330145077714,14.4996584011837,15.4663022945959,16.4329461880081,16.9162681347143,
17.3995900814204,17.8829120281265,18.3662339748326,18.8495559215388,19.3328778682449,
19.816199814951,20.2995217616571,20.7828437083632,21.2661656550694,21.7494876017755,
22.2328095484816,22.7161314951877,23.1994534418939,23.6827753886,24.1660973353061,
24.6494192820122,25.1327412287183),.UNSPECIFIED.);
#38=ADVANCED_FACE('',(#17),#37,.T.);
#39=ADVANCED_FACE('',(#18),#15,.T.);
#40=ADVANCED_FACE('',(#19),#16,.F.);
#41=CLOSED_SHELL('',(#38,#39,#40));
#42=DERIVED_UNIT_ELEMENT(#44,1.);
#43=DERIVED_UNIT_ELEMENT(#713,-3.);
#44=(
MASS_UNIT()
NAMED_UNIT(*)
SI_UNIT(.KILO.,.GRAM.)
);
#45=DERIVED_UNIT((#42,#43));
#46=MEASURE_REPRESENTATION_ITEM('density measure',
POSITIVE_RATIO_MEASURE(7850.),#45);
#47=PROPERTY_DEFINITION_REPRESENTATION(#52,#49);
#48=PROPERTY_DEFINITION_REPRESENTATION(#53,#50);
#49=REPRESENTATION('material name',(#51),#710);
#50=REPRESENTATION('density',(#46),#710);
#51=DESCRIPTIVE_REPRESENTATION_ITEM('Steel','Steel');
#52=PROPERTY_DEFINITION('material property','material name',#720);
#53=PROPERTY_DEFINITION('material property','density of part',#720);
#54=AXIS2_PLACEMENT_3D('',#63,#57,#58);
#55=AXIS2_PLACEMENT_3D('',#706,#59,#60);
#56=AXIS2_PLACEMENT_3D('',#707,#61,#62);
#57=DIRECTION('axis',(0.,0.,1.));
#58=DIRECTION('refdir',(1.,0.,0.));
#59=DIRECTION('center_axis',(9.79717439317883E-16,1.,0.));
#60=DIRECTION('ref_axis',(0.,0.,1.));
#61=DIRECTION('center_axis',(0.,1.,0.));
#62=DIRECTION('ref_axis',(0.,0.,1.));
#63=CARTESIAN_POINT('',(0.,0.,0.));
#64=CARTESIAN_POINT('Ctrl Pts',(2.5,0.,-1.83697019872103E-17));
#65=CARTESIAN_POINT('Ctrl Pts',(2.50336494859715,0.402768288921768,0.0384615384615384));
#66=CARTESIAN_POINT('Ctrl Pts',(2.31192903796766,1.21134125799212,0.115384615384615));
#67=CARTESIAN_POINT('Ctrl Pts',(1.48978857691852,2.15560815335002,0.230769230769231));
#68=CARTESIAN_POINT('Ctrl Pts',(0.319119349628163,2.61167133831459,0.346153846153846));
#69=CARTESIAN_POINT('Ctrl Pts',(-0.935748211161589,2.46999693596203,0.461538461538461));
#70=CARTESIAN_POINT('Ctrl Pts',(-1.98275435983059,1.76060676270897,0.576923076923078));
#71=CARTESIAN_POINT('Ctrl Pts',(-2.58698668658478,0.637016983019664,0.69230769230769));
#72=CARTESIAN_POINT('Ctrl Pts',(-2.59196023722736,-0.634974793560265,0.807692307692309));
#73=CARTESIAN_POINT('Ctrl Pts',(-1.82429731916154,-2.16731676467451,0.961538461538459));
#74=CARTESIAN_POINT('Ctrl Pts',(0.358431763279993,-3.0222816199983,1.15384615384616));
#75=CARTESIAN_POINT('Ctrl Pts',(2.31753070615767,-1.69593371094384,1.34615384615384));
#76=CARTESIAN_POINT('Ctrl Pts',(2.72998359879015,-0.00241040913788513,1.5));
#77=CARTESIAN_POINT('Ctrl Pts',(2.34181338740408,1.70868396943057,1.65384615384615));
#78=CARTESIAN_POINT('Ctrl Pts',(0.781348927941524,2.80856408332511,1.80769230769231));
#79=CARTESIAN_POINT('Ctrl Pts',(-0.985699996082166,2.5938109261943,1.96153846153846));
#80=CARTESIAN_POINT('Ctrl Pts',(-2.08462558637816,1.85273642709464,2.07692307692308));
#81=CARTESIAN_POINT('Ctrl Pts',(-2.71789458210931,0.670564463675981,2.19230769230769));
#82=CARTESIAN_POINT('Ctrl Pts',(-2.72741034668294,-0.670670683811378,2.30769230769231));
#83=CARTESIAN_POINT('Ctrl Pts',(-2.11274126205246,-1.86778484239754,2.42307692307692));
#84=CARTESIAN_POINT('Ctrl Pts',(-1.00344354368895,-2.64816273470858,2.53846153846154));
#85=CARTESIAN_POINT('Ctrl Pts',(0.337776074127805,-2.81642504147756,2.65384615384616));
#86=CARTESIAN_POINT('Ctrl Pts',(2.05306246848972,-2.20085600010215,2.80769230769231));
#87=CARTESIAN_POINT('Ctrl Pts',(3.23149997937959,-0.0100498850481215,3.));
#88=CARTESIAN_POINT('Ctrl Pts',(1.8558655312619,2.6755070782365,3.23076923076923));
#89=CARTESIAN_POINT('Ctrl Pts',(-1.15550496640336,3.06955010497922,3.46153846153846));
#90=CARTESIAN_POINT('Ctrl Pts',(-3.20529573734624,0.795454124490606,3.6923076923077));
#91=CARTESIAN_POINT('Ctrl Pts',(-2.61282003366698,-1.69570190294986,3.88461538461538));
#92=CARTESIAN_POINT('Ctrl Pts',(-1.04949864633228,-2.77039766389686,4.03846153846154));
#93=CARTESIAN_POINT('Ctrl Pts',(0.354722036989327,-2.95774767316832,4.15384615384615));
#94=CARTESIAN_POINT('Ctrl Pts',(1.69697578767358,-2.45895140602995,4.26923076923077));
#95=CARTESIAN_POINT('Ctrl Pts',(2.65350759143325,-1.39544754327528,4.38461538461539));
#96=CARTESIAN_POINT('Ctrl Pts',(3.00901949268052,-0.00146176129208706,4.5));
#97=CARTESIAN_POINT('Ctrl Pts',(2.67417273675185,1.4015541440575,4.61538461538462));
#98=CARTESIAN_POINT('Ctrl Pts',(1.72254424626451,2.49249047958448,4.73076923076924));
#99=CARTESIAN_POINT('Ctrl Pts',(0.368118939272183,3.01800921569561,4.84615384615384));
#100=CARTESIAN_POINT('Ctrl Pts',(-1.0801788467569,2.85305982673695,4.96153846153847));
#101=CARTESIAN_POINT('Ctrl Pts',(-2.29038930669246,2.03135478794685,5.07692307692307));
#102=CARTESIAN_POINT('Ctrl Pts',(-2.98200509580933,0.736752585016834,5.1923076923077));
#103=CARTESIAN_POINT('Ctrl Pts',(-2.99325679940611,-0.736023387616082,5.30769230769231));
#104=CARTESIAN_POINT('Ctrl Pts',(-2.31600603027297,-2.0495435522549,5.42307692307693));
#105=CARTESIAN_POINT('Ctrl Pts',(-1.10210017597438,-2.9011417298008,5.53846153846153));
#106=CARTESIAN_POINT('Ctrl Pts',(0.373675475050157,-3.09114085678553,5.65384615384616));
#107=CARTESIAN_POINT('Ctrl Pts',(1.77335683350081,-2.57234314046696,5.76923076923077));
#108=CARTESIAN_POINT('Ctrl Pts',(2.7750004416511,-1.45815712535154,5.88461538461539));
#109=CARTESIAN_POINT('Ctrl Pts',(3.02156703255839,-0.487338671261906,5.96153846153846));
#110=CARTESIAN_POINT('Ctrl Pts',(3.02493198115554,-2.96357861468848E-15,
6.));
#111=CARTESIAN_POINT('Ctrl Pts',(2.5,0.,-0.0336599212884621));
#112=CARTESIAN_POINT('Ctrl Pts',(2.50336494859715,0.402876625291325,0.00480161717307654));
#113=CARTESIAN_POINT('Ctrl Pts',(2.31192888611904,1.21127160154899,0.081724694096153));
#114=CARTESIAN_POINT('Ctrl Pts',(1.48979671788483,2.15565969462118,0.197109309480769));
#115=CARTESIAN_POINT('Ctrl Pts',(0.31911969404787,2.61164725591626,0.312493924865384));
#116=CARTESIAN_POINT('Ctrl Pts',(-0.935755630921281,2.47002580630653,0.427878540249999));
#117=CARTESIAN_POINT('Ctrl Pts',(-1.98274936487269,1.76059658247708,0.543263155634615));
#118=CARTESIAN_POINT('Ctrl Pts',(-2.58700352867183,0.637025358230209,0.65864777101923));
#119=CARTESIAN_POINT('Ctrl Pts',(-2.59195807631112,-0.634975475130404,0.774032386403846));
#120=CARTESIAN_POINT('Ctrl Pts',(-1.82430242946254,-2.16733000082879,0.927878540249998));
#121=CARTESIAN_POINT('Ctrl Pts',(0.358433723238027,-3.02227651916905,1.12018623255769));
#122=CARTESIAN_POINT('Ctrl Pts',(2.3175339262279,-1.69594684078718,1.31249392486538));
#123=CARTESIAN_POINT('Ctrl Pts',(2.72998762401421,-0.00240907315127524,
1.46634007871154));
#124=CARTESIAN_POINT('Ctrl Pts',(2.34181363805964,1.70869215655996,1.62018623255769));
#125=CARTESIAN_POINT('Ctrl Pts',(0.781356595399061,2.80856975095712,1.77403238640385));
#126=CARTESIAN_POINT('Ctrl Pts',(-0.985698660876041,2.59381151160214,1.92787854025));
#127=CARTESIAN_POINT('Ctrl Pts',(-2.08464023723953,1.85274535287551,2.04326315563462));
#128=CARTESIAN_POINT('Ctrl Pts',(-2.71788685774082,0.670564380821962,2.15864777101923));
#129=CARTESIAN_POINT('Ctrl Pts',(-2.72743056857696,-0.670675983808873,2.27403238640385));
#130=CARTESIAN_POINT('Ctrl Pts',(-2.11273458854337,-1.86778052853545,2.38941700178846));
#131=CARTESIAN_POINT('Ctrl Pts',(-1.00345216684037,-2.64817862585442,2.50480161717308));
#132=CARTESIAN_POINT('Ctrl Pts',(0.337777234466913,-2.8164231462601,2.62018623255769));
#133=CARTESIAN_POINT('Ctrl Pts',(2.05307265223776,-2.20086197453082,2.77403238640384));
#134=CARTESIAN_POINT('Ctrl Pts',(3.23150077019819,-0.0100488446948393,2.96634007871154));
#135=CARTESIAN_POINT('Ctrl Pts',(1.85587206415772,2.67551116312657,3.19710930948077));
#136=CARTESIAN_POINT('Ctrl Pts',(-1.15551032406733,3.06955567055396,3.42787854025));
#137=CARTESIAN_POINT('Ctrl Pts',(-3.20529627502443,0.795455271259077,3.65864777101924));
#138=CARTESIAN_POINT('Ctrl Pts',(-2.61283131613816,-1.6957051840194,3.85095546332692));
#139=CARTESIAN_POINT('Ctrl Pts',(-1.04949937676002,-2.77039567380409,4.00480161717308));
#140=CARTESIAN_POINT('Ctrl Pts',(0.354726756892432,-2.95776483606319,4.12018623255769));
#141=CARTESIAN_POINT('Ctrl Pts',(1.69697007181221,-2.45894620850306,4.23557084794231));
#142=CARTESIAN_POINT('Ctrl Pts',(2.65352654240272,-1.3954562491763,4.35095546332692));
#143=CARTESIAN_POINT('Ctrl Pts',(3.00901097599038,-0.00146217178202147,
4.46634007871154));
#144=CARTESIAN_POINT('Ctrl Pts',(2.67419123888443,1.40156397354957,4.58172469409614));
#145=CARTESIAN_POINT('Ctrl Pts',(1.72253950055288,2.49248367230769,4.69710930948078));
#146=CARTESIAN_POINT('Ctrl Pts',(0.368121460259787,3.01802965711523,4.81249392486538));
#147=CARTESIAN_POINT('Ctrl Pts',(-1.08017591143111,2.85305241827932,4.92787854025));
#148=CARTESIAN_POINT('Ctrl Pts',(-2.2904048768162,2.03136784724245,5.04326315563461));
#149=CARTESIAN_POINT('Ctrl Pts',(-2.98199697235522,0.736751785914289,5.15864777101923));
#150=CARTESIAN_POINT('Ctrl Pts',(-2.99327719515902,-0.736030875520755,5.27403238640385));
#151=CARTESIAN_POINT('Ctrl Pts',(-2.31599937857448,-2.04953378594646,5.38941700178846));
#152=CARTESIAN_POINT('Ctrl Pts',(-1.10210857254015,-2.90117035605507,5.50480161717308));
#153=CARTESIAN_POINT('Ctrl Pts',(0.373676275778125,-3.09111688841457,5.62018623255769));
#154=CARTESIAN_POINT('Ctrl Pts',(1.77336470242535,-2.57239461375691,5.73557084794231));
#155=CARTESIAN_POINT('Ctrl Pts',(2.77500041967713,-1.45808750136313,5.85095546332692));
#156=CARTESIAN_POINT('Ctrl Pts',(3.02156703255839,-0.487447007631461,5.92787854025));
#157=CARTESIAN_POINT('Ctrl Pts',(3.02493198115554,-2.96357861468848E-15,
5.96634007871154));
#158=CARTESIAN_POINT('Ctrl Pts',(2.48419642736121,0.,-0.0782192654200997));
#159=CARTESIAN_POINT('Ctrl Pts',(2.48756137595837,0.40018777441437,-0.0397577269585613));
#160=CARTESIAN_POINT('Ctrl Pts',(2.29737813139134,1.20372730761653,0.0371653499645161));
#161=CARTESIAN_POINT('Ctrl Pts',(1.4804525755335,2.14206837912417,0.152549965349131));
#162=CARTESIAN_POINT('Ctrl Pts',(0.317136687455361,2.59536578468655,0.267934580733747));
#163=CARTESIAN_POINT('Ctrl Pts',(-0.92991489633458,2.4546258670326,0.383319196118362));
#164=CARTESIAN_POINT('Ctrl Pts',(-1.97046290278723,1.74970840419672,0.498703811502977));
#165=CARTESIAN_POINT('Ctrl Pts',(-2.5710127649383,0.633093291455205,0.614088426887593));
#166=CARTESIAN_POINT('Ctrl Pts',(-2.57602807787967,-0.631061535665233,0.729473042272208));
#167=CARTESIAN_POINT('Ctrl Pts',(-1.81315578903414,-2.15403682377404,0.883319196118362));
#168=CARTESIAN_POINT('Ctrl Pts',(0.356206990094976,-3.00392523598759,1.07562688842606));
#169=CARTESIAN_POINT('Ctrl Pts',(2.30352789867644,-1.68571544888702,1.26793458073374));
#170=CARTESIAN_POINT('Ctrl Pts',(2.71358558365352,-0.00240556905733727,
1.4217807345799));
#171=CARTESIAN_POINT('Ctrl Pts',(2.32783057969996,1.69844775057278,1.57562688842605));
#172=CARTESIAN_POINT('Ctrl Pts',(0.776726848869755,2.79186187386569,1.72947304227221));
#173=CARTESIAN_POINT('Ctrl Pts',(-0.979861015190374,2.57847155945623,1.88331919611836));
#174=CARTESIAN_POINT('Ctrl Pts',(-2.07232895697595,1.8418222648947,1.99870381150297));
#175=CARTESIAN_POINT('Ctrl Pts',(-2.70193805068227,0.666637564842894,2.1140884268876));
#176=CARTESIAN_POINT('Ctrl Pts',(-2.71145347238,-0.66673684472784,2.2294730422722));
#177=CARTESIAN_POINT('Ctrl Pts',(-2.10043826125657,-1.85689437228793,2.34485765765683));
#178=CARTESIAN_POINT('Ctrl Pts',(-0.997624696635837,-2.6327803066844,2.46024227304144));
#179=CARTESIAN_POINT('Ctrl Pts',(0.335812831421873,-2.80013524831705,2.57562688842605));
#180=CARTESIAN_POINT('Ctrl Pts',(2.04122056802246,-2.18819958258623,2.72947304227221));
#181=CARTESIAN_POINT('Ctrl Pts',(3.21301245417863,-0.010036579099115,2.9217807345799));
#182=CARTESIAN_POINT('Ctrl Pts',(1.84535964873897,2.66028548192805,3.15254996534913));
#183=CARTESIAN_POINT('Ctrl Pts',(-1.14894713217649,3.05225670814187,3.38331919611836));
#184=CARTESIAN_POINT('Ctrl Pts',(-3.18734221393517,0.791042522746006,3.61408842688759));
#185=CARTESIAN_POINT('Ctrl Pts',(-2.59829342298218,-1.68624694387256,3.80639611919529));
#186=CARTESIAN_POINT('Ctrl Pts',(-1.04369393780512,-2.75505147150986,3.96024227304144));
#187=CARTESIAN_POINT('Ctrl Pts',(0.352753235269165,-2.94141861697216,4.07562688842606));
#188=CARTESIAN_POINT('Ctrl Pts',(1.68763707995302,-2.4454350031678,4.19101150381067));
#189=CARTESIAN_POINT('Ctrl Pts',(2.63895466879273,-1.38780512655618,4.30639611919529));
#190=CARTESIAN_POINT('Ctrl Pts',(2.99258882965293,-0.00146298271725145,
4.4217807345799));
#191=CARTESIAN_POINT('Ctrl Pts',(2.65961726842022,1.39391507027576,4.53716534996451));
#192=CARTESIAN_POINT('Ctrl Pts',(1.71321104230178,2.47896929299412,4.65254996534914));
#193=CARTESIAN_POINT('Ctrl Pts',(0.366137652801279,3.00168986014198,4.76793458073375));
#194=CARTESIAN_POINT('Ctrl Pts',(-1.07435317236519,2.83769822193245,4.88331919611837));
#195=CARTESIAN_POINT('Ctrl Pts',(-2.27808407448835,2.02045367935622,4.99870381150297));
#196=CARTESIAN_POINT('Ctrl Pts',(-2.96605355955828,0.732820451366957,5.1140884268876));
#197=CARTESIAN_POINT('Ctrl Pts',(-2.97729487493743,-0.732088321912593,5.2294730422722));
#198=CARTESIAN_POINT('Ctrl Pts',(-2.30370895650438,-2.03865050296785,5.34485765765683));
#199=CARTESIAN_POINT('Ctrl Pts',(-1.09627017670063,-2.88576752948085,5.46024227304144));
#200=CARTESIAN_POINT('Ctrl Pts',(0.371694361926309,-3.07483676602357,5.57562688842606));
#201=CARTESIAN_POINT('Ctrl Pts',(1.76401990856829,-2.55880249409995,5.69101150381066));
#202=CARTESIAN_POINT('Ctrl Pts',(2.76044997598468,-1.45054359134274,5.80639611919529));
#203=CARTESIAN_POINT('Ctrl Pts',(3.00576345991961,-0.484758156754507,5.88331919611837));
#204=CARTESIAN_POINT('Ctrl Pts',(3.00912840851676,-2.94809557897073E-15,
5.9217807345799));
#205=CARTESIAN_POINT('Ctrl Pts',(2.42056744325105,0.,-0.142558911333848));
#206=CARTESIAN_POINT('Ctrl Pts',(2.4239323918482,0.389993104763362,-0.104097372872309));
#207=CARTESIAN_POINT('Ctrl Pts',(2.23879240864422,1.17294626840012,-0.0271742959492327));
#208=CARTESIAN_POINT('Ctrl Pts',(1.44287824972406,2.087646812238,0.088210319435383));
#209=CARTESIAN_POINT('Ctrl Pts',(0.309154632992557,2.52967233453542,0.203594934819998));
#210=CARTESIAN_POINT('Ctrl Pts',(-0.906441930166308,2.3927902393108,0.318979550204614));
#211=CARTESIAN_POINT('Ctrl Pts',(-1.920965545316,1.70581065831319,0.434364165589229));
#212=CARTESIAN_POINT('Ctrl Pts',(-2.50672824557446,0.617310648461159,0.549748780973844));
#213=CARTESIAN_POINT('Ctrl Pts',(-2.51187748117324,-0.615307045700106,0.665133396358461));
#214=CARTESIAN_POINT('Ctrl Pts',(-1.76830651238082,-2.10059242487618,0.818979550204612));
#215=CARTESIAN_POINT('Ctrl Pts',(0.347253047884538,-2.93000883330342,1.01128724251231));
#216=CARTESIAN_POINT('Ctrl Pts',(2.24715502717028,-1.64459791387478,1.20359493482));
#217=CARTESIAN_POINT('Ctrl Pts',(2.64757048009035,-0.00238367575832738,
1.35744108866615));
#218=CARTESIAN_POINT('Ctrl Pts',(2.27153288450423,1.65724901585575,1.5112872425123));
#219=CARTESIAN_POINT('Ctrl Pts',(0.758131055224804,2.72462496860517,1.66513339635846));
#220=CARTESIAN_POINT('Ctrl Pts',(-0.956349469314263,2.51671263419879,1.81897955020461));
#221=CARTESIAN_POINT('Ctrl Pts',(-2.02284615438874,1.79789529747401,1.93436416558923));
#222=CARTESIAN_POINT('Ctrl Pts',(-2.63767930693346,0.650826776533443,2.04974878097384));
#223=CARTESIAN_POINT('Ctrl Pts',(-2.64724367639625,-0.650907807247789,2.16513339635846));
#224=CARTESIAN_POINT('Ctrl Pts',(-2.05089140296819,-1.81303895172271,2.28051801174307));
#225=CARTESIAN_POINT('Ctrl Pts',(-0.974212148386026,-2.57087557034999,2.39590262712769));
#226=CARTESIAN_POINT('Ctrl Pts',(0.327910433787582,-2.73454521036682,2.5112872425123));
#227=CARTESIAN_POINT('Ctrl Pts',(1.99356056868793,-2.13725256118782,2.66513339635846));
#228=CARTESIAN_POINT('Ctrl Pts',(3.13857865575905,-0.00998113258207853,
2.85744108866615));
#229=CARTESIAN_POINT('Ctrl Pts',(1.80307220415373,2.5990070309411,3.08821031943538));
#230=CARTESIAN_POINT('Ctrl Pts',(-1.12255336304515,2.98263935652636,3.31897955020462));
#231=CARTESIAN_POINT('Ctrl Pts',(-3.11505797926682,0.773282418366786,3.54974878097384));
#232=CARTESIAN_POINT('Ctrl Pts',(-2.53982611333908,-1.64818491362479,3.74205647328154));
#233=CARTESIAN_POINT('Ctrl Pts',(-1.02032410069964,-2.69326042634385,3.89590262712769));
#234=CARTESIAN_POINT('Ctrl Pts',(0.344834866105307,-2.87570481824446,4.0112872425123));
#235=CARTESIAN_POINT('Ctrl Pts',(1.65002690310331,-2.39100535443253,4.12667185789693));
#236=CARTESIAN_POINT('Ctrl Pts',(2.58039523104315,-1.3570505972966,4.24205647328152));
#237=CARTESIAN_POINT('Ctrl Pts',(2.92641969116683,-0.00146863971770142,
4.35744108866616));
#238=CARTESIAN_POINT('Ctrl Pts',(2.60104677279825,1.36317602395469,4.47282570405076));
#239=CARTESIAN_POINT('Ctrl Pts',(1.67562477204189,2.42451748482915,4.58821031943539));
#240=CARTESIAN_POINT('Ctrl Pts',(0.358165057013967,2.93602102281073,4.70359493481999));
#241=CARTESIAN_POINT('Ctrl Pts',(-1.05089232001207,2.77583536476438,4.81897955020461));
#242=CARTESIAN_POINT('Ctrl Pts',(-2.22856829044617,1.97658671292922,4.93436416558923));
#243=CARTESIAN_POINT('Ctrl Pts',(-2.90181420887828,0.716987296538252,5.04974878097384));
#244=CARTESIAN_POINT('Ctrl Pts',(-2.91306505887329,-0.716258285955263,5.16513339635847));
#245=CARTESIAN_POINT('Ctrl Pts',(-2.25418600113191,-1.99477487873423,5.28051801174307));
#246=CARTESIAN_POINT('Ctrl Pts',(-1.07281231887167,-2.82391885444698,5.39590262712769));
#247=CARTESIAN_POINT('Ctrl Pts',(0.363719366070072,-3.00914941107435,5.5112872425123));
#248=CARTESIAN_POINT('Ctrl Pts',(1.72644137441599,-2.50437729333677,5.62667185789693));
#249=CARTESIAN_POINT('Ctrl Pts',(2.70186626233731,-1.4197642869667,5.74205647328154));
#250=CARTESIAN_POINT('Ctrl Pts',(2.94213447580944,-0.474563487103499,5.81897955020461));
#251=CARTESIAN_POINT('Ctrl Pts',(2.94549942440659,-2.88575715359193E-15,
5.85744108866615));
#252=CARTESIAN_POINT('Ctrl Pts',(2.31193412048441,0.,-0.167329005239427));
#253=CARTESIAN_POINT('Ctrl Pts',(2.31529906908156,0.372454548267898,-0.128867466777889));
#254=CARTESIAN_POINT('Ctrl Pts',(2.13876959777856,1.12047970033248,-0.0519443898548118));
#255=CARTESIAN_POINT('Ctrl Pts',(1.37871784972053,1.99466984651791,0.0634402255298039));
#256=CARTESIAN_POINT('Ctrl Pts',(0.295526503150288,2.41754398770513,0.178824840914419));
#257=CARTESIAN_POINT('Ctrl Pts',(-0.866357570743756,2.28718318718552,0.294209456299034));
#258=CARTESIAN_POINT('Ctrl Pts',(-1.83646519503388,1.63087686457369,0.40959407168365));
#259=CARTESIAN_POINT('Ctrl Pts',(-2.39695501406927,0.590354749068118,0.524978687068264));
#260=CARTESIAN_POINT('Ctrl Pts',(-2.40235627105006,-0.588408675953467,0.64036330245288));
#261=CARTESIAN_POINT('Ctrl Pts',(-1.69172936742621,-2.0093308915398,0.794209456299035));
#262=CARTESIAN_POINT('Ctrl Pts',(0.331963633517302,-2.80381814691712,0.986517148606726));
#263=CARTESIAN_POINT('Ctrl Pts',(2.15090605396596,-1.57438208043558,1.17882484091442));
#264=CARTESIAN_POINT('Ctrl Pts',(2.53485840060179,-0.00234794091775898,
1.33267099476057));
#265=CARTESIAN_POINT('Ctrl Pts',(2.17541591205789,1.58690063090363,1.48651714860673));
#266=CARTESIAN_POINT('Ctrl Pts',(0.726373153886449,2.60982489518742,1.64036330245288));
#267=CARTESIAN_POINT('Ctrl Pts',(-0.916210012767928,2.41127132979917,1.79420945629903));
#268=CARTESIAN_POINT('Ctrl Pts',(-1.93834648665315,1.72288811113316,1.90959407168365));
#269=CARTESIAN_POINT('Ctrl Pts',(-2.52798030188359,0.623833229355316,2.02497868706827));
#270=CARTESIAN_POINT('Ctrl Pts',(-2.53759386199812,-0.623876481781856,2.14036330245288));
#271=CARTESIAN_POINT('Ctrl Pts',(-1.9663086051203,-1.73817020330954,2.2557479178375));
#272=CARTESIAN_POINT('Ctrl Pts',(-0.934229459728247,-2.46516649566809,2.37113253322212));
#273=CARTESIAN_POINT('Ctrl Pts',(0.314417297808847,-2.62256612535882,2.48651714860672));
#274=CARTESIAN_POINT('Ctrl Pts',(1.91217845541788,-2.0502637159802,2.64036330245288));
#275=CARTESIAN_POINT('Ctrl Pts',(3.01149737573516,-0.00988774889800929,
2.83267099476057));
#276=CARTESIAN_POINT('Ctrl Pts',(1.73086710732485,2.49438173211028,3.0634402255298));
#277=CARTESIAN_POINT('Ctrl Pts',(-1.07748487364943,2.86377528911892,3.29420945629903));
#278=CARTESIAN_POINT('Ctrl Pts',(-2.99164694590557,0.742959304802569,3.52497868706827));
#279=CARTESIAN_POINT('Ctrl Pts',(-2.43999140264726,-1.58319783752346,3.71728637937595));
#280=CARTESIAN_POINT('Ctrl Pts',(-0.980424041555876,-2.58776745204714,3.87113253322211));
#281=CARTESIAN_POINT('Ctrl Pts',(0.331310083319632,-2.76349099337029,3.98651714860672));
#282=CARTESIAN_POINT('Ctrl Pts',(1.58582234056302,-2.29808438670854,4.10190176399134));
#283=CARTESIAN_POINT('Ctrl Pts',(2.4803937974273,-1.30453289364677,4.21728637937596));
#284=CARTESIAN_POINT('Ctrl Pts',(2.81346005710514,-0.00147779291943259,
4.33267099476057));
#285=CARTESIAN_POINT('Ctrl Pts',(2.50102701228119,1.31068337205555,4.44805561014519));
#286=CARTESIAN_POINT('Ctrl Pts',(1.6114598316464,2.33156066466585,4.5634402255298));
#287=CARTESIAN_POINT('Ctrl Pts',(0.344550398441861,2.82387992720585,4.67882484091443));
#288=CARTESIAN_POINT('Ctrl Pts',(-1.01084138052029,2.67022645162677,4.79420945629903));
#289=CARTESIAN_POINT('Ctrl Pts',(-2.14401118288956,1.90167688110902,4.90959407168365));
#290=CARTESIAN_POINT('Ctrl Pts',(-2.79214880440722,0.689956444235692,5.02497868706827));
#291=CARTESIAN_POINT('Ctrl Pts',(-2.80338085046191,-0.689222564386389,5.14036330245287));
#292=CARTESIAN_POINT('Ctrl Pts',(-2.16964398573654,-1.91987834395449,5.2557479178375));
#293=CARTESIAN_POINT('Ctrl Pts',(-1.03275255221376,-2.71828982699906,5.37113253322212));
#294=CARTESIAN_POINT('Ctrl Pts',(0.350102726019448,-2.89703133027149,5.48651714860672));
#295=CARTESIAN_POINT('Ctrl Pts',(1.66227412418457,-2.41139420714939,5.60190176399134));
#296=CARTESIAN_POINT('Ctrl Pts',(2.60184672183106,-1.36730064085643,5.71728637937595));
#297=CARTESIAN_POINT('Ctrl Pts',(2.83350115304281,-0.457024930608034,5.79420945629904));
#298=CARTESIAN_POINT('Ctrl Pts',(2.83686610163996,-2.7793271927864E-15,
5.83267099476058));
#299=CARTESIAN_POINT('Ctrl Pts',(2.19517668861693,0.,-0.0745163176559467));
#300=CARTESIAN_POINT('Ctrl Pts',(2.19854163721409,0.353671820356221,-0.0360547791944082));
#301=CARTESIAN_POINT('Ctrl Pts',(2.03126651772195,1.06404607223204,0.0408682977286687));
#302=CARTESIAN_POINT('Ctrl Pts',(1.30976430235133,1.89477171412586,0.156252913113284));
#303=CARTESIAN_POINT('Ctrl Pts',(0.280879412291938,2.29701516516229,0.271637528497899));
#304=CARTESIAN_POINT('Ctrl Pts',(-0.823280134145729,2.17369631769541,0.387022143882514));
#305=CARTESIAN_POINT('Ctrl Pts',(-1.74564240288167,1.55033283284993,0.50240675926713));
#306=CARTESIAN_POINT('Ctrl Pts',(-2.27898291066825,0.561388175090209,0.617791374651745));
#307=CARTESIAN_POINT('Ctrl Pts',(-2.28464320618416,-0.55949914433641,0.73317599003636));
#308=CARTESIAN_POINT('Ctrl Pts',(-1.60942860599482,-1.91125263302288,0.887022143882514));
#309=CARTESIAN_POINT('Ctrl Pts',(0.315532025231968,-2.66818715399179,1.07932983619021));
#310=CARTESIAN_POINT('Ctrl Pts',(2.04746113600562,-1.49892335172384,1.2716375284979));
#311=CARTESIAN_POINT('Ctrl Pts',(2.41371968934053,-0.00230870194915532,
1.42548368234405));
#312=CARTESIAN_POINT('Ctrl Pts',(2.0721110179026,1.51129636080338,1.57932983619021));
#313=CARTESIAN_POINT('Ctrl Pts',(0.692245021141421,2.48644306249299,1.73317599003636));
#314=CARTESIAN_POINT('Ctrl Pts',(-0.873067908282007,2.29794499483653,1.88702214388252));
#315=CARTESIAN_POINT('Ctrl Pts',(-1.84753665845931,1.6422770924803,2.00240675926713));
#316=CARTESIAN_POINT('Ctrl Pts',(-2.41007268226457,0.594820926605364,2.11779137465175));
#317=CARTESIAN_POINT('Ctrl Pts',(-2.4197565094892,-0.594826926563322,2.23317599003636));
#318=CARTESIAN_POINT('Ctrl Pts',(-1.87539615461655,-1.65769973337411,2.34856060542097));
#319=CARTESIAN_POINT('Ctrl Pts',(-0.891262046474491,-2.35156189378673,2.46394522080559));
#320=CARTESIAN_POINT('Ctrl Pts',(0.299915804232869,-2.50221153961173,2.57932983619021));
#321=CARTESIAN_POINT('Ctrl Pts',(1.82471654605595,-1.95677315650213,2.73317599003636));
#322=CARTESIAN_POINT('Ctrl Pts',(2.87491285420959,-0.00978673387962319,
2.92548368234406));
#323=CARTESIAN_POINT('Ctrl Pts',(1.65326624189871,2.3819346060162,3.15625291311328));
#324=CARTESIAN_POINT('Ctrl Pts',(-1.02904928673215,2.73602547437902,3.38702214388252));
#325=CARTESIAN_POINT('Ctrl Pts',(-2.85900699170175,0.710369200577566,3.61779137465174));
#326=CARTESIAN_POINT('Ctrl Pts',(-2.33269760813327,-1.51335276584793,3.81009906695944));
#327=CARTESIAN_POINT('Ctrl Pts',(-0.937540523678438,-2.47438397971036,3.96394522080559));
#328=CARTESIAN_POINT('Ctrl Pts',(0.316776792221883,-2.64289597730441,4.0793298361902));
#329=CARTESIAN_POINT('Ctrl Pts',(1.51681270150412,-2.19821111776216,4.19471445157483));
#330=CARTESIAN_POINT('Ctrl Pts',(2.37292558563763,-1.2480930897365,4.31009906695942));
#331=CARTESIAN_POINT('Ctrl Pts',(2.6920474700981,-0.00148788618814079,4.42548368234406));
#332=CARTESIAN_POINT('Ctrl Pts',(2.39353882359847,1.25427119286709,4.54086829772865));
#333=CARTESIAN_POINT('Ctrl Pts',(1.54249338182196,2.23164785992814,4.6562529131133));
#334=CARTESIAN_POINT('Ctrl Pts',(0.329919141305567,2.70336512046765,4.77163752849789));
#335=CARTESIAN_POINT('Ctrl Pts',(-0.967793416665846,2.55671499683384,4.88702214388252));
#336=CARTESIAN_POINT('Ctrl Pts',(-2.05314019153599,1.82117307089497,5.00240675926713));
#337=CARTESIAN_POINT('Ctrl Pts',(-2.67427704972782,0.660903600613708,5.11779137465174));
#338=CARTESIAN_POINT('Ctrl Pts',(-2.68550664002887,-0.66016964637009,5.23317599003636));
#339=CARTESIAN_POINT('Ctrl Pts',(-2.0787753811663,-1.8393746152753,5.34856060542097));
#340=CARTESIAN_POINT('Ctrl Pts',(-0.989702155646393,-2.60477918681202,5.46394522080559));
#341=CARTESIAN_POINT('Ctrl Pts',(0.335468268284736,-2.77651361248466,5.57932983619021));
#342=CARTESIAN_POINT('Ctrl Pts',(1.59331304493764,-2.31148945425159,5.69471445157482));
#343=CARTESIAN_POINT('Ctrl Pts',(2.49434723755921,-1.3108701734355,5.81009906695944));
#344=CARTESIAN_POINT('Ctrl Pts',(2.71674372117533,-0.438242202696358,5.88702214388251));
#345=CARTESIAN_POINT('Ctrl Pts',(2.72010866977248,-2.66493790061587E-15,
5.92548368234405));
#346=CARTESIAN_POINT('Ctrl Pts',(2.19540842610243,0.,0.0744509550649938));
#347=CARTESIAN_POINT('Ctrl Pts',(2.19877337469958,0.353684656870423,0.112912493526532));
#348=CARTESIAN_POINT('Ctrl Pts',(2.03147992164153,1.06417379640081,0.189835570449609));
#349=CARTESIAN_POINT('Ctrl Pts',(1.30989932300099,1.89495836083913,0.305220185834225));
#350=CARTESIAN_POINT('Ctrl Pts',(0.280908405795022,2.29725982152499,0.42060480121884));
#351=CARTESIAN_POINT('Ctrl Pts',(-0.823363959201144,2.17391505007262,0.535989416603456));
#352=CARTESIAN_POINT('Ctrl Pts',(-1.74582379285623,1.55049499168477,0.651374031988072));
#353=CARTESIAN_POINT('Ctrl Pts',(-2.27921325906894,0.56144377765735,0.766758647372685));
#354=CARTESIAN_POINT('Ctrl Pts',(-2.2848773279374,-0.559556369537947,0.882143262757303));
#355=CARTESIAN_POINT('Ctrl Pts',(-1.60959080167355,-1.91144431015038,1.03598941660345));
#356=CARTESIAN_POINT('Ctrl Pts',(0.315564196104305,-2.66845750214724,1.22829710891115));
#357=CARTESIAN_POINT('Ctrl Pts',(2.04766572460029,-1.49907015811096,1.42060480121884));
#358=CARTESIAN_POINT('Ctrl Pts',(2.41395921451221,-0.00230908125708165,
1.57445095506499));
#359=CARTESIAN_POINT('Ctrl Pts',(2.07231599854503,1.51144457124031,1.72829710891115));
#360=CARTESIAN_POINT('Ctrl Pts',(0.692311027936883,2.48668666919832,1.8821432627573));
#361=CARTESIAN_POINT('Ctrl Pts',(-0.873153836997393,2.2981697902786,2.03598941660346));
#362=CARTESIAN_POINT('Ctrl Pts',(-1.84771359018385,1.64243507354181,2.15137403198807));
#363=CARTESIAN_POINT('Ctrl Pts',(-2.41030844540015,0.59487852825523,2.26675864737269));
#364=CARTESIAN_POINT('Ctrl Pts',(-2.41998582788224,-0.594883387663948,2.3821432627573));
#365=CARTESIAN_POINT('Ctrl Pts',(-1.87557810126021,-1.65786042262598,2.49752787814192));
#366=CARTESIAN_POINT('Ctrl Pts',(-0.891345381647027,-2.35178378822291,2.61291249352654));
#367=CARTESIAN_POINT('Ctrl Pts',(0.299944324668823,-2.50245084424795,2.72829710891115));
#368=CARTESIAN_POINT('Ctrl Pts',(1.82488784078449,-1.95695736647081,2.8821432627573));
#369=CARTESIAN_POINT('Ctrl Pts',(2.87518376562435,-0.00978716909800611,
3.074450955065));
#370=CARTESIAN_POINT('Ctrl Pts',(1.65341878836315,2.38215686686612,3.30522018583422));
#371=CARTESIAN_POINT('Ctrl Pts',(-1.02914421177516,2.73627777358172,3.53598941660346));
#372=CARTESIAN_POINT('Ctrl Pts',(-2.85927013114325,0.710433625936843,3.76675864737269));
#373=CARTESIAN_POINT('Ctrl Pts',(-2.33290801683917,-1.51349065247193,3.95906633968038));
#374=CARTESIAN_POINT('Ctrl Pts',(-0.937625473105587,-2.47460946964573,4.11291249352653));
#375=CARTESIAN_POINT('Ctrl Pts',(0.316804572654625,-2.64313145922114,4.22829710891115));
#376=CARTESIAN_POINT('Ctrl Pts',(1.51695095988169,-2.19841051662038,4.34368172429576));
#377=CARTESIAN_POINT('Ctrl Pts',(2.37313461034479,-1.24820314593238,4.45906633968038));
#378=CARTESIAN_POINT('Ctrl Pts',(2.69229036857775,-0.00148777353989144,
4.57445095506499));
#379=CARTESIAN_POINT('Ctrl Pts',(2.39374798922256,1.25438094072775,4.68983557044961));
#380=CARTESIAN_POINT('Ctrl Pts',(1.54263133559187,2.2318477004503,4.80522018583422));
#381=CARTESIAN_POINT('Ctrl Pts',(0.329947612301701,2.70359970348104,4.92060480121885));
#382=CARTESIAN_POINT('Ctrl Pts',(-0.967879519554469,2.55694196328552,5.03598941660345));
#383=CARTESIAN_POINT('Ctrl Pts',(-2.05331703725043,1.82132990656179,5.15137403198808));
#384=CARTESIAN_POINT('Ctrl Pts',(-2.67451283172178,0.660961444329246,5.26675864737269));
#385=CARTESIAN_POINT('Ctrl Pts',(-2.68573599235037,-0.660225620506193,5.38214326275731));
#386=CARTESIAN_POINT('Ctrl Pts',(-2.07895723586461,-1.83953660072755,5.49752787814192));
#387=CARTESIAN_POINT('Ctrl Pts',(-0.989785706644915,-2.60499802144075,5.61291249352654));
#388=CARTESIAN_POINT('Ctrl Pts',(0.33549713376093,-2.77675822107988,5.72829710891115));
#389=CARTESIAN_POINT('Ctrl Pts',(1.59344814191488,-2.31167612944311,5.84368172429576));
#390=CARTESIAN_POINT('Ctrl Pts',(2.49456060503945,-1.31099788400854,5.95906633968038));
#391=CARTESIAN_POINT('Ctrl Pts',(2.71697545866082,-0.438255039210559,6.03598941660346));
#392=CARTESIAN_POINT('Ctrl Pts',(2.72034040725797,-2.66516493787175E-15,
6.074450955065));
#393=CARTESIAN_POINT('Ctrl Pts',(2.31172659695076,0.,0.16749582740789));
#394=CARTESIAN_POINT('Ctrl Pts',(2.31509154554792,0.372455085107081,0.205957365869429));
#395=CARTESIAN_POINT('Ctrl Pts',(2.13857847529545,1.12035758569555,0.282880442792505));
#396=CARTESIAN_POINT('Ctrl Pts',(1.37859784135906,1.99450842656997,0.398265058177121));
#397=CARTESIAN_POINT('Ctrl Pts',(0.295500577393089,2.41732222052545,0.513649673561735));
#398=CARTESIAN_POINT('Ctrl Pts',(-0.866283328515895,2.28699051627896,0.629034288946351));
#399=CARTESIAN_POINT('Ctrl Pts',(-1.83630220351316,1.63073051886735,0.744418904330966));
#400=CARTESIAN_POINT('Ctrl Pts',(-2.39675060499706,0.590305886511563,0.859803519715583));
#401=CARTESIAN_POINT('Ctrl Pts',(-2.40214637238149,-0.588357505836372,0.975188135100197));
#402=CARTESIAN_POINT('Ctrl Pts',(-1.69158468692697,-2.00916071254612,1.12903428894635));
#403=CARTESIAN_POINT('Ctrl Pts',(0.33193504181542,-2.80357548058313,1.32134198125404));
#404=CARTESIAN_POINT('Ctrl Pts',(2.15072320019874,-1.57425207188919,1.51364967356174));
#405=CARTESIAN_POINT('Ctrl Pts',(2.53464435015777,-0.00234745286553284,
1.66749582740789));
#406=CARTESIAN_POINT('Ctrl Pts',(2.17523237741755,1.58676881606578,1.82134198125405));
#407=CARTESIAN_POINT('Ctrl Pts',(0.726314895621359,2.60960737209349,1.97518813510019));
#408=CARTESIAN_POINT('Ctrl Pts',(-0.916132914342497,2.41107008796048,2.12903428894635));
#409=CARTESIAN_POINT('Ctrl Pts',(-1.93818966945481,1.72274762862704,2.24441890433096));
#410=CARTESIAN_POINT('Ctrl Pts',(-2.52776831544901,0.623781637225813,2.35980351971558));
#411=CARTESIAN_POINT('Ctrl Pts',(-2.5373907506784,-0.62382650885875,2.4751881351002));
#412=CARTESIAN_POINT('Ctrl Pts',(-1.96614492867242,-1.73802582516366,2.59057275048481));
#413=CARTESIAN_POINT('Ctrl Pts',(-0.934155789847446,-2.46496955160284,2.70595736586943));
#414=CARTESIAN_POINT('Ctrl Pts',(0.31439188630646,-2.62235161486915,2.82134198125404));
#415=CARTESIAN_POINT('Ctrl Pts',(1.91202619008535,-2.05009941740784,2.9751881351002));
#416=CARTESIAN_POINT('Ctrl Pts',(3.01125485933585,-0.00988724361104645,
3.16749582740789));
#417=CARTESIAN_POINT('Ctrl Pts',(1.73073122580251,2.49418314868789,3.39826505817712));
#418=CARTESIAN_POINT('Ctrl Pts',(-1.07740046223638,2.86354997046078,3.62903428894636));
#419=CARTESIAN_POINT('Ctrl Pts',(-2.99141136128167,0.742901738528938,3.85980351971557));
#420=CARTESIAN_POINT('Ctrl Pts',(-2.43980423233324,-1.58307472289849,4.05211121202328));
#421=CARTESIAN_POINT('Ctrl Pts',(-0.980348049508083,-2.58756530224093,4.20595736586943));
#422=CARTESIAN_POINT('Ctrl Pts',(0.331285729831707,-2.76328202280618,4.32134198125404));
#423=CARTESIAN_POINT('Ctrl Pts',(1.58569789380902,-2.29790524553148,4.43672659663866));
#424=CARTESIAN_POINT('Ctrl Pts',(2.48020871818057,-1.30443530397834,4.55211121202327));
#425=CARTESIAN_POINT('Ctrl Pts',(2.81324159289237,-0.001477939387152,4.6674958274079));
#426=CARTESIAN_POINT('Ctrl Pts',(2.50084175699291,1.31058618329336,4.7828804427925));
#427=CARTESIAN_POINT('Ctrl Pts',(1.61133576541902,2.33138094919129,4.89826505817713));
#428=CARTESIAN_POINT('Ctrl Pts',(0.344525182330087,2.82367212574021,5.01364967356173));
#429=CARTESIAN_POINT('Ctrl Pts',(-1.01076394840784,2.67002237780766,5.12903428894635));
#430=CARTESIAN_POINT('Ctrl Pts',(-2.1438545448096,1.90153788339428,5.24441890433096));
#431=CARTESIAN_POINT('Ctrl Pts',(-2.79193675676138,0.689904555785464,5.35980351971557));
#432=CARTESIAN_POINT('Ctrl Pts',(-2.80317772806804,-0.689173270539432,5.4751881351002));
#433=CARTESIAN_POINT('Ctrl Pts',(-2.16948039404909,-1.9197321994855,5.59057275048481));
#434=CARTESIAN_POINT('Ctrl Pts',(-1.03267866389324,-2.71809703741589,5.70595736586943));
#435=CARTESIAN_POINT('Ctrl Pts',(0.350076965590405,-2.89680961853226,5.82134198125404));
#436=CARTESIAN_POINT('Ctrl Pts',(1.66215401725733,-2.41123275414871,5.93672659663867));
#437=CARTESIAN_POINT('Ctrl Pts',(2.60165564640396,-1.36717854199912,6.05211121202327));
#438=CARTESIAN_POINT('Ctrl Pts',(2.83329362950916,-0.457025467447219,6.12903428894636));
#439=CARTESIAN_POINT('Ctrl Pts',(2.83665857810631,-2.77912387836142E-15,
6.16749582740789));
#440=CARTESIAN_POINT('Ctrl Pts',(2.45711121074781,0.,0.134114001607117));
#441=CARTESIAN_POINT('Ctrl Pts',(2.46047615934497,0.395820536143296,0.172575540068655));
#442=CARTESIAN_POINT('Ctrl Pts',(2.27243973972868,1.19064237892779,0.249498616991732));
#443=CARTESIAN_POINT('Ctrl Pts',(1.46445607832864,2.11888937717073,0.364883232376348));
#444=CARTESIAN_POINT('Ctrl Pts',(0.313738845002541,2.56740792020776,0.480267847760963));
#445=CARTESIAN_POINT('Ctrl Pts',(-0.919921167987572,2.42829667276754,0.595652463145579));
#446=CARTESIAN_POINT('Ctrl Pts',(-1.94939442890343,1.73102486293954,0.711037078530196));
#447=CARTESIAN_POINT('Ctrl Pts',(-2.543644208421,0.626372891556148,0.826421693914807));
#448=CARTESIAN_POINT('Ctrl Pts',(-2.54872137537136,-0.624355081995908,0.941806309299426));
#449=CARTESIAN_POINT('Ctrl Pts',(-1.79406330593347,-2.13128354648299,1.09565246314558));
#450=CARTESIAN_POINT('Ctrl Pts',(0.352395028074887,-2.97246223168281,1.28796015545327));
#451=CARTESIAN_POINT('Ctrl Pts',(2.27953060069979,-1.66820942657584,1.48026784776096));
#452=CARTESIAN_POINT('Ctrl Pts',(2.68548363095528,-0.00239659037939435,
1.63411400160712));
#453=CARTESIAN_POINT('Ctrl Pts',(2.30386603966822,1.68090842424891,1.78796015545327));
#454=CARTESIAN_POINT('Ctrl Pts',(0.768809143838612,2.7632394128278,1.94180630929943));
#455=CARTESIAN_POINT('Ctrl Pts',(-0.969853097353059,2.55218222933589,2.09565246314558));
#456=CARTESIAN_POINT('Ctrl Pts',(-2.05126166819519,1.82312141192176,2.2110370785302));
#457=CARTESIAN_POINT('Ctrl Pts',(-2.6745867316902,0.659907341382445,2.32642169391481));
#458=CARTESIAN_POINT('Ctrl Pts',(-2.68411586168012,-0.659997480205913,2.44180630929942));
#459=CARTESIAN_POINT('Ctrl Pts',(-2.07934914425557,-1.83822735164798,2.55719092468404));
#460=CARTESIAN_POINT('Ctrl Pts',(-0.987656379720601,-2.60642500492454,2.67257554006866));
#461=CARTESIAN_POINT('Ctrl Pts',(0.332448688730621,-2.7722157450508,2.78796015545327));
#462=CARTESIAN_POINT('Ctrl Pts',(2.02093033885714,-2.1665112265076,2.94180630929942));
#463=CARTESIAN_POINT('Ctrl Pts',(3.18132770523491,-0.0100132422827749,3.13411400160712));
#464=CARTESIAN_POINT('Ctrl Pts',(1.82735730861921,2.63419978478654,3.36488323237635));
#465=CARTESIAN_POINT('Ctrl Pts',(-1.13771061930213,3.02262097854623,3.59565246314558));
#466=CARTESIAN_POINT('Ctrl Pts',(-3.15657254337343,0.783482212128998,3.82642169391481));
#467=CARTESIAN_POINT('Ctrl Pts',(-2.5734025204751,-1.67004408295768,4.0187293862225));
#468=CARTESIAN_POINT('Ctrl Pts',(-1.03374581490855,-2.72874912563757,4.17257554006866));
#469=CARTESIAN_POINT('Ctrl Pts',(0.349381386066799,-2.91344157129179,4.28796015545327));
#470=CARTESIAN_POINT('Ctrl Pts',(1.67162885597715,-2.42226703183271,4.40334477083788));
#471=CARTESIAN_POINT('Ctrl Pts',(2.61402259392858,-1.37471149667745,4.51872938622251));
#472=CARTESIAN_POINT('Ctrl Pts',(2.9644245069946,-0.00146528606363875,4.63411400160711));
#473=CARTESIAN_POINT('Ctrl Pts',(2.63468060097801,1.38082774451999,4.74949861699174));
#474=CARTESIAN_POINT('Ctrl Pts',(1.69721274731406,2.45579229951763,4.86488323237635));
#475=CARTESIAN_POINT('Ctrl Pts',(0.362743281543377,2.97373111720194,4.98026784776097));
#476=CARTESIAN_POINT('Ctrl Pts',(-1.06436724155236,2.81136668946188,5.09565246314557));
#477=CARTESIAN_POINT('Ctrl Pts',(-2.25700251190153,2.00177731303256,5.21103707853021));
#478=CARTESIAN_POINT('Ctrl Pts',(-2.93871059747932,0.726080889730843,5.3264216939148));
#479=CARTESIAN_POINT('Ctrl Pts',(-2.94994869786437,-0.725347974353484,5.44180630929944));
#480=CARTESIAN_POINT('Ctrl Pts',(-2.28263000879523,-2.01997627275777,5.55719092468403));
#481=CARTESIAN_POINT('Ctrl Pts',(-1.08628263045591,-2.85943284356531,5.67257554006866));
#482=CARTESIAN_POINT('Ctrl Pts',(0.368299407761773,-3.04688146703303,5.78796015545327));
#483=CARTESIAN_POINT('Ctrl Pts',(1.74802168936291,-2.535621962637,5.90334477083788));
#484=CARTESIAN_POINT('Ctrl Pts',(2.73551240642027,-1.43745939285341,6.01872938622251));
#485=CARTESIAN_POINT('Ctrl Pts',(2.97867824330621,-0.480390918483433,6.09565246314558));
#486=CARTESIAN_POINT('Ctrl Pts',(2.98204319190336,-2.92155971990688E-15,
6.13411400160711));
#487=CARTESIAN_POINT('Ctrl Pts',(2.5,0.,0.0448798950512828));
#488=CARTESIAN_POINT('Ctrl Pts',(2.50336494859715,0.402839628053616,0.0833414335128213));
#489=CARTESIAN_POINT('Ctrl Pts',(2.31192893797586,1.21129538946061,0.160264510435899));
#490=CARTESIAN_POINT('Ctrl Pts',(1.48979393771722,2.15564209310224,0.275649125820513));
#491=CARTESIAN_POINT('Ctrl Pts',(0.319119576427372,2.61165548013698,0.39103374120513));
#492=CARTESIAN_POINT('Ctrl Pts',(-0.935753097048176,2.47001594698595,0.506418356589743));
#493=CARTESIAN_POINT('Ctrl Pts',(-1.98275107066775,1.76060005906081,0.621802971974361));
#494=CARTESIAN_POINT('Ctrl Pts',(-2.58699777704197,0.637022498067396,0.737187587358973));
#495=CARTESIAN_POINT('Ctrl Pts',(-2.59195881427135,-0.634975242371889,0.852572202743592));
#496=CARTESIAN_POINT('Ctrl Pts',(-1.82430068427741,-2.1673254806372,1.00641835658974));
#497=CARTESIAN_POINT('Ctrl Pts',(0.358433053905711,-3.02227826111954,1.19872604889744));
#498=CARTESIAN_POINT('Ctrl Pts',(2.31753282656299,-1.69594235690114,1.39103374120513));
#499=CARTESIAN_POINT('Ctrl Pts',(2.72998624938654,-0.00240952939523408,
1.54487989505128));
#500=CARTESIAN_POINT('Ctrl Pts',(2.34181355245991,1.7086893606275,1.69872604889743));
#501=CARTESIAN_POINT('Ctrl Pts',(0.781353976936304,2.80856781544156,1.85257220274359));
#502=CARTESIAN_POINT('Ctrl Pts',(-0.985699116853462,2.59381131168338,2.00641835658974));
#503=CARTESIAN_POINT('Ctrl Pts',(-2.08463523392067,1.85274230469106,2.12180297197436));
#504=CARTESIAN_POINT('Ctrl Pts',(-2.71788949563886,0.670564409116891,2.23718758735898));
#505=CARTESIAN_POINT('Ctrl Pts',(-2.72742366273155,-0.67067417384175,2.35257220274359));
#506=CARTESIAN_POINT('Ctrl Pts',(-2.11273686756936,-1.86778200173399,2.46795681812821));
#507=CARTESIAN_POINT('Ctrl Pts',(-1.00344922200491,-2.6481731989742,2.58334143351282));
#508=CARTESIAN_POINT('Ctrl Pts',(0.337776838207171,-2.81642379348329,2.69872604889744));
#509=CARTESIAN_POINT('Ctrl Pts',(2.05306917445326,-2.20085993424316,2.85257220274359));
#510=CARTESIAN_POINT('Ctrl Pts',(3.23150050013095,-0.010049199979014,3.04487989505129));
#511=CARTESIAN_POINT('Ctrl Pts',(1.85586983315164,2.67550976812275,3.27564912582051));
#512=CARTESIAN_POINT('Ctrl Pts',(-1.15550849440691,3.06955376989131,3.50641835658974));
#513=CARTESIAN_POINT('Ctrl Pts',(-3.2052960914055,0.795454879633753,3.73718758735898));
#514=CARTESIAN_POINT('Ctrl Pts',(-2.61282746313598,-1.69570406352302,3.92949527966666));
#515=CARTESIAN_POINT('Ctrl Pts',(-1.04949912731647,-2.77039635342753,4.08334143351283));
#516=CARTESIAN_POINT('Ctrl Pts',(0.354725145029511,-2.95775897487637,4.19872604889743));
#517=CARTESIAN_POINT('Ctrl Pts',(1.69697202379826,-2.45894798347613,4.31411066428206));
#518=CARTESIAN_POINT('Ctrl Pts',(2.65352007058236,-1.39545327608157,4.42949527966666));
#519=CARTESIAN_POINT('Ctrl Pts',(3.00901388446895,-0.00146203159831559,
4.54487989505129));
#520=CARTESIAN_POINT('Ctrl Pts',(2.67418492034339,1.40156061674469,4.66026451043589));
#521=CARTESIAN_POINT('Ctrl Pts',(1.7225411212295,2.49248599701581,4.77564912582052));
#522=CARTESIAN_POINT('Ctrl Pts',(0.368120599333969,3.01802267630108,4.89103374120512));
#523=CARTESIAN_POINT('Ctrl Pts',(-1.08017691385482,2.85305494829273,5.00641835658975));
#524=CARTESIAN_POINT('Ctrl Pts',(-2.29039955956613,2.0313633874487,5.12180297197436));
#525=CARTESIAN_POINT('Ctrl Pts',(-2.98199974654235,0.736752058810518,5.23718758735898));
#526=CARTESIAN_POINT('Ctrl Pts',(-2.99327022994022,-0.736028318375905,5.35257220274359));
#527=CARTESIAN_POINT('Ctrl Pts',(-2.31600165015207,-2.04953712117393,5.46795681812821));
#528=CARTESIAN_POINT('Ctrl Pts',(-1.10210570508446,-2.90116058009213,5.58334143351282));
#529=CARTESIAN_POINT('Ctrl Pts',(0.373676002326808,-3.09112507369456,5.69872604889744));
#530=CARTESIAN_POINT('Ctrl Pts',(1.77336201516093,-2.57237703545378,5.81411066428205));
#531=CARTESIAN_POINT('Ctrl Pts',(2.77500042718131,-1.45811127819136,5.92949527966667));
#532=CARTESIAN_POINT('Ctrl Pts',(3.02156703255839,-0.487410010393754,6.00641835658975));
#533=CARTESIAN_POINT('Ctrl Pts',(3.02493198115554,-2.96357861468848E-15,
6.04487989505128));
#534=CARTESIAN_POINT('Ctrl Pts',(2.5,0.,1.83697019872103E-17));
#535=CARTESIAN_POINT('Ctrl Pts',(2.50336494859715,0.402768288921768,0.0384615384615385));
#536=CARTESIAN_POINT('Ctrl Pts',(2.31192903796766,1.21134125799212,0.115384615384615));
#537=CARTESIAN_POINT('Ctrl Pts',(1.48978857691852,2.15560815335002,0.230769230769231));
#538=CARTESIAN_POINT('Ctrl Pts',(0.319119349628163,2.61167133831459,0.346153846153846));
#539=CARTESIAN_POINT('Ctrl Pts',(-0.935748211161589,2.46999693596203,0.461538461538461));
#540=CARTESIAN_POINT('Ctrl Pts',(-1.98275435983059,1.76060676270897,0.576923076923078));
#541=CARTESIAN_POINT('Ctrl Pts',(-2.58698668658478,0.637016983019664,0.692307692307691));
#542=CARTESIAN_POINT('Ctrl Pts',(-2.59196023722736,-0.634974793560265,0.807692307692309));
#543=CARTESIAN_POINT('Ctrl Pts',(-1.82429731916154,-2.16731676467451,0.961538461538459));
#544=CARTESIAN_POINT('Ctrl Pts',(0.358431763279993,-3.0222816199983,1.15384615384616));
#545=CARTESIAN_POINT('Ctrl Pts',(2.31753070615767,-1.69593371094384,1.34615384615384));
#546=CARTESIAN_POINT('Ctrl Pts',(2.72998359879015,-0.00241040913788513,
1.5));
#547=CARTESIAN_POINT('Ctrl Pts',(2.34181338740408,1.70868396943057,1.65384615384615));
#548=CARTESIAN_POINT('Ctrl Pts',(0.781348927941524,2.80856408332511,1.80769230769231));
#549=CARTESIAN_POINT('Ctrl Pts',(-0.985699996082166,2.5938109261943,1.96153846153846));
#550=CARTESIAN_POINT('Ctrl Pts',(-2.08462558637816,1.85273642709464,2.07692307692308));
#551=CARTESIAN_POINT('Ctrl Pts',(-2.71789458210931,0.670564463675981,2.19230769230769));
#552=CARTESIAN_POINT('Ctrl Pts',(-2.72741034668294,-0.670670683811378,2.30769230769231));
#553=CARTESIAN_POINT('Ctrl Pts',(-2.11274126205246,-1.86778484239754,2.42307692307692));
#554=CARTESIAN_POINT('Ctrl Pts',(-1.00344354368895,-2.64816273470858,2.53846153846154));
#555=CARTESIAN_POINT('Ctrl Pts',(0.337776074127805,-2.81642504147756,2.65384615384616));
#556=CARTESIAN_POINT('Ctrl Pts',(2.05306246848972,-2.20085600010215,2.80769230769231));
#557=CARTESIAN_POINT('Ctrl Pts',(3.23149997937959,-0.0100498850481215,3.));
#558=CARTESIAN_POINT('Ctrl Pts',(1.8558655312619,2.6755070782365,3.23076923076923));
#559=CARTESIAN_POINT('Ctrl Pts',(-1.15550496640336,3.06955010497922,3.46153846153846));
#560=CARTESIAN_POINT('Ctrl Pts',(-3.20529573734624,0.795454124490606,3.6923076923077));
#561=CARTESIAN_POINT('Ctrl Pts',(-2.61282003366698,-1.69570190294986,3.88461538461538));
#562=CARTESIAN_POINT('Ctrl Pts',(-1.04949864633228,-2.77039766389686,4.03846153846154));
#563=CARTESIAN_POINT('Ctrl Pts',(0.354722036989327,-2.95774767316832,4.15384615384615));
#564=CARTESIAN_POINT('Ctrl Pts',(1.69697578767358,-2.45895140602995,4.26923076923077));
#565=CARTESIAN_POINT('Ctrl Pts',(2.65350759143325,-1.39544754327528,4.38461538461539));
#566=CARTESIAN_POINT('Ctrl Pts',(3.00901949268052,-0.00146176129208706,
4.5));
#567=CARTESIAN_POINT('Ctrl Pts',(2.67417273675185,1.4015541440575,4.61538461538462));
#568=CARTESIAN_POINT('Ctrl Pts',(1.72254424626451,2.49249047958448,4.73076923076924));
#569=CARTESIAN_POINT('Ctrl Pts',(0.368118939272183,3.01800921569561,4.84615384615384));
#570=CARTESIAN_POINT('Ctrl Pts',(-1.0801788467569,2.85305982673695,4.96153846153847));
#571=CARTESIAN_POINT('Ctrl Pts',(-2.29038930669246,2.03135478794685,5.07692307692307));
#572=CARTESIAN_POINT('Ctrl Pts',(-2.98200509580933,0.736752585016834,5.1923076923077));
#573=CARTESIAN_POINT('Ctrl Pts',(-2.99325679940611,-0.736023387616082,5.30769230769231));
#574=CARTESIAN_POINT('Ctrl Pts',(-2.31600603027297,-2.0495435522549,5.42307692307693));
#575=CARTESIAN_POINT('Ctrl Pts',(-1.10210017597438,-2.9011417298008,5.53846153846153));
#576=CARTESIAN_POINT('Ctrl Pts',(0.373675475050157,-3.09114085678553,5.65384615384616));
#577=CARTESIAN_POINT('Ctrl Pts',(1.77335683350081,-2.57234314046696,5.76923076923077));
#578=CARTESIAN_POINT('Ctrl Pts',(2.7750004416511,-1.45815712535154,5.88461538461539));
#579=CARTESIAN_POINT('Ctrl Pts',(3.02156703255839,-0.487338671261906,5.96153846153846));
#580=CARTESIAN_POINT('Ctrl Pts',(3.02493198115554,-2.96357861468848E-15,
6.));
#581=CARTESIAN_POINT('',(2.5,0.,-1.83697019872103E-17));
#582=CARTESIAN_POINT('Ctrl Pts',(2.5,0.,-1.83697019872103E-17));
#583=CARTESIAN_POINT('Ctrl Pts',(2.5,0.,-0.00174474447089783));
#584=CARTESIAN_POINT('Ctrl Pts',(2.49996815405489,2.31808531973066E-11,
-0.00348937892847193));
#585=CARTESIAN_POINT('Ctrl Pts',(2.49917809857087,2.31808531973066E-11,
-0.0252328254849537));
#586=CARTESIAN_POINT('Ctrl Pts',(2.49430862681166,2.31885343383975E-11,
-0.0450208265286826));
#587=CARTESIAN_POINT('Ctrl Pts',(2.47796862227852,2.31885343383975E-11,
-0.08030745054497));
#588=CARTESIAN_POINT('Ctrl Pts',(2.4669203362924,2.31915096209119E-11,-0.095920928618046));
#589=CARTESIAN_POINT('Ctrl Pts',(2.43717345251374,2.31915096209119E-11,
-0.124300848905996));
#590=CARTESIAN_POINT('Ctrl Pts',(2.41986313677898,2.32016673714048E-11,
-0.133733084720941));
#591=CARTESIAN_POINT('Ctrl Pts',(2.38611863328432,2.32016673714048E-11,
-0.146666846153344));
#592=CARTESIAN_POINT('Ctrl Pts',(2.36651372714028,2.32159027682688E-11,
-0.150209863714475));
#593=CARTESIAN_POINT('Ctrl Pts',(2.3276814745815,2.32159027682688E-11,-0.149690860021941));
#594=CARTESIAN_POINT('Ctrl Pts',(2.30901387681537,2.32298248790212E-11,
-0.145714259182602));
#595=CARTESIAN_POINT('Ctrl Pts',(2.27283398520812,2.32298248790212E-11,
-0.130008824305052));
#596=CARTESIAN_POINT('Ctrl Pts',(2.25598961220608,2.32465364594882E-11,
-0.118307079184488));
#597=CARTESIAN_POINT('Ctrl Pts',(2.23108481795615,2.32465364594882E-11,
-0.0927415373234105));
#598=CARTESIAN_POINT('Ctrl Pts',(2.21968885978265,2.32557183359194E-11,
-0.0777418227397117));
#599=CARTESIAN_POINT('Ctrl Pts',(2.20390079781793,2.32557183359194E-11,
-0.0398209237710088));
#600=CARTESIAN_POINT('Ctrl Pts',(2.2001272660772,2.32584537546644E-11,-0.0198840477481682));
#601=CARTESIAN_POINT('Ctrl Pts',(2.20016948207508,2.32584537546644E-11,
0.0199746541062493));
#602=CARTESIAN_POINT('Ctrl Pts',(2.20402000000462,2.32561248146641E-11,
0.0399993810970738));
#603=CARTESIAN_POINT('Ctrl Pts',(2.22003481969014,2.32561248146641E-11,
0.0782238500201967));
#604=CARTESIAN_POINT('Ctrl Pts',(2.23159359396893,2.3246592151662E-11,0.0932998699133941));
#605=CARTESIAN_POINT('Ctrl Pts',(2.2565539297377,2.3246592151662E-11,0.118790931896198));
#606=CARTESIAN_POINT('Ctrl Pts',(2.27343975070925,2.32298546792602E-11,
0.130456242698757));
#607=CARTESIAN_POINT('Ctrl Pts',(2.31293857102492,2.32298546792602E-11,
0.147389886365805));
#608=CARTESIAN_POINT('Ctrl Pts',(2.33203077812641,2.32162511528043E-11,
0.149860530588361));
#609=CARTESIAN_POINT('Ctrl Pts',(2.36704287793793,2.32162511528043E-11,
0.150170345720829));
#610=CARTESIAN_POINT('Ctrl Pts',(2.38669015081312,2.32020965335366E-11,
0.146534369622884));
#611=CARTESIAN_POINT('Ctrl Pts',(2.42055864801953,2.32020965335366E-11,
0.133397142924214));
#612=CARTESIAN_POINT('Ctrl Pts',(2.43768171407844,2.31923487924369E-11,
0.123903417990081));
#613=CARTESIAN_POINT('Ctrl Pts',(2.466998004994,2.31923487924369E-11,0.0957091994178279));
#614=CARTESIAN_POINT('Ctrl Pts',(2.47796933022581,2.31884369682853E-11,
0.0800817325147845));
#615=CARTESIAN_POINT('Ctrl Pts',(2.49422104938426,2.31884369682853E-11,
0.0449946546383437));
#616=CARTESIAN_POINT('Ctrl Pts',(2.49913847190294,2.31843246250879E-11,
0.0252972690098009));
#617=CARTESIAN_POINT('Ctrl Pts',(2.4999654519754,2.31843246250879E-11,0.00360264649195128));
#618=CARTESIAN_POINT('Ctrl Pts',(2.5,2.54894705781192E-56,0.00180138486881329));
#619=CARTESIAN_POINT('Ctrl Pts',(2.5,2.54894705781192E-56,3.46944695195361E-17));
#620=CARTESIAN_POINT('',(3.02493198115554,-2.96357861468848E-15,6.));
#621=CARTESIAN_POINT('Ctrl Pts',(2.5,0.,-1.83697019872103E-17));
#622=CARTESIAN_POINT('Ctrl Pts',(2.50336494859715,0.402768288921768,0.0384615384615384));
#623=CARTESIAN_POINT('Ctrl Pts',(2.31192903796766,1.21134125799212,0.115384615384615));
#624=CARTESIAN_POINT('Ctrl Pts',(1.48978857691852,2.15560815335002,0.230769230769231));
#625=CARTESIAN_POINT('Ctrl Pts',(0.319119349628163,2.61167133831459,0.346153846153846));
#626=CARTESIAN_POINT('Ctrl Pts',(-0.935748211161589,2.46999693596203,0.461538461538461));
#627=CARTESIAN_POINT('Ctrl Pts',(-1.98275435983059,1.76060676270897,0.576923076923078));
#628=CARTESIAN_POINT('Ctrl Pts',(-2.58698668658478,0.637016983019664,0.69230769230769));
#629=CARTESIAN_POINT('Ctrl Pts',(-2.59196023722736,-0.634974793560265,0.807692307692309));
#630=CARTESIAN_POINT('Ctrl Pts',(-1.82429731916154,-2.16731676467451,0.961538461538459));
#631=CARTESIAN_POINT('Ctrl Pts',(0.358431763279993,-3.0222816199983,1.15384615384616));
#632=CARTESIAN_POINT('Ctrl Pts',(2.31753070615767,-1.69593371094384,1.34615384615384));
#633=CARTESIAN_POINT('Ctrl Pts',(2.72998359879015,-0.00241040913788513,
1.5));
#634=CARTESIAN_POINT('Ctrl Pts',(2.34181338740408,1.70868396943057,1.65384615384615));
#635=CARTESIAN_POINT('Ctrl Pts',(0.781348927941524,2.80856408332511,1.80769230769231));
#636=CARTESIAN_POINT('Ctrl Pts',(-0.985699996082166,2.5938109261943,1.96153846153846));
#637=CARTESIAN_POINT('Ctrl Pts',(-2.08462558637816,1.85273642709464,2.07692307692308));
#638=CARTESIAN_POINT('Ctrl Pts',(-2.71789458210931,0.670564463675981,2.19230769230769));
#639=CARTESIAN_POINT('Ctrl Pts',(-2.72741034668294,-0.670670683811378,2.30769230769231));
#640=CARTESIAN_POINT('Ctrl Pts',(-2.11274126205246,-1.86778484239754,2.42307692307692));
#641=CARTESIAN_POINT('Ctrl Pts',(-1.00344354368895,-2.64816273470858,2.53846153846154));
#642=CARTESIAN_POINT('Ctrl Pts',(0.337776074127805,-2.81642504147756,2.65384615384616));
#643=CARTESIAN_POINT('Ctrl Pts',(2.05306246848972,-2.20085600010215,2.80769230769231));
#644=CARTESIAN_POINT('Ctrl Pts',(3.23149997937959,-0.0100498850481215,3.));
#645=CARTESIAN_POINT('Ctrl Pts',(1.8558655312619,2.6755070782365,3.23076923076923));
#646=CARTESIAN_POINT('Ctrl Pts',(-1.15550496640336,3.06955010497922,3.46153846153846));
#647=CARTESIAN_POINT('Ctrl Pts',(-3.20529573734624,0.795454124490606,3.6923076923077));
#648=CARTESIAN_POINT('Ctrl Pts',(-2.61282003366698,-1.69570190294986,3.88461538461538));
#649=CARTESIAN_POINT('Ctrl Pts',(-1.04949864633228,-2.77039766389686,4.03846153846154));
#650=CARTESIAN_POINT('Ctrl Pts',(0.354722036989327,-2.95774767316832,4.15384615384615));
#651=CARTESIAN_POINT('Ctrl Pts',(1.69697578767358,-2.45895140602995,4.26923076923077));
#652=CARTESIAN_POINT('Ctrl Pts',(2.65350759143325,-1.39544754327528,4.38461538461539));
#653=CARTESIAN_POINT('Ctrl Pts',(3.00901949268052,-0.00146176129208706,
4.5));
#654=CARTESIAN_POINT('Ctrl Pts',(2.67417273675185,1.4015541440575,4.61538461538462));
#655=CARTESIAN_POINT('Ctrl Pts',(1.72254424626451,2.49249047958448,4.73076923076924));
#656=CARTESIAN_POINT('Ctrl Pts',(0.368118939272183,3.01800921569561,4.84615384615384));
#657=CARTESIAN_POINT('Ctrl Pts',(-1.0801788467569,2.85305982673695,4.96153846153847));
#658=CARTESIAN_POINT('Ctrl Pts',(-2.29038930669246,2.03135478794685,5.07692307692307));
#659=CARTESIAN_POINT('Ctrl Pts',(-2.98200509580933,0.736752585016834,5.1923076923077));
#660=CARTESIAN_POINT('Ctrl Pts',(-2.99325679940611,-0.736023387616082,5.30769230769231));
#661=CARTESIAN_POINT('Ctrl Pts',(-2.31600603027297,-2.0495435522549,5.42307692307693));
#662=CARTESIAN_POINT('Ctrl Pts',(-1.10210017597438,-2.9011417298008,5.53846153846153));
#663=CARTESIAN_POINT('Ctrl Pts',(0.373675475050157,-3.09114085678553,5.65384615384616));
#664=CARTESIAN_POINT('Ctrl Pts',(1.77335683350081,-2.57234314046696,5.76923076923077));
#665=CARTESIAN_POINT('Ctrl Pts',(2.7750004416511,-1.45815712535154,5.88461538461539));
#666=CARTESIAN_POINT('Ctrl Pts',(3.02156703255839,-0.487338671261906,5.96153846153846));
#667=CARTESIAN_POINT('Ctrl Pts',(3.02493198115554,-2.96357861468848E-15,
6.));
#668=CARTESIAN_POINT('Ctrl Pts',(3.02493198115554,-2.77555756156289E-15,
6.));
#669=CARTESIAN_POINT('Ctrl Pts',(3.02493198115554,-2.77555756156289E-15,
5.99825525552354));
#670=CARTESIAN_POINT('Ctrl Pts',(3.02490013520992,-2.77552673335334E-15,
5.99651062105978));
#671=CARTESIAN_POINT('Ctrl Pts',(3.02411007972579,-2.77475270221751E-15,
5.97476717451039));
#672=CARTESIAN_POINT('Ctrl Pts',(3.01924060796627,-2.77001998538452E-15,
5.95497917346673));
#673=CARTESIAN_POINT('Ctrl Pts',(3.00290060343258,-2.75401139798433E-15,
5.91969254945073));
#674=CARTESIAN_POINT('Ctrl Pts',(2.99185231744626,-3.052634609642E-15,5.90407907137788));
#675=CARTESIAN_POINT('Ctrl Pts',(2.96210543366715,-3.02349106883825E-15,
5.87569915109037));
#676=CARTESIAN_POINT('Ctrl Pts',(2.94479511793215,-3.02951046743241E-15,
5.86626691527565));
#677=CARTESIAN_POINT('Ctrl Pts',(2.91105061443734,-2.99645038887742E-15,
5.85333315384378));
#678=CARTESIAN_POINT('Ctrl Pts',(2.89144570829332,-2.97664158897718E-15,
5.84979013628293));
#679=CARTESIAN_POINT('Ctrl Pts',(2.85261345573457,-2.93859695393738E-15,
5.850309139976));
#680=CARTESIAN_POINT('Ctrl Pts',(2.83394585796854,-2.76773909512196E-15,
5.85428574081563));
#681=CARTESIAN_POINT('Ctrl Pts',(2.79776596636161,-2.73229302436201E-15,
5.86999117569364));
#682=CARTESIAN_POINT('Ctrl Pts',(2.78092159335978,-2.71521668662605E-15,
5.88169292081436));
#683=CARTESIAN_POINT('Ctrl Pts',(2.75601679911017,-2.69081702537709E-15,
5.90725846267574));
#684=CARTESIAN_POINT('Ctrl Pts',(2.74462084093683,-2.78050690183327E-15,
5.92225817725964));
#685=CARTESIAN_POINT('Ctrl Pts',(2.72883277897264,-2.76503906219392E-15,
5.96017907622879));
#686=CARTESIAN_POINT('Ctrl Pts',(2.72505924723221,-2.76142322101137E-15,
5.98011595225177));
#687=CARTESIAN_POINT('Ctrl Pts',(2.72510146323073,-2.76146458076135E-15,
6.01997465410618));
#688=CARTESIAN_POINT('Ctrl Pts',(2.72895198116056,-2.76494807733258E-15,
6.03999938109688));
#689=CARTESIAN_POINT('Ctrl Pts',(2.74496680084662,-2.78063807546654E-15,
6.07822385001956));
#690=CARTESIAN_POINT('Ctrl Pts',(2.75652557512558,-2.79173923302057E-15,
6.09329986991255));
#691=CARTESIAN_POINT('Ctrl Pts',(2.78148591089466,-2.81619330926477E-15,
6.11879093189503));
#692=CARTESIAN_POINT('Ctrl Pts',(2.79837173186641,-2.83221782696848E-15,
6.13045624269743));
#693=CARTESIAN_POINT('Ctrl Pts',(2.83787055218363,-2.87091551006573E-15,
6.14738988636448));
#694=CARTESIAN_POINT('Ctrl Pts',(2.85696275928561,-2.79114646034668E-15,
6.14986053058625));
#695=CARTESIAN_POINT('Ctrl Pts',(2.89197485909558,-2.82544842511765E-15,
6.15017034571822));
#696=CARTESIAN_POINT('Ctrl Pts',(2.9116221319708,-2.84565148070966E-15,
6.14653436961999));
#697=CARTESIAN_POINT('Ctrl Pts',(2.9454906291771,-2.87883303806617E-15,
6.13339714292077));
#698=CARTESIAN_POINT('Ctrl Pts',(2.96261369523574,-3.04745153703183E-15,
6.12390341798641));
#699=CARTESIAN_POINT('Ctrl Pts',(2.99192998615085,-3.07617321849748E-15,
6.09570919941372));
#700=CARTESIAN_POINT('Ctrl Pts',(3.00290131138247,-3.08768568249606E-15,
6.08008173251044));
#701=CARTESIAN_POINT('Ctrl Pts',(3.01915303054034,-3.10360777517393E-15,
6.04499465463375));
#702=CARTESIAN_POINT('Ctrl Pts',(3.0240704530587,-3.10960337241681E-15,
6.02529726900522));
#703=CARTESIAN_POINT('Ctrl Pts',(3.02489743313028,-3.11041357921491E-15,
6.00360264650116));
#704=CARTESIAN_POINT('Ctrl Pts',(3.02493198115554,-3.11057603286091E-15,
6.00180138487363));
#705=CARTESIAN_POINT('Ctrl Pts',(3.02493198115554,-3.11057603286091E-15,
6.));
#706=CARTESIAN_POINT('Origin',(2.87493198115554,-2.8166209987908E-15,6.));
#707=CARTESIAN_POINT('Origin',(2.35,0.,0.));
#708=UNCERTAINTY_MEASURE_WITH_UNIT(LENGTH_MEASURE(0.01),#712,
'DISTANCE_ACCURACY_VALUE',
'Maximum model space distance between geometric entities at asserted c
onnectivities');
#709=UNCERTAINTY_MEASURE_WITH_UNIT(LENGTH_MEASURE(0.01),#712,
'DISTANCE_ACCURACY_VALUE',
'Maximum model space distance between geometric entities at asserted c
onnectivities');
#710=(
GEOMETRIC_REPRESENTATION_CONTEXT(3)
GLOBAL_UNCERTAINTY_ASSIGNED_CONTEXT((#708))
GLOBAL_UNIT_ASSIGNED_CONTEXT((#712,#714,#715))
REPRESENTATION_CONTEXT('','3D')
);
#711=(
GEOMETRIC_REPRESENTATION_CONTEXT(3)
GLOBAL_UNCERTAINTY_ASSIGNED_CONTEXT((#709))
GLOBAL_UNIT_ASSIGNED_CONTEXT((#712,#714,#715))
REPRESENTATION_CONTEXT('','3D')
);
#712=(
LENGTH_UNIT()
NAMED_UNIT(*)
SI_UNIT(.MILLI.,.METRE.)
);
#713=(
LENGTH_UNIT()
NAMED_UNIT(*)
SI_UNIT($,.METRE.)
);
#714=(
NAMED_UNIT(*)
PLANE_ANGLE_UNIT()
SI_UNIT($,.RADIAN.)
);
#715=(
NAMED_UNIT(*)
SI_UNIT($,.STERADIAN.)
SOLID_ANGLE_UNIT()
);
#716=SHAPE_DEFINITION_REPRESENTATION(#717,#718);
#717=PRODUCT_DEFINITION_SHAPE('',$,#720);
#718=SHAPE_REPRESENTATION('',(#54),#710);
#719=PRODUCT_DEFINITION_CONTEXT('part definition',#724,'design');
#720=PRODUCT_DEFINITION('#2 part 7 spring','#2 part 7 spring v1',#721,#719);
#721=PRODUCT_DEFINITION_FORMATION('',$,#726);
#722=PRODUCT_RELATED_PRODUCT_CATEGORY('#2 part 7 spring v1',
'#2 part 7 spring v1',(#726));
#723=APPLICATION_PROTOCOL_DEFINITION('international standard',
'automotive_design',2009,#724);
#724=APPLICATION_CONTEXT(
'Core Data for Automotive Mechanical Design Process');
#725=PRODUCT_CONTEXT('part definition',#724,'mechanical');
#726=PRODUCT('#2 part 7 spring','#2 part 7 spring v1',$,(#725));
#727=PRESENTATION_STYLE_ASSIGNMENT((#729));
#728=PRESENTATION_STYLE_ASSIGNMENT((#730));
#729=SURFACE_STYLE_USAGE(.BOTH.,#731);
#730=SURFACE_STYLE_USAGE(.BOTH.,#732);
#731=SURFACE_SIDE_STYLE('',(#733));
#732=SURFACE_SIDE_STYLE('',(#734));
#733=SURFACE_STYLE_FILL_AREA(#735);
#734=SURFACE_STYLE_FILL_AREA(#736);
#735=FILL_AREA_STYLE('Steel - Satin',(#737));
#736=FILL_AREA_STYLE('Opaque(191,189,187)',(#738));
#737=FILL_AREA_STYLE_COLOUR('Steel - Satin',#739);
#738=FILL_AREA_STYLE_COLOUR('Opaque(191,189,187)',#740);
#739=COLOUR_RGB('Steel - Satin',0.627450980392157,0.627450980392157,0.627450980392157);
#740=COLOUR_RGB('Opaque(191,189,187)',0.749019607843137,0.741176470588235,
0.733333333333333);
ENDSEC;
END-ISO-10303-21;
