ISO-10303-21;
HEADER;
/* Generated by software containing ST-Developer
 * from STEP Tools, Inc. (www.steptools.com) 
 */

FILE_DESCRIPTION(
/* description */ (''),
/* implementation_level */ '2;1');

FILE_NAME(
/* name */ '#2 part 8 torsion spring .step',
/* time_stamp */ '2023-07-05T12:05:49+05:30',
/* author */ (''),
/* organization */ (''),
/* preprocessor_version */ 'ST-DEVELOPER v19.2',
/* originating_system */ 'Autodesk Translation Framework v12.6.0.85',
/* authorisation */ '');

FILE_SCHEMA (('AUTOMOTIVE_DESIGN { 1 0 10303 214 3 1 1 }'));
ENDSEC;

DATA;
#10=MECHANICAL_DESIGN_GEOMETRIC_PRESENTATION_REPRESENTATION('',(#13),#710);
#11=SHAPE_REPRESENTATION_RELATIONSHIP('SRR','None',#717,#12);
#12=ADVANCED_BREP_SHAPE_REPRESENTATION('',(#14),#709);
#13=STYLED_ITEM('',(#727),#14);
#14=MANIFOLD_SOLID_BREP('Body1',#190);
#15=B_SPLINE_CURVE_WITH_KNOTS('',3,(#678,#679,#680,#681,#682,#683,#684,
#685,#686,#687,#688,#689,#690,#691,#692,#693,#694,#695,#696,#697,#698,#699,
#700,#701,#702,#703,#704,#705,#706),.UNSPECIFIED.,.F.,.F.,(4,1,1,1,1,1,
1,1,1,1,1,1,1,1,1,1,1,1,1,1,1,1,1,1,1,1,4),(0.,0.483321946706122,0.966643893412244,
1.44996584011837,1.93328778682449,2.41660973353061,2.89993168023673,3.38325362694285,
3.86657557364898,4.3498975203551,4.83321946706122,5.31654141376734,5.79986336047346,
6.28318530717959,6.76650725388571,7.24982920059183,7.73315114729795,8.21647309400407,
8.6997950407102,9.18311698741632,9.66643893412244,10.1497608808286,10.6330828275347,
11.1164047742408,11.5997267209469,12.083048667653,12.5663706143592),
 .UNSPECIFIED.);
#16=B_SPLINE_SURFACE_WITH_KNOTS('',3,3,((#359,#360,#361,#362,#363,#364,
#365,#366,#367,#368,#369,#370,#371,#372,#373,#374,#375,#376,#377,#378,#379,
#380,#381,#382,#383,#384,#385,#386,#387),(#388,#389,#390,#391,#392,#393,
#394,#395,#396,#397,#398,#399,#400,#401,#402,#403,#404,#405,#406,#407,#408,
#409,#410,#411,#412,#413,#414,#415,#416),(#417,#418,#419,#420,#421,#422,
#423,#424,#425,#426,#427,#428,#429,#430,#431,#432,#433,#434,#435,#436,#437,
#438,#439,#440,#441,#442,#443,#444,#445),(#446,#447,#448,#449,#450,#451,
#452,#453,#454,#455,#456,#457,#458,#459,#460,#461,#462,#463,#464,#465,#466,
#467,#468,#469,#470,#471,#472,#473,#474),(#475,#476,#477,#478,#479,#480,
#481,#482,#483,#484,#485,#486,#487,#488,#489,#490,#491,#492,#493,#494,#495,
#496,#497,#498,#499,#500,#501,#502,#503),(#504,#505,#506,#507,#508,#509,
#510,#511,#512,#513,#514,#515,#516,#517,#518,#519,#520,#521,#522,#523,#524,
#525,#526,#527,#528,#529,#530,#531,#532),(#533,#534,#535,#536,#537,#538,
#539,#540,#541,#542,#543,#544,#545,#546,#547,#548,#549,#550,#551,#552,#553,
#554,#555,#556,#557,#558,#559,#560,#561),(#562,#563,#564,#565,#566,#567,
#568,#569,#570,#571,#572,#573,#574,#575,#576,#577,#578,#579,#580,#581,#582,
#583,#584,#585,#586,#587,#588,#589,#590),(#591,#592,#593,#594,#595,#596,
#597,#598,#599,#600,#601,#602,#603,#604,#605,#606,#607,#608,#609,#610,#611,
#612,#613,#614,#615,#616,#617,#618,#619),(#620,#621,#622,#623,#624,#625,
#626,#627,#628,#629,#630,#631,#632,#633,#634,#635,#636,#637,#638,#639,#640,
#641,#642,#643,#644,#645,#646,#647,#648),(#649,#650,#651,#652,#653,#654,
#655,#656,#657,#658,#659,#660,#661,#662,#663,#664,#665,#666,#667,#668,#669,
#670,#671,#672,#673,#674,#675,#676,#677)),.UNSPECIFIED.,.T.,.F.,.F.,(4,
1,1,1,1,1,1,1,4),(4,1,1,1,1,1,1,1,1,1,1,1,1,1,1,1,1,1,1,1,1,1,1,1,1,1,4),
(-3.14159265358979,-2.46839422782055,-2.24399475256414,-1.34639685153848,
-0.448798950512828,0.448798950512828,1.34639685153848,2.24399475256414,
3.14159265358979),(-1.02312366212503E-5,0.483321946706122,0.966643893412244,
1.44996584011837,1.93328778682449,2.41660973353061,2.89993168023673,3.38325362694285,
3.86657557364898,4.3498975203551,4.83321946706122,5.31654141376734,5.79986336047346,
6.28318530717959,6.76650725388571,7.24982920059183,7.73315114729795,8.21647309400407,
8.6997950407102,9.18311698741632,9.66643893412244,10.1497608808286,10.6330828275347,
11.1164047742408,11.5997267209469,12.083048667653,12.5663834662827),
 .UNSPECIFIED.);
#17=PLANE('',#229);
#18=PLANE('',#234);
#19=TOROIDAL_SURFACE('',#208,0.499999999999996,0.3);
#20=TOROIDAL_SURFACE('',#215,0.499999999999999,0.3);
#21=TOROIDAL_SURFACE('',#222,1.99999999999998,0.3);
#22=FACE_OUTER_BOUND('',#33,.T.);
#23=FACE_OUTER_BOUND('',#34,.T.);
#24=FACE_OUTER_BOUND('',#35,.T.);
#25=FACE_OUTER_BOUND('',#36,.T.);
#26=FACE_OUTER_BOUND('',#37,.T.);
#27=FACE_OUTER_BOUND('',#38,.T.);
#28=FACE_OUTER_BOUND('',#39,.T.);
#29=FACE_OUTER_BOUND('',#40,.T.);
#30=FACE_OUTER_BOUND('',#41,.T.);
#31=FACE_OUTER_BOUND('',#42,.T.);
#32=FACE_OUTER_BOUND('',#43,.T.);
#33=EDGE_LOOP('',(#120,#121,#122,#123,#124));
#34=EDGE_LOOP('',(#125,#126,#127,#128,#129,#130));
#35=EDGE_LOOP('',(#131,#132,#133,#134,#135,#136));
#36=EDGE_LOOP('',(#137,#138,#139,#140,#141,#142));
#37=EDGE_LOOP('',(#143,#144,#145,#146,#147,#148));
#38=EDGE_LOOP('',(#149,#150,#151,#152,#153,#154));
#39=EDGE_LOOP('',(#155,#156,#157,#158,#159,#160));
#40=EDGE_LOOP('',(#161));
#41=EDGE_LOOP('',(#162,#163,#164,#165,#166));
#42=EDGE_LOOP('',(#167));
#43=EDGE_LOOP('',(#168,#169,#170,#171,#172,#173));
#44=LINE('',#309,#49);
#45=LINE('',#321,#50);
#46=LINE('',#333,#51);
#47=LINE('',#345,#52);
#48=LINE('',#354,#53);
#49=VECTOR('',#241,0.3);
#50=VECTOR('',#256,0.3);
#51=VECTOR('',#271,0.3);
#52=VECTOR('',#286,0.3);
#53=VECTOR('',#297,0.3);
#54=CIRCLE('',#205,0.3);
#55=CIRCLE('',#206,0.3);
#56=CIRCLE('',#207,0.3);
#57=CIRCLE('',#209,0.199999999999996);
#58=CIRCLE('',#210,0.3);
#59=CIRCLE('',#211,0.3);
#60=CIRCLE('',#213,0.3);
#61=CIRCLE('',#214,0.3);
#62=CIRCLE('',#216,0.199999999999999);
#63=CIRCLE('',#217,0.3);
#64=CIRCLE('',#218,0.3);
#65=CIRCLE('',#220,0.3);
#66=CIRCLE('',#221,0.3);
#67=CIRCLE('',#223,1.69999999999998);
#68=CIRCLE('',#224,0.3);
#69=CIRCLE('',#225,0.3);
#70=CIRCLE('',#227,0.3);
#71=CIRCLE('',#228,0.3);
#72=CIRCLE('',#231,0.3);
#73=CIRCLE('',#232,0.3);
#74=CIRCLE('',#233,0.3);
#75=VERTEX_POINT('',#306);
#76=VERTEX_POINT('',#308);
#77=VERTEX_POINT('',#310);
#78=VERTEX_POINT('',#314);
#79=VERTEX_POINT('',#316);
#80=VERTEX_POINT('',#320);
#81=VERTEX_POINT('',#322);
#82=VERTEX_POINT('',#326);
#83=VERTEX_POINT('',#328);
#84=VERTEX_POINT('',#332);
#85=VERTEX_POINT('',#334);
#86=VERTEX_POINT('',#338);
#87=VERTEX_POINT('',#340);
#88=VERTEX_POINT('',#344);
#89=VERTEX_POINT('',#346);
#90=VERTEX_POINT('',#351);
#91=VERTEX_POINT('',#353);
#92=VERTEX_POINT('',#355);
#93=EDGE_CURVE('',#75,#75,#54,.T.);
#94=EDGE_CURVE('',#75,#76,#44,.T.);
#95=EDGE_CURVE('',#76,#77,#55,.T.);
#96=EDGE_CURVE('',#77,#76,#56,.T.);
#97=EDGE_CURVE('',#77,#78,#57,.T.);
#98=EDGE_CURVE('',#78,#79,#58,.T.);
#99=EDGE_CURVE('',#79,#78,#59,.T.);
#100=EDGE_CURVE('',#79,#80,#45,.T.);
#101=EDGE_CURVE('',#80,#81,#60,.T.);
#102=EDGE_CURVE('',#81,#80,#61,.T.);
#103=EDGE_CURVE('',#81,#82,#62,.T.);
#104=EDGE_CURVE('',#82,#83,#63,.T.);
#105=EDGE_CURVE('',#83,#82,#64,.T.);
#106=EDGE_CURVE('',#83,#84,#46,.T.);
#107=EDGE_CURVE('',#84,#85,#65,.T.);
#108=EDGE_CURVE('',#85,#84,#66,.T.);
#109=EDGE_CURVE('',#85,#86,#67,.T.);
#110=EDGE_CURVE('',#86,#87,#68,.T.);
#111=EDGE_CURVE('',#87,#86,#69,.T.);
#112=EDGE_CURVE('',#87,#88,#47,.T.);
#113=EDGE_CURVE('',#88,#89,#70,.T.);
#114=EDGE_CURVE('',#89,#88,#71,.T.);
#115=EDGE_CURVE('',#90,#90,#72,.T.);
#116=EDGE_CURVE('',#90,#91,#48,.T.);
#117=EDGE_CURVE('',#92,#91,#73,.T.);
#118=EDGE_CURVE('',#91,#92,#74,.T.);
#119=EDGE_CURVE('',#91,#88,#15,.T.);
#120=ORIENTED_EDGE('',*,*,#93,.F.);
#121=ORIENTED_EDGE('',*,*,#94,.T.);
#122=ORIENTED_EDGE('',*,*,#95,.T.);
#123=ORIENTED_EDGE('',*,*,#96,.T.);
#124=ORIENTED_EDGE('',*,*,#94,.F.);
#125=ORIENTED_EDGE('',*,*,#96,.F.);
#126=ORIENTED_EDGE('',*,*,#97,.T.);
#127=ORIENTED_EDGE('',*,*,#98,.T.);
#128=ORIENTED_EDGE('',*,*,#99,.T.);
#129=ORIENTED_EDGE('',*,*,#97,.F.);
#130=ORIENTED_EDGE('',*,*,#95,.F.);
#131=ORIENTED_EDGE('',*,*,#99,.F.);
#132=ORIENTED_EDGE('',*,*,#100,.T.);
#133=ORIENTED_EDGE('',*,*,#101,.T.);
#134=ORIENTED_EDGE('',*,*,#102,.T.);
#135=ORIENTED_EDGE('',*,*,#100,.F.);
#136=ORIENTED_EDGE('',*,*,#98,.F.);
#137=ORIENTED_EDGE('',*,*,#102,.F.);
#138=ORIENTED_EDGE('',*,*,#103,.T.);
#139=ORIENTED_EDGE('',*,*,#104,.T.);
#140=ORIENTED_EDGE('',*,*,#105,.T.);
#141=ORIENTED_EDGE('',*,*,#103,.F.);
#142=ORIENTED_EDGE('',*,*,#101,.F.);
#143=ORIENTED_EDGE('',*,*,#105,.F.);
#144=ORIENTED_EDGE('',*,*,#106,.T.);
#145=ORIENTED_EDGE('',*,*,#107,.T.);
#146=ORIENTED_EDGE('',*,*,#108,.T.);
#147=ORIENTED_EDGE('',*,*,#106,.F.);
#148=ORIENTED_EDGE('',*,*,#104,.F.);
#149=ORIENTED_EDGE('',*,*,#108,.F.);
#150=ORIENTED_EDGE('',*,*,#109,.T.);
#151=ORIENTED_EDGE('',*,*,#110,.T.);
#152=ORIENTED_EDGE('',*,*,#111,.T.);
#153=ORIENTED_EDGE('',*,*,#109,.F.);
#154=ORIENTED_EDGE('',*,*,#107,.F.);
#155=ORIENTED_EDGE('',*,*,#111,.F.);
#156=ORIENTED_EDGE('',*,*,#112,.T.);
#157=ORIENTED_EDGE('',*,*,#113,.T.);
#158=ORIENTED_EDGE('',*,*,#114,.T.);
#159=ORIENTED_EDGE('',*,*,#112,.F.);
#160=ORIENTED_EDGE('',*,*,#110,.F.);
#161=ORIENTED_EDGE('',*,*,#93,.T.);
#162=ORIENTED_EDGE('',*,*,#115,.F.);
#163=ORIENTED_EDGE('',*,*,#116,.T.);
#164=ORIENTED_EDGE('',*,*,#117,.F.);
#165=ORIENTED_EDGE('',*,*,#118,.F.);
#166=ORIENTED_EDGE('',*,*,#116,.F.);
#167=ORIENTED_EDGE('',*,*,#115,.T.);
#168=ORIENTED_EDGE('',*,*,#118,.T.);
#169=ORIENTED_EDGE('',*,*,#117,.T.);
#170=ORIENTED_EDGE('',*,*,#119,.T.);
#171=ORIENTED_EDGE('',*,*,#114,.F.);
#172=ORIENTED_EDGE('',*,*,#113,.F.);
#173=ORIENTED_EDGE('',*,*,#119,.F.);
#174=CYLINDRICAL_SURFACE('',#204,0.3);
#175=CYLINDRICAL_SURFACE('',#212,0.3);
#176=CYLINDRICAL_SURFACE('',#219,0.3);
#177=CYLINDRICAL_SURFACE('',#226,0.3);
#178=CYLINDRICAL_SURFACE('',#230,0.3);
#179=ADVANCED_FACE('',(#22),#174,.T.);
#180=ADVANCED_FACE('',(#23),#19,.T.);
#181=ADVANCED_FACE('',(#24),#175,.T.);
#182=ADVANCED_FACE('',(#25),#20,.T.);
#183=ADVANCED_FACE('',(#26),#176,.T.);
#184=ADVANCED_FACE('',(#27),#21,.T.);
#185=ADVANCED_FACE('',(#28),#177,.T.);
#186=ADVANCED_FACE('',(#29),#17,.T.);
#187=ADVANCED_FACE('',(#30),#178,.T.);
#188=ADVANCED_FACE('',(#31),#18,.F.);
#189=ADVANCED_FACE('',(#32),#16,.T.);
#190=CLOSED_SHELL('',(#179,#180,#181,#182,#183,#184,#185,#186,#187,#188,
#189));
#191=DERIVED_UNIT_ELEMENT(#193,1.);
#192=DERIVED_UNIT_ELEMENT(#712,-3.);
#193=(
MASS_UNIT()
NAMED_UNIT(*)
SI_UNIT(.KILO.,.GRAM.)
);
#194=DERIVED_UNIT((#191,#192));
#195=MEASURE_REPRESENTATION_ITEM('density measure',
POSITIVE_RATIO_MEASURE(7850.),#194);
#196=PROPERTY_DEFINITION_REPRESENTATION(#201,#198);
#197=PROPERTY_DEFINITION_REPRESENTATION(#202,#199);
#198=REPRESENTATION('material name',(#200),#709);
#199=REPRESENTATION('density',(#195),#709);
#200=DESCRIPTIVE_REPRESENTATION_ITEM('Steel','Steel');
#201=PROPERTY_DEFINITION('material property','material name',#719);
#202=PROPERTY_DEFINITION('material property','density of part',#719);
#203=AXIS2_PLACEMENT_3D('',#304,#235,#236);
#204=AXIS2_PLACEMENT_3D('',#305,#237,#238);
#205=AXIS2_PLACEMENT_3D('',#307,#239,#240);
#206=AXIS2_PLACEMENT_3D('',#311,#242,#243);
#207=AXIS2_PLACEMENT_3D('',#312,#244,#245);
#208=AXIS2_PLACEMENT_3D('',#313,#246,#247);
#209=AXIS2_PLACEMENT_3D('',#315,#248,#249);
#210=AXIS2_PLACEMENT_3D('',#317,#250,#251);
#211=AXIS2_PLACEMENT_3D('',#318,#252,#253);
#212=AXIS2_PLACEMENT_3D('',#319,#254,#255);
#213=AXIS2_PLACEMENT_3D('',#323,#257,#258);
#214=AXIS2_PLACEMENT_3D('',#324,#259,#260);
#215=AXIS2_PLACEMENT_3D('',#325,#261,#262);
#216=AXIS2_PLACEMENT_3D('',#327,#263,#264);
#217=AXIS2_PLACEMENT_3D('',#329,#265,#266);
#218=AXIS2_PLACEMENT_3D('',#330,#267,#268);
#219=AXIS2_PLACEMENT_3D('',#331,#269,#270);
#220=AXIS2_PLACEMENT_3D('',#335,#272,#273);
#221=AXIS2_PLACEMENT_3D('',#336,#274,#275);
#222=AXIS2_PLACEMENT_3D('',#337,#276,#277);
#223=AXIS2_PLACEMENT_3D('',#339,#278,#279);
#224=AXIS2_PLACEMENT_3D('',#341,#280,#281);
#225=AXIS2_PLACEMENT_3D('',#342,#282,#283);
#226=AXIS2_PLACEMENT_3D('',#343,#284,#285);
#227=AXIS2_PLACEMENT_3D('',#347,#287,#288);
#228=AXIS2_PLACEMENT_3D('',#348,#289,#290);
#229=AXIS2_PLACEMENT_3D('',#349,#291,#292);
#230=AXIS2_PLACEMENT_3D('',#350,#293,#294);
#231=AXIS2_PLACEMENT_3D('',#352,#295,#296);
#232=AXIS2_PLACEMENT_3D('',#356,#298,#299);
#233=AXIS2_PLACEMENT_3D('',#357,#300,#301);
#234=AXIS2_PLACEMENT_3D('',#358,#302,#303);
#235=DIRECTION('axis',(0.,0.,1.));
#236=DIRECTION('refdir',(1.,0.,0.));
#237=DIRECTION('center_axis',(-1.,1.03223781375862E-15,-4.14990744113078E-16));
#238=DIRECTION('ref_axis',(-8.84404455237404E-16,-0.511271047117593,0.859419522921885));
#239=DIRECTION('center_axis',(-1.,-1.11663376693103E-14,7.10664506277879E-15));
#240=DIRECTION('ref_axis',(1.18166146620854E-14,-0.511271047117593,0.859419522921885));
#241=DIRECTION('',(1.,-1.03223781375862E-15,4.14990744113078E-16));
#242=DIRECTION('center_axis',(-1.,-1.11663376693103E-14,7.10664506277879E-15));
#243=DIRECTION('ref_axis',(1.18166146620854E-14,-0.511271047117593,0.859419522921885));
#244=DIRECTION('center_axis',(-1.,-1.11663376693103E-14,7.10664506277879E-15));
#245=DIRECTION('ref_axis',(1.18166146620854E-14,-0.511271047117593,0.859419522921885));
#246=DIRECTION('center_axis',(7.7715611723761E-16,1.,-1.440593940585E-16));
#247=DIRECTION('ref_axis',(0.,0.,1.));
#248=DIRECTION('center_axis',(-7.7715611723761E-16,-1.,1.440593940585E-16));
#249=DIRECTION('ref_axis',(1.11956639338107E-31,1.440593940585E-16,1.));
#250=DIRECTION('center_axis',(-7.16787740273616E-15,-1.14491749414469E-14,
-1.));
#251=DIRECTION('ref_axis',(-0.859419522921885,-0.511271047117593,1.20138454387681E-14));
#252=DIRECTION('center_axis',(-7.16787740273616E-15,-1.14491749414469E-14,
-1.));
#253=DIRECTION('ref_axis',(-0.859419522921885,-0.511271047117593,1.20138454387681E-14));
#254=DIRECTION('center_axis',(1.42189240918397E-16,1.44059394058499E-16,
-1.));
#255=DIRECTION('ref_axis',(-0.859419522921885,-0.511271047117593,-1.95853606842128E-16));
#256=DIRECTION('',(-1.42189240918397E-16,-1.44059394058499E-16,1.));
#257=DIRECTION('center_axis',(-7.16787740273616E-15,-1.14491749414469E-14,
-1.));
#258=DIRECTION('ref_axis',(-0.859419522921885,-0.511271047117593,1.20138454387681E-14));
#259=DIRECTION('center_axis',(-7.16787740273616E-15,-1.14491749414469E-14,
-1.));
#260=DIRECTION('ref_axis',(-0.859419522921885,-0.511271047117593,1.20138454387681E-14));
#261=DIRECTION('center_axis',(-0.867658584776979,-0.497160517602525,2.51187959321442E-15));
#262=DIRECTION('ref_axis',(2.77555756156289E-15,0.,1.));
#263=DIRECTION('center_axis',(0.867658584776979,0.497160517602525,-2.51187959321442E-15));
#264=DIRECTION('ref_axis',(2.86548451490781E-15,5.15273305142964E-17,1.));
#265=DIRECTION('center_axis',(-0.496224719672383,0.86602540378419,0.0613272173386047));
#266=DIRECTION('ref_axis',(-0.868040932393216,-0.496224719672383,-0.0163085031803008));
#267=DIRECTION('center_axis',(-0.496224719672383,0.86602540378419,0.0613272173386047));
#268=DIRECTION('ref_axis',(-0.868040932393216,-0.496224719672383,-0.0163085031803008));
#269=DIRECTION('center_axis',(-0.496224719672378,0.866025403784193,0.0613272173386045));
#270=DIRECTION('ref_axis',(-0.868040932393219,-0.496224719672378,-0.0163085031803005));
#271=DIRECTION('',(0.496224719672378,-0.866025403784193,-0.0613272173386045));
#272=DIRECTION('center_axis',(-0.496224719672383,0.86602540378419,0.0613272173386047));
#273=DIRECTION('ref_axis',(-0.868040932393216,-0.496224719672383,-0.0163085031803008));
#274=DIRECTION('center_axis',(-0.496224719672383,0.86602540378419,0.0613272173386047));
#275=DIRECTION('ref_axis',(-0.868040932393216,-0.496224719672383,-0.0163085031803008));
#276=DIRECTION('center_axis',(0.122654434677103,-2.05800116313469E-16,0.99244943934391));
#277=DIRECTION('ref_axis',(0.99244943934391,0.,-0.122654434677103));
#278=DIRECTION('center_axis',(-0.122654434677103,2.05800116313469E-16,-0.99244943934391));
#279=DIRECTION('ref_axis',(0.99244943934391,-4.2000740367969E-33,-0.122654434677103));
#280=DIRECTION('center_axis',(4.89858719658941E-16,1.,0.));
#281=DIRECTION('ref_axis',(-1.,4.89858719658941E-16,0.));
#282=DIRECTION('center_axis',(4.89858719658941E-16,1.,0.));
#283=DIRECTION('ref_axis',(-1.,4.89858719658941E-16,0.));
#284=DIRECTION('center_axis',(5.04646829375071E-16,1.,0.));
#285=DIRECTION('ref_axis',(-1.,5.04646829375071E-16,0.));
#286=DIRECTION('',(-5.04646829375071E-16,-1.,0.));
#287=DIRECTION('center_axis',(4.89858719658941E-16,1.,0.));
#288=DIRECTION('ref_axis',(-1.,4.89858719658941E-16,0.));
#289=DIRECTION('center_axis',(4.89858719658941E-16,1.,0.));
#290=DIRECTION('ref_axis',(-1.,4.89858719658941E-16,0.));
#291=DIRECTION('center_axis',(-1.,-1.10766270181554E-14,7.50097094933948E-15));
#292=DIRECTION('ref_axis',(1.21096395688356E-14,-0.511271047117593,0.859419522921885));
#293=DIRECTION('center_axis',(-4.93432455388958E-16,-1.,0.));
#294=DIRECTION('ref_axis',(-1.,4.93432455388958E-16,0.));
#295=DIRECTION('center_axis',(0.,-1.,0.));
#296=DIRECTION('ref_axis',(-1.,0.,0.));
#297=DIRECTION('',(4.93432455388958E-16,1.,0.));
#298=DIRECTION('center_axis',(0.,1.,0.));
#299=DIRECTION('ref_axis',(-1.,0.,0.));
#300=DIRECTION('center_axis',(0.,1.,0.));
#301=DIRECTION('ref_axis',(-1.,0.,0.));
#302=DIRECTION('center_axis',(0.,1.,0.));
#303=DIRECTION('ref_axis',(-1.,0.,0.));
#304=CARTESIAN_POINT('',(0.,0.,0.));
#305=CARTESIAN_POINT('Origin',(1.66283595311393,17.5444863728663,-4.99148746104874));
#306=CARTESIAN_POINT('',(-0.837164046886074,17.6978676870015,-5.24931331792531));
#307=CARTESIAN_POINT('Origin',(-0.837164046886078,17.5444863728663,-4.99148746104875));
#308=CARTESIAN_POINT('',(1.66283595311394,17.6978676870016,-5.24931331792531));
#309=CARTESIAN_POINT('',(1.66283595311393,17.6978676870016,-5.24931331792531));
#310=CARTESIAN_POINT('',(1.66283595311393,17.5444863728663,-4.69148746104874));
#311=CARTESIAN_POINT('Origin',(1.66283595311393,17.5444863728663,-4.99148746104874));
#312=CARTESIAN_POINT('Origin',(1.66283595311393,17.5444863728663,-4.99148746104874));
#313=CARTESIAN_POINT('Origin',(1.66283595311393,17.5444863728663,-4.49148746104875));
#314=CARTESIAN_POINT('',(1.86283595311393,17.5444863728663,-4.49148746104875));
#315=CARTESIAN_POINT('Origin',(1.66283595311393,17.5444863728663,-4.49148746104875));
#316=CARTESIAN_POINT('',(2.42066180999049,17.6978676870015,-4.49148746104875));
#317=CARTESIAN_POINT('Origin',(2.16283595311393,17.5444863728663,-4.49148746104875));
#318=CARTESIAN_POINT('Origin',(2.16283595311393,17.5444863728663,-4.49148746104875));
#319=CARTESIAN_POINT('Origin',(2.16283595311392,17.5444863728663,0.976848186290544));
#320=CARTESIAN_POINT('',(2.42066180999049,17.6978676870016,0.976848186290549));
#321=CARTESIAN_POINT('',(2.42066180999049,17.6978676870016,0.976848186290544));
#322=CARTESIAN_POINT('',(2.31198410839468,17.2841887974332,0.976848186290546));
#323=CARTESIAN_POINT('Origin',(2.16283595311392,17.5444863728663,0.976848186290544));
#324=CARTESIAN_POINT('Origin',(2.16283595311392,17.5444863728663,0.976848186290544));
#325=CARTESIAN_POINT('Origin',(2.41141621191519,17.1106570804778,0.976848186290549));
#326=CARTESIAN_POINT('',(2.41751410613824,17.1000148631569,1.1764717292321));
#327=CARTESIAN_POINT('Origin',(2.41141621191519,17.1106570804778,0.976848186290549));
#328=CARTESIAN_POINT('',(2.68707322719075,17.2329189530773,1.48079959459853));
#329=CARTESIAN_POINT('Origin',(2.42666094747278,17.0840515371756,1.47590704364444));
#330=CARTESIAN_POINT('Origin',(2.42666094747278,17.0840515371756,1.47590704364444));
#331=CARTESIAN_POINT('Origin',(3.5840739741986,15.0641016151381,1.33286515671989));
#332=CARTESIAN_POINT('',(3.84448625391657,15.2129690310398,1.33775770767398));
#333=CARTESIAN_POINT('',(3.84448625391657,15.2129690310398,1.33775770767398));
#334=CARTESIAN_POINT('',(3.32622804626564,14.9141016151379,1.36473171361503));
#335=CARTESIAN_POINT('Origin',(3.5840739741986,15.0641016151381,1.33286515671989));
#336=CARTESIAN_POINT('Origin',(3.5840739741986,15.0641016151381,1.33286515671989));
#337=CARTESIAN_POINT('Origin',(1.86510112131221,14.0641016151372,1.5453088693542));
#338=CARTESIAN_POINT('',(3.55226516819684,14.0641016151372,1.33679633040313));
#339=CARTESIAN_POINT('Origin',(1.86510112131221,14.0641016151372,1.5453088693542));
#340=CARTESIAN_POINT('',(4.15000000000001,14.0641016151372,1.3));
#341=CARTESIAN_POINT('Origin',(3.85000000000001,14.0641016151372,1.3));
#342=CARTESIAN_POINT('Origin',(3.85000000000001,14.0641016151372,1.3));
#343=CARTESIAN_POINT('Origin',(3.85,-1.88595607068692E-15,1.3));
#344=CARTESIAN_POINT('',(4.15,-2.03291368658461E-15,1.3));
#345=CARTESIAN_POINT('',(4.15,-2.03735011949944E-15,1.3));
#346=CARTESIAN_POINT('',(3.55,-1.73899845478924E-15,1.29999999939176));
#347=CARTESIAN_POINT('Origin',(3.85,-1.88595607068692E-15,1.3));
#348=CARTESIAN_POINT('Origin',(3.85,-1.88595607068692E-15,1.3));
#349=CARTESIAN_POINT('Origin',(-0.837164046886077,17.5444863728663,-4.99148746104875));
#350=CARTESIAN_POINT('Origin',(3.85,0.,0.));
#351=CARTESIAN_POINT('',(4.14999999999999,-18.,-3.67394039744206E-17));
#352=CARTESIAN_POINT('Origin',(3.84999999999999,-18.,0.));
#353=CARTESIAN_POINT('',(4.15,0.,-3.67394039744206E-17));
#354=CARTESIAN_POINT('',(4.15,-1.48029736616687E-16,3.67394039744206E-17));
#355=CARTESIAN_POINT('',(3.55,0.,-6.07729884556563E-10));
#356=CARTESIAN_POINT('Origin',(3.85,0.,0.));
#357=CARTESIAN_POINT('Origin',(3.85,0.,0.));
#358=CARTESIAN_POINT('Origin',(3.84999999999999,-18.,0.));
#359=CARTESIAN_POINT('Ctrl Pts',(4.1499999997788,-4.24596324373521E-5,-1.05842872347636E-6));
#360=CARTESIAN_POINT('Ctrl Pts',(4.1500069662315,0.668567067637839,0.0166659610475176));
#361=CARTESIAN_POINT('Ctrl Pts',(3.82092293584009,2.00509098057533,0.0499996471904254));
#362=CARTESIAN_POINT('Ctrl Pts',(2.45122754868849,3.55148762736746,0.1));
#363=CARTESIAN_POINT('Ctrl Pts',(0.520166215925999,4.28341126639735,0.15));
#364=CARTESIAN_POINT('Ctrl Pts',(-1.53025811313998,4.03488435543525,0.2));
#365=CARTESIAN_POINT('Ctrl Pts',(-3.22973721748118,2.86130288084609,0.25));
#366=CARTESIAN_POINT('Ctrl Pts',(-4.18990305667217,1.03272139992384,0.299999999999999));
#367=CARTESIAN_POINT('Ctrl Pts',(-4.18951856643853,-1.03262719030387,0.35));
#368=CARTESIAN_POINT('Ctrl Pts',(-3.230041904214,-2.8615636452037,0.399999999999999));
#369=CARTESIAN_POINT('Ctrl Pts',(-1.53008567676018,-4.03450821528736,0.45));
#370=CARTESIAN_POINT('Ctrl Pts',(0.520149746931195,-4.28382409307043,0.5));
#371=CARTESIAN_POINT('Ctrl Pts',(2.4511465432048,-3.55109849575313,0.55));
#372=CARTESIAN_POINT('Ctrl Pts',(3.8209973325035,-2.00541415079075,0.6));
#373=CARTESIAN_POINT('Ctrl Pts',(4.31490654674561,-3.19271498886104E-15,
0.65));
#374=CARTESIAN_POINT('Ctrl Pts',(3.82099733250351,2.00541415079075,0.699999999999999));
#375=CARTESIAN_POINT('Ctrl Pts',(2.4511465432048,3.55109849575313,0.750000000000001));
#376=CARTESIAN_POINT('Ctrl Pts',(0.5201497469312,4.28382409307043,0.799999999999999));
#377=CARTESIAN_POINT('Ctrl Pts',(-1.53008567676018,4.03450821528736,0.850000000000001));
#378=CARTESIAN_POINT('Ctrl Pts',(-3.23004190421399,2.8615636452037,0.899999999999999));
#379=CARTESIAN_POINT('Ctrl Pts',(-4.18951856643854,1.03262719030388,0.950000000000002));
#380=CARTESIAN_POINT('Ctrl Pts',(-4.18990305667216,-1.03272139992384,0.999999999999997));
#381=CARTESIAN_POINT('Ctrl Pts',(-3.22973721748119,-2.86130288084609,1.05));
#382=CARTESIAN_POINT('Ctrl Pts',(-1.53025811313998,-4.03488435543524,1.1));
#383=CARTESIAN_POINT('Ctrl Pts',(0.520166215925992,-4.28341126639735,1.15));
#384=CARTESIAN_POINT('Ctrl Pts',(2.45122754868849,-3.55148762736746,1.2));
#385=CARTESIAN_POINT('Ctrl Pts',(3.82092541142767,-2.00508818561788,1.25000044318022));
#386=CARTESIAN_POINT('Ctrl Pts',(4.15000875058044,-0.668559820760801,1.28333421969376));
#387=CARTESIAN_POINT('Ctrl Pts',(4.14999999965097,5.33354833231175E-5,1.30000132954065));
#388=CARTESIAN_POINT('Ctrl Pts',(4.1499999997788,-4.24661223519272E-5,-0.0673209010056477));
#389=CARTESIAN_POINT('Ctrl Pts',(4.15000696622934,0.668669261404656,-0.0506538815294066));
#390=CARTESIAN_POINT('Ctrl Pts',(3.82092303809947,2.00502670471816,-0.0173201953864987));
#391=CARTESIAN_POINT('Ctrl Pts',(2.45123670283122,3.55153840733586,0.0326801574230757));
#392=CARTESIAN_POINT('Ctrl Pts',(0.520167099356523,4.28338809425285,0.0826801574230758));
#393=CARTESIAN_POINT('Ctrl Pts',(-1.53026767373142,4.03491481202157,0.132680157423076));
#394=CARTESIAN_POINT('Ctrl Pts',(-3.22972993325998,2.8612930828314,0.182680157423076));
#395=CARTESIAN_POINT('Ctrl Pts',(-4.18992639830613,1.03272930557223,0.232680157423076));
#396=CARTESIAN_POINT('Ctrl Pts',(-4.18950966169052,-1.03262605777884,0.282680157423076));
#397=CARTESIAN_POINT('Ctrl Pts',(-3.23005974348832,-2.86157877573192,0.332680157423076));
#398=CARTESIAN_POINT('Ctrl Pts',(-1.53008243806913,-4.03450005283933,0.382680157423076));
#399=CARTESIAN_POINT('Ctrl Pts',(0.52015258333586,-4.28384748293732,0.432680157423076));
#400=CARTESIAN_POINT('Ctrl Pts',(2.45114142793632,-3.55109113809831,0.482680157423076));
#401=CARTESIAN_POINT('Ctrl Pts',(3.82101832914784,-2.00542514285845,0.532680157423075));
#402=CARTESIAN_POINT('Ctrl Pts',(4.3148975280447,-6.13983651704047E-16,
0.582680157423077));
#403=CARTESIAN_POINT('Ctrl Pts',(3.82101832914785,2.00542514285844,0.632680157423075));
#404=CARTESIAN_POINT('Ctrl Pts',(2.45114142793633,3.55109113809831,0.682680157423077));
#405=CARTESIAN_POINT('Ctrl Pts',(0.520152583335866,4.28384748293731,0.732680157423074));
#406=CARTESIAN_POINT('Ctrl Pts',(-1.53008243806913,4.03450005283934,0.782680157423078));
#407=CARTESIAN_POINT('Ctrl Pts',(-3.23005974348832,2.86157877573192,0.832680157423075));
#408=CARTESIAN_POINT('Ctrl Pts',(-4.18950966169052,1.03262605777885,0.882680157423076));
#409=CARTESIAN_POINT('Ctrl Pts',(-4.18992639830614,-1.03272930557223,0.932680157423076));
#410=CARTESIAN_POINT('Ctrl Pts',(-3.22972993325998,-2.86129308283139,0.982680157423075));
#411=CARTESIAN_POINT('Ctrl Pts',(-1.53026767373142,-4.03491481202157,1.03268015742308));
#412=CARTESIAN_POINT('Ctrl Pts',(0.520167099356514,-4.28338809425285,1.08268015742308));
#413=CARTESIAN_POINT('Ctrl Pts',(2.45123670283122,-3.55153840733586,1.13268015742308));
#414=CARTESIAN_POINT('Ctrl Pts',(3.82092551367068,-2.00502390955276,1.1826806006033));
#415=CARTESIAN_POINT('Ctrl Pts',(4.15000875057772,-0.668662015430248,1.21601437711684));
#416=CARTESIAN_POINT('Ctrl Pts',(4.14999999965097,5.33436356813757E-5,1.23268148696373));
#417=CARTESIAN_POINT('Ctrl Pts',(4.11843777122008,-4.21339349171839E-5,
-0.156462745173151));
#418=CARTESIAN_POINT('Ctrl Pts',(4.11844468469136,0.66343865048515,-0.139795725696909));
#419=CARTESIAN_POINT('Ctrl Pts',(3.7918634118416,1.9898690514837,-0.106462039554001));
#420=CARTESIAN_POINT('Ctrl Pts',(2.43258117300722,3.52445557103622,-0.056461686744427));
#421=CARTESIAN_POINT('Ctrl Pts',(0.516209788529278,4.25084431246197,-0.00646168674442724));
#422=CARTESIAN_POINT('Ctrl Pts',(-1.51861586422847,4.00418459067917,0.0435383132555728));
#423=CARTESIAN_POINT('Ctrl Pts',(-3.20517703200657,2.83954584536273,0.0935383132555729));
#424=CARTESIAN_POINT('Ctrl Pts',(-4.15802736379073,1.02486380309131,0.143538313255573));
#425=CARTESIAN_POINT('Ctrl Pts',(-4.15765959524142,-1.02477417719949,0.193538313255573));
#426=CARTESIAN_POINT('Ctrl Pts',(-3.20546865171148,-2.83979396015357,0.243538313255573));
#427=CARTESIAN_POINT('Ctrl Pts',(-1.51845021581289,-4.00382783542437,0.293538313255573));
#428=CARTESIAN_POINT('Ctrl Pts',(0.516192609153493,-4.25123407660726,0.343538313255573));
#429=CARTESIAN_POINT('Ctrl Pts',(2.43250688915811,-3.52409427468337,0.393538313255573));
#430=CARTESIAN_POINT('Ctrl Pts',(3.79192830245611,-1.99015755842811,0.443538313255572));
#431=CARTESIAN_POINT('Ctrl Pts',(4.28209400404294,-2.82432479783862E-15,
0.493538313255573));
#432=CARTESIAN_POINT('Ctrl Pts',(3.79192830245611,1.9901575584281,0.543538313255573));
#433=CARTESIAN_POINT('Ctrl Pts',(2.43250688915812,3.52409427468337,0.593538313255573));
#434=CARTESIAN_POINT('Ctrl Pts',(0.516192609153493,4.25123407660725,0.643538313255572));
#435=CARTESIAN_POINT('Ctrl Pts',(-1.51845021581289,4.00382783542437,0.693538313255573));
#436=CARTESIAN_POINT('Ctrl Pts',(-3.20546865171148,2.83979396015357,0.743538313255573));
#437=CARTESIAN_POINT('Ctrl Pts',(-4.15765959524142,1.0247741771995,0.793538313255572));
#438=CARTESIAN_POINT('Ctrl Pts',(-4.15802736379073,-1.02486380309131,0.843538313255573));
#439=CARTESIAN_POINT('Ctrl Pts',(-3.20517703200657,-2.83954584536272,0.893538313255571));
#440=CARTESIAN_POINT('Ctrl Pts',(-1.51861586422847,-4.00418459067918,0.943538313255576));
#441=CARTESIAN_POINT('Ctrl Pts',(0.516209788529274,-4.25084431246196,0.99353831325557));
#442=CARTESIAN_POINT('Ctrl Pts',(2.43258117300722,-3.52445557103623,1.04353831325558));
#443=CARTESIAN_POINT('Ctrl Pts',(3.79186586860845,-1.98986627787187,1.09353875643579));
#444=CARTESIAN_POINT('Ctrl Pts',(4.11844645546992,-0.663431458336978,1.12687253294934));
#445=CARTESIAN_POINT('Ctrl Pts',(4.11843777109322,5.29263597599855E-5,1.14353964279622));
#446=CARTESIAN_POINT('Ctrl Pts',(3.99111988709564,-4.08359967689699E-5,
-0.285114969448506));
#447=CARTESIAN_POINT('Ctrl Pts',(3.99112658684149,0.643001389686391,-0.268447949972264));
#448=CARTESIAN_POINT('Ctrl Pts',(3.67464135942927,1.92830848574123,-0.235114263829356));
#449=CARTESIAN_POINT('Ctrl Pts',(2.35738654589006,3.41553608119616,-0.185113911019782));
#450=CARTESIAN_POINT('Ctrl Pts',(0.500252242143405,4.11941678860555,-0.135113911019782));
#451=CARTESIAN_POINT('Ctrl Pts',(-1.47167595917594,3.8804203091084,-0.0851139110197816));
#452=CARTESIAN_POINT('Ctrl Pts',(-3.10608664314001,2.75175684330618,-0.0351139110197817));
#453=CARTESIAN_POINT('Ctrl Pts',(-4.0295021300969,0.993186637222326,0.0148860889802183));
#454=CARTESIAN_POINT('Ctrl Pts',(-4.02912289756834,-0.99309338222957,0.0648860889802185));
#455=CARTESIAN_POINT('Ctrl Pts',(-3.10638703728059,-2.75201493940559,0.114886088980218));
#456=CARTESIAN_POINT('Ctrl Pts',(-1.4715063686392,-3.88004723702029,0.164886088980219));
#457=CARTESIAN_POINT('Ctrl Pts',(0.500236976727117,-4.11982747345639,0.214886088980218));
#458=CARTESIAN_POINT('Ctrl Pts',(2.35730445448652,-3.41514478754903,0.264886088980218));
#459=CARTESIAN_POINT('Ctrl Pts',(3.67471903903483,-1.92864136993211,0.314886088980219));
#460=CARTESIAN_POINT('Ctrl Pts',(4.149710445295,-3.9294953709059E-15,0.364886088980218));
#461=CARTESIAN_POINT('Ctrl Pts',(3.67471903903483,1.92864136993211,0.41488608898022));
#462=CARTESIAN_POINT('Ctrl Pts',(2.35730445448653,3.41514478754902,0.464886088980218));
#463=CARTESIAN_POINT('Ctrl Pts',(0.500236976727125,4.11982747345639,0.514886088980219));
#464=CARTESIAN_POINT('Ctrl Pts',(-1.47150636863919,3.88004723702029,0.564886088980219));
#465=CARTESIAN_POINT('Ctrl Pts',(-3.10638703728059,2.7520149394056,0.614886088980219));
#466=CARTESIAN_POINT('Ctrl Pts',(-4.02912289756834,0.993093382229574,0.664886088980219));
#467=CARTESIAN_POINT('Ctrl Pts',(-4.0295021300969,-0.993186637222322,0.714886088980218));
#468=CARTESIAN_POINT('Ctrl Pts',(-3.10608664314001,-2.75175684330617,0.76488608898022));
#469=CARTESIAN_POINT('Ctrl Pts',(-1.47167595917595,-3.88042030910841,0.814886088980217));
#470=CARTESIAN_POINT('Ctrl Pts',(0.500252242143398,-4.11941678860555,0.864886088980218));
#471=CARTESIAN_POINT('Ctrl Pts',(2.35738654589005,-3.41553608119617,0.914886088980219));
#472=CARTESIAN_POINT('Ctrl Pts',(3.67464374023575,-1.92830579772592,0.964886532160435));
#473=CARTESIAN_POINT('Ctrl Pts',(3.9911283028776,-0.642994420516299,0.998220308673987));
#474=CARTESIAN_POINT('Ctrl Pts',(3.9911198869727,5.12959604364658E-5,1.01488741852087));
#475=CARTESIAN_POINT('Ctrl Pts',(3.77387462816381,-3.86100090618335E-5,
-0.334664573182508));
#476=CARTESIAN_POINT('Ctrl Pts',(3.77388096322912,0.607951106081657,-0.317997553706266));
#477=CARTESIAN_POINT('Ctrl Pts',(3.47462265861266,1.82337815486306,-0.284663867563359));
#478=CARTESIAN_POINT('Ctrl Pts',(2.22906440594064,3.22959607972715,-0.234663514753783));
#479=CARTESIAN_POINT('Ctrl Pts',(0.473021999130315,3.89519946536948,-0.184663514753784));
#480=CARTESIAN_POINT('Ctrl Pts',(-1.39156475556603,3.66918566653716,-0.134663514753783));
#481=CARTESIAN_POINT('Ctrl Pts',(-2.93701923908489,2.60197761214762,-0.0846635147537843));
#482=CARTESIAN_POINT('Ctrl Pts',(-3.81015614685492,0.939121453947051,-0.0346635147537837));
#483=CARTESIAN_POINT('Ctrl Pts',(-3.80981343856941,-0.939037726452769,0.0153364852462156));
#484=CARTESIAN_POINT('Ctrl Pts',(-2.93729090844811,-2.60220938186016,0.0653364852462165));
#485=CARTESIAN_POINT('Ctrl Pts',(-1.39141070003536,-3.66885192198744,0.115336485246215));
#486=CARTESIAN_POINT('Ctrl Pts',(0.473006602776169,-3.89556486330969,0.165336485246216));
#487=CARTESIAN_POINT('Ctrl Pts',(2.22899381083593,-3.22925471863812,0.215336485246215));
#488=CARTESIAN_POINT('Ctrl Pts',(3.47468581916983,-1.82365584893271,0.265336485246216));
#489=CARTESIAN_POINT('Ctrl Pts',(3.92383720225157,-2.33313787647538E-15,
0.315336485246216));
#490=CARTESIAN_POINT('Ctrl Pts',(3.47468581916984,1.82365584893271,0.365336485246216));
#491=CARTESIAN_POINT('Ctrl Pts',(2.22899381083593,3.22925471863812,0.415336485246214));
#492=CARTESIAN_POINT('Ctrl Pts',(0.473006602776173,3.89556486330968,0.465336485246217));
#493=CARTESIAN_POINT('Ctrl Pts',(-1.39141070003536,3.66885192198744,0.515336485246215));
#494=CARTESIAN_POINT('Ctrl Pts',(-2.93729090844811,2.60220938186016,0.565336485246217));
#495=CARTESIAN_POINT('Ctrl Pts',(-3.8098134385694,0.939037726452776,0.615336485246215));
#496=CARTESIAN_POINT('Ctrl Pts',(-3.81015614685492,-0.939121453947047,0.665336485246216));
#497=CARTESIAN_POINT('Ctrl Pts',(-2.93701923908489,-2.60197761214762,0.715336485246214));
#498=CARTESIAN_POINT('Ctrl Pts',(-1.39156475556603,-3.66918566653715,0.765336485246219));
#499=CARTESIAN_POINT('Ctrl Pts',(0.473021999130308,-3.89519946536948,0.815336485246215));
#500=CARTESIAN_POINT('Ctrl Pts',(2.22906440594064,-3.22959607972715,0.865336485246216));
#501=CARTESIAN_POINT('Ctrl Pts',(3.47462490983476,-1.82337561326465,0.915336928426434));
#502=CARTESIAN_POINT('Ctrl Pts',(3.77388258585796,-0.607944515813958,0.948670704939981));
#503=CARTESIAN_POINT('Ctrl Pts',(3.77387462804756,4.84997955818175E-5,0.965337814786866));
#504=CARTESIAN_POINT('Ctrl Pts',(3.54035555525051,-3.62235335396578E-5,
-0.149030330904572));
#505=CARTESIAN_POINT('Ctrl Pts',(3.54036149831501,0.570373793688717,-0.132363311428331));
#506=CARTESIAN_POINT('Ctrl Pts',(3.25962068168036,1.71052550153319,-0.0990296252854228));
#507=CARTESIAN_POINT('Ctrl Pts',(2.09113850197982,3.02977632299705,-0.0490292724758487));
#508=CARTESIAN_POINT('Ctrl Pts',(0.443752794388437,3.65416369822555,0.000970727524151552));
#509=CARTESIAN_POINT('Ctrl Pts',(-1.30546165498048,3.44215684506183,0.0509707275241512));
#510=CARTESIAN_POINT('Ctrl Pts',(-2.75527999098848,2.44096898647696,0.100970727524152));
#511=CARTESIAN_POINT('Ctrl Pts',(-3.57440150164891,0.881013881202818,0.150970727524151));
#512=CARTESIAN_POINT('Ctrl Pts',(-3.57406694647782,-0.880931676045383,0.200970727524152));
#513=CARTESIAN_POINT('Ctrl Pts',(-2.75554501971673,-2.44119650554296,0.25097072752415));
#514=CARTESIAN_POINT('Ctrl Pts',(-1.3053119510824,-3.44182811940237,0.300970727524152));
#515=CARTESIAN_POINT('Ctrl Pts',(0.44373914126573,-3.65452533384838,0.350970727524151));
#516=CARTESIAN_POINT('Ctrl Pts',(2.09106649907062,-3.02943255121875,0.400970727524151));
#517=CARTESIAN_POINT('Ctrl Pts',(3.25968839177985,-1.71081647999367,0.450970727524151));
#518=CARTESIAN_POINT('Ctrl Pts',(3.68103512398268,3.68390191022428E-16,
0.50097072752415));
#519=CARTESIAN_POINT('Ctrl Pts',(3.25968839177985,1.71081647999365,0.550970727524153));
#520=CARTESIAN_POINT('Ctrl Pts',(2.09106649907063,3.02943255121875,0.600970727524151));
#521=CARTESIAN_POINT('Ctrl Pts',(0.443739141265733,3.65452533384837,0.650970727524151));
#522=CARTESIAN_POINT('Ctrl Pts',(-1.30531195108239,3.44182811940238,0.700970727524152));
#523=CARTESIAN_POINT('Ctrl Pts',(-2.75554501971674,2.44119650554296,0.75097072752415));
#524=CARTESIAN_POINT('Ctrl Pts',(-3.57406694647781,0.880931676045391,0.800970727524151));
#525=CARTESIAN_POINT('Ctrl Pts',(-3.57440150164891,-0.881013881202815,0.850970727524151));
#526=CARTESIAN_POINT('Ctrl Pts',(-2.75527999098848,-2.44096898647695,0.900970727524152));
#527=CARTESIAN_POINT('Ctrl Pts',(-1.30546165498048,-3.44215684506183,0.950970727524149));
#528=CARTESIAN_POINT('Ctrl Pts',(0.443752794388428,-3.65416369822555,1.00097072752415));
#529=CARTESIAN_POINT('Ctrl Pts',(2.09113850197982,-3.02977632299705,1.05097072752415));
#530=CARTESIAN_POINT('Ctrl Pts',(3.25962279359517,-1.71052311711913,1.10097117070437));
#531=CARTESIAN_POINT('Ctrl Pts',(3.54036302053892,-0.570367611577681,1.13430494721792));
#532=CARTESIAN_POINT('Ctrl Pts',(3.54035555514145,4.55020347279427E-5,1.1509720570648));
#533=CARTESIAN_POINT('Ctrl Pts',(3.5408188282025,-3.62255856341504E-5,0.148904442820824));
#534=CARTESIAN_POINT('Ctrl Pts',(3.54082477204558,0.570406104232028,0.165571462297065));
#535=CARTESIAN_POINT('Ctrl Pts',(3.2600471767394,1.71077595339912,0.198905148439973));
#536=CARTESIAN_POINT('Ctrl Pts',(2.09140834636782,3.03015175256247,0.248905501249547));
#537=CARTESIAN_POINT('Ctrl Pts',(0.443810495734847,3.65465146075917,0.298905501249547));
#538=CARTESIAN_POINT('Ctrl Pts',(-1.30562852134633,3.44259465400017,0.348905501249547));
#539=CARTESIAN_POINT('Ctrl Pts',(-2.75564354985013,2.44129245733634,0.398905501249547));
#540=CARTESIAN_POINT('Ctrl Pts',(-3.57485956225711,0.881125891917206,0.448905501249547));
#541=CARTESIAN_POINT('Ctrl Pts',(-3.57453831881802,-0.881047419350441,0.498905501249546));
#542=CARTESIAN_POINT('Ctrl Pts',(-2.75589820784018,-2.44150968149949,0.548905501249548));
#543=CARTESIAN_POINT('Ctrl Pts',(-1.30548409894797,-3.44228188020212,0.598905501249547));
#544=CARTESIAN_POINT('Ctrl Pts',(0.44379603196068,-3.65499385907777,0.648905501249547));
#545=CARTESIAN_POINT('Ctrl Pts',(2.0913422440103,-3.02983201470651,0.698905501249546));
#546=CARTESIAN_POINT('Ctrl Pts',(3.26010624185471,-1.71103579615806,0.748905501249546));
#547=CARTESIAN_POINT('Ctrl Pts',(3.6815205408314,-2.70152806749781E-15,
0.798905501249549));
#548=CARTESIAN_POINT('Ctrl Pts',(3.26010624185471,1.71103579615806,0.848905501249545));
#549=CARTESIAN_POINT('Ctrl Pts',(2.09134224401031,3.0298320147065,0.898905501249547));
#550=CARTESIAN_POINT('Ctrl Pts',(0.443796031960684,3.65499385907777,0.948905501249545));
#551=CARTESIAN_POINT('Ctrl Pts',(-1.30548409894796,3.44228188020211,0.998905501249548));
#552=CARTESIAN_POINT('Ctrl Pts',(-2.75589820784017,2.44150968149949,1.04890550124955));
#553=CARTESIAN_POINT('Ctrl Pts',(-3.57453831881802,0.881047419350446,1.09890550124955));
#554=CARTESIAN_POINT('Ctrl Pts',(-3.57485956225712,-0.881125891917204,1.14890550124955));
#555=CARTESIAN_POINT('Ctrl Pts',(-2.75564354985013,-2.44129245733633,1.19890550124955));
#556=CARTESIAN_POINT('Ctrl Pts',(-1.30562852134633,-3.44259465400017,1.24890550124955));
#557=CARTESIAN_POINT('Ctrl Pts',(0.44381049573484,-3.65465146075916,1.29890550124955));
#558=CARTESIAN_POINT('Ctrl Pts',(2.09140834636782,-3.03015175256247,1.34890550124955));
#559=CARTESIAN_POINT('Ctrl Pts',(3.26004928893733,-1.71077356875916,1.39890594442977));
#560=CARTESIAN_POINT('Ctrl Pts',(3.54082629446891,-0.570399920938189,1.43223972094331));
#561=CARTESIAN_POINT('Ctrl Pts',(3.54081882809343,4.55046124243411E-5,1.4489068307902));
#562=CARTESIAN_POINT('Ctrl Pts',(3.77344463210337,-3.86094211453188E-5,
0.334978145409623));
#563=CARTESIAN_POINT('Ctrl Pts',(3.77345096644559,0.607941851084774,0.351645164885864));
#564=CARTESIAN_POINT('Ctrl Pts',(3.47422681943749,1.82313265165429,0.384978851028771));
#565=CARTESIAN_POINT('Ctrl Pts',(2.22881580180896,3.2292579203032,0.434979203838346));
#566=CARTESIAN_POINT('Ctrl Pts',(0.472968621715341,3.89474203728431,0.484979203838346));
#567=CARTESIAN_POINT('Ctrl Pts',(-1.39141181501291,3.6687854849223,0.534979203838345));
#568=CARTESIAN_POINT('Ctrl Pts',(-2.93668031671519,2.60167538822138,0.584979203838346));
#569=CARTESIAN_POINT('Ctrl Pts',(-3.80973572465387,0.939019092983585,0.634979203838345));
#570=CARTESIAN_POINT('Ctrl Pts',(-3.80937411816426,-0.938930067203659,0.684979203838347));
#571=CARTESIAN_POINT('Ctrl Pts',(-2.93696670933693,-2.60192177124928,0.734979203838343));
#572=CARTESIAN_POINT('Ctrl Pts',(-1.39125026043264,-3.66842909869547,0.784979203838347));
#573=CARTESIAN_POINT('Ctrl Pts',(0.472954374033712,-3.89513473794735,0.834979203838345));
#574=CARTESIAN_POINT('Ctrl Pts',(2.22873683478632,-3.22888245577188,0.884979203838346));
#575=CARTESIAN_POINT('Ctrl Pts',(3.4743022433915,-1.82345451648999,0.934979203838345));
#576=CARTESIAN_POINT('Ctrl Pts',(3.92338482303424,8.59577112385666E-16,
0.984979203838347));
#577=CARTESIAN_POINT('Ctrl Pts',(3.4743022433915,1.82345451648998,1.03497920383835));
#578=CARTESIAN_POINT('Ctrl Pts',(2.22873683478633,3.22888245577189,1.08497920383835));
#579=CARTESIAN_POINT('Ctrl Pts',(0.472954374033715,3.89513473794733,1.13497920383834));
#580=CARTESIAN_POINT('Ctrl Pts',(-1.39125026043263,3.66842909869549,1.18497920383835));
#581=CARTESIAN_POINT('Ctrl Pts',(-2.93696670933693,2.60192177124927,1.23497920383834));
#582=CARTESIAN_POINT('Ctrl Pts',(-3.80937411816426,0.938930067203665,1.28497920383835));
#583=CARTESIAN_POINT('Ctrl Pts',(-3.80973572465387,-0.939019092983581,1.33497920383835));
#584=CARTESIAN_POINT('Ctrl Pts',(-2.9366803167152,-2.60167538822138,1.38497920383835));
#585=CARTESIAN_POINT('Ctrl Pts',(-1.3914118150129,-3.6687854849223,1.43497920383835));
#586=CARTESIAN_POINT('Ctrl Pts',(0.472968621715333,-3.89474203728431,1.48497920383834));
#587=CARTESIAN_POINT('Ctrl Pts',(2.22881580180896,-3.2292579203032,1.53497920383835));
#588=CARTESIAN_POINT('Ctrl Pts',(3.47422907039348,-1.82313011022333,1.58497964701857));
#589=CARTESIAN_POINT('Ctrl Pts',(3.77345258888922,-0.607935262098058,1.61831342353211));
#590=CARTESIAN_POINT('Ctrl Pts',(3.77344463198714,4.84990571201258E-5,1.634980533379));
#591=CARTESIAN_POINT('Ctrl Pts',(4.06423772997446,-4.15772538879135E-5,
0.268234553393985));
#592=CARTESIAN_POINT('Ctrl Pts',(4.06424455246283,0.654673179916507,0.284901572870226));
#593=CARTESIAN_POINT('Ctrl Pts',(3.7419611657789,1.96370332970501,0.318235259013135));
#594=CARTESIAN_POINT('Ctrl Pts',(2.40056449700478,3.47805544795347,0.368235611822709));
#595=CARTESIAN_POINT('Ctrl Pts',(0.509415994902064,4.19490955449085,0.418235611822708));
#596=CARTESIAN_POINT('Ctrl Pts',(-1.49862714563065,3.95147791024847,0.468235611822709));
#597=CARTESIAN_POINT('Ctrl Pts',(-3.16299826401492,2.80217975408783,0.518235611822707));
#598=CARTESIAN_POINT('Ctrl Pts',(-4.10329845463468,1.01137358643856,0.568235611822709));
#599=CARTESIAN_POINT('Ctrl Pts',(-4.10294637826834,-1.01128818176824,0.618235611822707));
#600=CARTESIAN_POINT('Ctrl Pts',(-3.1632775908236,-2.80241621413141,0.66823561182271));
#601=CARTESIAN_POINT('Ctrl Pts',(-1.49846798468556,-3.95113884689558,0.718235611822708));
#602=CARTESIAN_POINT('Ctrl Pts',(0.509398384357187,-4.19527851919001,0.768235611822709));
#603=CARTESIAN_POINT('Ctrl Pts',(2.40049599299571,-3.47771847206681,0.818235611822708));
#604=CARTESIAN_POINT('Ctrl Pts',(3.74201817059742,-1.96396270907084,0.868235611822709));
#605=CARTESIAN_POINT('Ctrl Pts',(4.22574322629492,-3.31551171920185E-15,
0.918235611822709));
#606=CARTESIAN_POINT('Ctrl Pts',(3.74201817059743,1.96396270907084,0.968235611822708));
#607=CARTESIAN_POINT('Ctrl Pts',(2.40049599299572,3.47771847206681,1.01823561182271));
#608=CARTESIAN_POINT('Ctrl Pts',(0.509398384357191,4.19527851919001,1.06823561182271));
#609=CARTESIAN_POINT('Ctrl Pts',(-1.49846798468555,3.95113884689558,1.11823561182271));
#610=CARTESIAN_POINT('Ctrl Pts',(-3.1632775908236,2.80241621413141,1.16823561182271));
#611=CARTESIAN_POINT('Ctrl Pts',(-4.10294637826833,1.01128818176826,1.21823561182271));
#612=CARTESIAN_POINT('Ctrl Pts',(-4.10329845463469,-1.01137358643856,1.26823561182271));
#613=CARTESIAN_POINT('Ctrl Pts',(-3.16299826401492,-2.80217975408782,1.31823561182271));
#614=CARTESIAN_POINT('Ctrl Pts',(-1.49862714563066,-3.95147791024848,1.36823561182271));
#615=CARTESIAN_POINT('Ctrl Pts',(0.509415994902062,-4.19490955449084,1.41823561182271));
#616=CARTESIAN_POINT('Ctrl Pts',(2.40056449700477,-3.47805544795347,1.46823561182271));
#617=CARTESIAN_POINT('Ctrl Pts',(3.74196359021937,-1.96370059266485,1.51823605500293));
#618=CARTESIAN_POINT('Ctrl Pts',(4.06424629993754,-0.654666082115678,1.55156983151647));
#619=CARTESIAN_POINT('Ctrl Pts',(4.06423772984927,5.22270872704426E-5,1.56823694136336));
#620=CARTESIAN_POINT('Ctrl Pts',(4.1499999997788,-4.24686486904347E-5,0.0897587316738423));
#621=CARTESIAN_POINT('Ctrl Pts',(4.15000696622849,0.668709042521239,0.106425751150083));
#622=CARTESIAN_POINT('Ctrl Pts',(3.82092307790611,2.00500168396154,0.139759437292992));
#623=CARTESIAN_POINT('Ctrl Pts',(2.45124026627771,3.55155817452818,0.189759790102565));
#624=CARTESIAN_POINT('Ctrl Pts',(0.520167443250807,4.28337907399838,0.239759790102566));
#625=CARTESIAN_POINT('Ctrl Pts',(-1.53027139539678,4.03492666790133,0.289759790102565));
#626=CARTESIAN_POINT('Ctrl Pts',(-3.22972709772057,2.86128926874394,0.339759790102566));
#627=CARTESIAN_POINT('Ctrl Pts',(-4.18993548453802,1.03273238301551,0.389759790102565));
#628=CARTESIAN_POINT('Ctrl Pts',(-4.18950619532628,-1.03262561691917,0.439759790102566));
#629=CARTESIAN_POINT('Ctrl Pts',(-3.23006668780865,-2.8615846656147,0.489759790102565));
#630=CARTESIAN_POINT('Ctrl Pts',(-1.53008117733915,-4.03449687543129,0.539759790102566));
#631=CARTESIAN_POINT('Ctrl Pts',(0.520153687467238,-4.28385658794491,0.589759790102565));
#632=CARTESIAN_POINT('Ctrl Pts',(2.45113943670831,-3.55108827397329,0.639759790102565));
#633=CARTESIAN_POINT('Ctrl Pts',(3.82102650254219,-2.00542942175667,0.689759790102565));
#634=CARTESIAN_POINT('Ctrl Pts',(4.31489401732186,2.45593460681619E-16,
0.739759790102566));
#635=CARTESIAN_POINT('Ctrl Pts',(3.8210265025422,2.00542942175666,0.789759790102565));
#636=CARTESIAN_POINT('Ctrl Pts',(2.45113943670832,3.55108827397329,0.839759790102566));
#637=CARTESIAN_POINT('Ctrl Pts',(0.520153687467242,4.28385658794489,0.889759790102564));
#638=CARTESIAN_POINT('Ctrl Pts',(-1.53008117733914,4.03449687543129,0.939759790102567));
#639=CARTESIAN_POINT('Ctrl Pts',(-3.23006668780864,2.86158466561469,0.989759790102563));
#640=CARTESIAN_POINT('Ctrl Pts',(-4.18950619532629,1.03262561691917,1.03975979010257));
#641=CARTESIAN_POINT('Ctrl Pts',(-4.18993548453801,-1.0327323830155,1.08975979010256));
#642=CARTESIAN_POINT('Ctrl Pts',(-3.22972709772058,-2.86128926874393,1.13975979010257));
#643=CARTESIAN_POINT('Ctrl Pts',(-1.53027139539678,-4.03492666790133,1.18975979010256));
#644=CARTESIAN_POINT('Ctrl Pts',(0.5201674432508,-4.28337907399837,1.23975979010257));
#645=CARTESIAN_POINT('Ctrl Pts',(2.45124026627771,-3.55155817452818,1.28975979010256));
#646=CARTESIAN_POINT('Ctrl Pts',(3.82092555347096,-2.00499888871519,1.33976023328279));
#647=CARTESIAN_POINT('Ctrl Pts',(4.15000875057666,-0.668701796898199,1.37309400979633));
#648=CARTESIAN_POINT('Ctrl Pts',(4.14999999965097,5.33468091617591E-5,1.38976111964322));
#649=CARTESIAN_POINT('Ctrl Pts',(4.1499999997788,-4.24596324373521E-5,-1.05842872340288E-6));
#650=CARTESIAN_POINT('Ctrl Pts',(4.1500069662315,0.668567067637839,0.0166659610475177));
#651=CARTESIAN_POINT('Ctrl Pts',(3.82092293584009,2.00509098057533,0.0499996471904256));
#652=CARTESIAN_POINT('Ctrl Pts',(2.45122754868849,3.55148762736746,0.1));
#653=CARTESIAN_POINT('Ctrl Pts',(0.520166215925999,4.28341126639735,0.15));
#654=CARTESIAN_POINT('Ctrl Pts',(-1.53025811313998,4.03488435543525,0.2));
#655=CARTESIAN_POINT('Ctrl Pts',(-3.22973721748118,2.86130288084609,0.25));
#656=CARTESIAN_POINT('Ctrl Pts',(-4.18990305667217,1.03272139992384,0.3));
#657=CARTESIAN_POINT('Ctrl Pts',(-4.18951856643853,-1.03262719030387,0.35));
#658=CARTESIAN_POINT('Ctrl Pts',(-3.230041904214,-2.8615636452037,0.4));
#659=CARTESIAN_POINT('Ctrl Pts',(-1.53008567676018,-4.03450821528736,0.45));
#660=CARTESIAN_POINT('Ctrl Pts',(0.520149746931195,-4.28382409307043,0.5));
#661=CARTESIAN_POINT('Ctrl Pts',(2.4511465432048,-3.55109849575313,0.55));
#662=CARTESIAN_POINT('Ctrl Pts',(3.8209973325035,-2.00541415079075,0.6));
#663=CARTESIAN_POINT('Ctrl Pts',(4.31490654674561,-3.19271498886104E-15,
0.65));
#664=CARTESIAN_POINT('Ctrl Pts',(3.82099733250351,2.00541415079075,0.699999999999999));
#665=CARTESIAN_POINT('Ctrl Pts',(2.4511465432048,3.55109849575313,0.750000000000001));
#666=CARTESIAN_POINT('Ctrl Pts',(0.5201497469312,4.28382409307043,0.799999999999999));
#667=CARTESIAN_POINT('Ctrl Pts',(-1.53008567676018,4.03450821528736,0.850000000000001));
#668=CARTESIAN_POINT('Ctrl Pts',(-3.23004190421399,2.8615636452037,0.899999999999999));
#669=CARTESIAN_POINT('Ctrl Pts',(-4.18951856643854,1.03262719030388,0.950000000000002));
#670=CARTESIAN_POINT('Ctrl Pts',(-4.18990305667216,-1.03272139992384,0.999999999999997));
#671=CARTESIAN_POINT('Ctrl Pts',(-3.22973721748119,-2.86130288084609,1.05));
#672=CARTESIAN_POINT('Ctrl Pts',(-1.53025811313998,-4.03488435543524,1.1));
#673=CARTESIAN_POINT('Ctrl Pts',(0.520166215925992,-4.28341126639735,1.15));
#674=CARTESIAN_POINT('Ctrl Pts',(2.45122754868849,-3.55148762736746,1.2));
#675=CARTESIAN_POINT('Ctrl Pts',(3.82092541142767,-2.00508818561788,1.25000044318022));
#676=CARTESIAN_POINT('Ctrl Pts',(4.15000875058044,-0.668559820760801,1.28333421969376));
#677=CARTESIAN_POINT('Ctrl Pts',(4.14999999965097,5.33354833231175E-5,1.30000132954065));
#678=CARTESIAN_POINT('Ctrl Pts',(4.15,0.,-3.67394039744206E-17));
#679=CARTESIAN_POINT('Ctrl Pts',(4.15,0.668595359610135,0.0166666666666666));
#680=CARTESIAN_POINT('Ctrl Pts',(3.82091327107535,2.00510189216919,0.0499999999999999));
#681=CARTESIAN_POINT('Ctrl Pts',(2.45122754868849,3.55148762736746,0.1));
#682=CARTESIAN_POINT('Ctrl Pts',(0.520166215925999,4.28341126639735,0.15));
#683=CARTESIAN_POINT('Ctrl Pts',(-1.53025811313998,4.03488435543525,0.2));
#684=CARTESIAN_POINT('Ctrl Pts',(-3.22973721748118,2.86130288084609,0.25));
#685=CARTESIAN_POINT('Ctrl Pts',(-4.18990305667217,1.03272139992384,0.299999999999999));
#686=CARTESIAN_POINT('Ctrl Pts',(-4.18951856643853,-1.03262719030387,0.35));
#687=CARTESIAN_POINT('Ctrl Pts',(-3.230041904214,-2.8615636452037,0.399999999999999));
#688=CARTESIAN_POINT('Ctrl Pts',(-1.53008567676018,-4.03450821528736,0.45));
#689=CARTESIAN_POINT('Ctrl Pts',(0.520149746931195,-4.28382409307043,0.5));
#690=CARTESIAN_POINT('Ctrl Pts',(2.4511465432048,-3.55109849575313,0.55));
#691=CARTESIAN_POINT('Ctrl Pts',(3.8209973325035,-2.00541415079075,0.6));
#692=CARTESIAN_POINT('Ctrl Pts',(4.31490654674561,-3.19271498886104E-15,
0.65));
#693=CARTESIAN_POINT('Ctrl Pts',(3.82099733250351,2.00541415079075,0.699999999999999));
#694=CARTESIAN_POINT('Ctrl Pts',(2.4511465432048,3.55109849575313,0.750000000000001));
#695=CARTESIAN_POINT('Ctrl Pts',(0.5201497469312,4.28382409307043,0.799999999999999));
#696=CARTESIAN_POINT('Ctrl Pts',(-1.53008567676018,4.03450821528736,0.850000000000001));
#697=CARTESIAN_POINT('Ctrl Pts',(-3.23004190421399,2.8615636452037,0.899999999999999));
#698=CARTESIAN_POINT('Ctrl Pts',(-4.18951856643854,1.03262719030388,0.950000000000002));
#699=CARTESIAN_POINT('Ctrl Pts',(-4.18990305667216,-1.03272139992384,0.999999999999997));
#700=CARTESIAN_POINT('Ctrl Pts',(-3.22973721748119,-2.86130288084609,1.05));
#701=CARTESIAN_POINT('Ctrl Pts',(-1.53025811313998,-4.03488435543524,1.1));
#702=CARTESIAN_POINT('Ctrl Pts',(0.520166215925992,-4.28341126639735,1.15));
#703=CARTESIAN_POINT('Ctrl Pts',(2.45122754868849,-3.55148762736746,1.2));
#704=CARTESIAN_POINT('Ctrl Pts',(3.82091327107535,-2.0051018921692,1.25));
#705=CARTESIAN_POINT('Ctrl Pts',(4.15,-0.668595359610139,1.28333333333333));
#706=CARTESIAN_POINT('Ctrl Pts',(4.15,-2.03291368658461E-15,1.3));
#707=UNCERTAINTY_MEASURE_WITH_UNIT(LENGTH_MEASURE(0.01),#711,
'DISTANCE_ACCURACY_VALUE',
'Maximum model space distance between geometric entities at asserted c
onnectivities');
#708=UNCERTAINTY_MEASURE_WITH_UNIT(LENGTH_MEASURE(0.01),#711,
'DISTANCE_ACCURACY_VALUE',
'Maximum model space distance between geometric entities at asserted c
onnectivities');
#709=(
GEOMETRIC_REPRESENTATION_CONTEXT(3)
GLOBAL_UNCERTAINTY_ASSIGNED_CONTEXT((#707))
GLOBAL_UNIT_ASSIGNED_CONTEXT((#711,#713,#714))
REPRESENTATION_CONTEXT('','3D')
);
#710=(
GEOMETRIC_REPRESENTATION_CONTEXT(3)
GLOBAL_UNCERTAINTY_ASSIGNED_CONTEXT((#708))
GLOBAL_UNIT_ASSIGNED_CONTEXT((#711,#713,#714))
REPRESENTATION_CONTEXT('','3D')
);
#711=(
LENGTH_UNIT()
NAMED_UNIT(*)
SI_UNIT(.MILLI.,.METRE.)
);
#712=(
LENGTH_UNIT()
NAMED_UNIT(*)
SI_UNIT($,.METRE.)
);
#713=(
NAMED_UNIT(*)
PLANE_ANGLE_UNIT()
SI_UNIT($,.RADIAN.)
);
#714=(
NAMED_UNIT(*)
SI_UNIT($,.STERADIAN.)
SOLID_ANGLE_UNIT()
);
#715=SHAPE_DEFINITION_REPRESENTATION(#716,#717);
#716=PRODUCT_DEFINITION_SHAPE('',$,#719);
#717=SHAPE_REPRESENTATION('',(#203),#709);
#718=PRODUCT_DEFINITION_CONTEXT('part definition',#723,'design');
#719=PRODUCT_DEFINITION('#2 part 8 torsion spring',
'#2 part 8 torsion spring v1',#720,#718);
#720=PRODUCT_DEFINITION_FORMATION('',$,#725);
#721=PRODUCT_RELATED_PRODUCT_CATEGORY('#2 part 8 torsion spring v1',
'#2 part 8 torsion spring v1',(#725));
#722=APPLICATION_PROTOCOL_DEFINITION('international standard',
'automotive_design',2009,#723);
#723=APPLICATION_CONTEXT(
'Core Data for Automotive Mechanical Design Process');
#724=PRODUCT_CONTEXT('part definition',#723,'mechanical');
#725=PRODUCT('#2 part 8 torsion spring','#2 part 8 torsion spring v1',$,
(#724));
#726=PRESENTATION_STYLE_ASSIGNMENT((#728));
#727=PRESENTATION_STYLE_ASSIGNMENT((#729));
#728=SURFACE_STYLE_USAGE(.BOTH.,#730);
#729=SURFACE_STYLE_USAGE(.BOTH.,#731);
#730=SURFACE_SIDE_STYLE('',(#732));
#731=SURFACE_SIDE_STYLE('',(#733));
#732=SURFACE_STYLE_FILL_AREA(#734);
#733=SURFACE_STYLE_FILL_AREA(#735);
#734=FILL_AREA_STYLE('Steel - Satin',(#736));
#735=FILL_AREA_STYLE('Opaque(160,160,160)',(#737));
#736=FILL_AREA_STYLE_COLOUR('Steel - Satin',#738);
#737=FILL_AREA_STYLE_COLOUR('Opaque(160,160,160)',#739);
#738=COLOUR_RGB('Steel - Satin',0.627450980392157,0.627450980392157,0.627450980392157);
#739=COLOUR_RGB('Opaque(160,160,160)',0.627450980392157,0.627450980392157,
0.627450980392157);
ENDSEC;
END-ISO-10303-21;
