ISO-10303-21;
HEADER;
/* Generated by software containing ST-Developer
 * from STEP Tools, Inc. (www.steptools.com) 
 */

FILE_DESCRIPTION(
/* description */ (''),
/* implementation_level */ '2;1');

FILE_NAME(
/* name */ '#2 part long coil.step',
/* time_stamp */ '2023-07-05T12:03:13+05:30',
/* author */ (''),
/* organization */ (''),
/* preprocessor_version */ 'ST-DEVELOPER v19.2',
/* originating_system */ 'Autodesk Translation Framework v12.6.0.85',
/* authorisation */ '');

FILE_SCHEMA (('AUTOMOTIVE_DESIGN { 1 0 10303 214 3 1 1 }'));
ENDSEC;

DATA;
#10=MECHANICAL_DESIGN_GEOMETRIC_PRESENTATION_REPRESENTATION('',(#13),#801);
#11=SHAPE_REPRESENTATION_RELATIONSHIP('SRR','None',#808,#12);
#12=ADVANCED_BREP_SHAPE_REPRESENTATION('',(#14),#800);
#13=STYLED_ITEM('',(#818),#14);
#14=MANIFOLD_SOLID_BREP('Body1',#493);
#15=FACE_BOUND('',#72,.T.);
#16=FACE_BOUND('',#94,.T.);
#17=CYLINDRICAL_SURFACE('',#511,2.2);
#18=PLANE('',#510);
#19=PLANE('',#514);
#20=PLANE('',#515);
#21=PLANE('',#516);
#22=PLANE('',#517);
#23=PLANE('',#518);
#24=PLANE('',#519);
#25=PLANE('',#520);
#26=PLANE('',#521);
#27=PLANE('',#522);
#28=PLANE('',#523);
#29=PLANE('',#524);
#30=PLANE('',#525);
#31=PLANE('',#526);
#32=PLANE('',#527);
#33=PLANE('',#528);
#34=PLANE('',#529);
#35=PLANE('',#530);
#36=PLANE('',#531);
#37=PLANE('',#532);
#38=PLANE('',#533);
#39=PLANE('',#534);
#40=PLANE('',#535);
#41=PLANE('',#536);
#42=FACE_OUTER_BOUND('',#68,.T.);
#43=FACE_OUTER_BOUND('',#69,.T.);
#44=FACE_OUTER_BOUND('',#70,.T.);
#45=FACE_OUTER_BOUND('',#71,.T.);
#46=FACE_OUTER_BOUND('',#73,.T.);
#47=FACE_OUTER_BOUND('',#74,.T.);
#48=FACE_OUTER_BOUND('',#75,.T.);
#49=FACE_OUTER_BOUND('',#76,.T.);
#50=FACE_OUTER_BOUND('',#77,.T.);
#51=FACE_OUTER_BOUND('',#78,.T.);
#52=FACE_OUTER_BOUND('',#79,.T.);
#53=FACE_OUTER_BOUND('',#80,.T.);
#54=FACE_OUTER_BOUND('',#81,.T.);
#55=FACE_OUTER_BOUND('',#82,.T.);
#56=FACE_OUTER_BOUND('',#83,.T.);
#57=FACE_OUTER_BOUND('',#84,.T.);
#58=FACE_OUTER_BOUND('',#85,.T.);
#59=FACE_OUTER_BOUND('',#86,.T.);
#60=FACE_OUTER_BOUND('',#87,.T.);
#61=FACE_OUTER_BOUND('',#88,.T.);
#62=FACE_OUTER_BOUND('',#89,.T.);
#63=FACE_OUTER_BOUND('',#90,.T.);
#64=FACE_OUTER_BOUND('',#91,.T.);
#65=FACE_OUTER_BOUND('',#92,.T.);
#66=FACE_OUTER_BOUND('',#93,.T.);
#67=FACE_OUTER_BOUND('',#95,.T.);
#68=EDGE_LOOP('',(#334,#335,#336,#337));
#69=EDGE_LOOP('',(#338));
#70=EDGE_LOOP('',(#339,#340,#341,#342));
#71=EDGE_LOOP('',(#343));
#72=EDGE_LOOP('',(#344));
#73=EDGE_LOOP('',(#345,#346,#347,#348));
#74=EDGE_LOOP('',(#349,#350,#351,#352));
#75=EDGE_LOOP('',(#353,#354,#355,#356));
#76=EDGE_LOOP('',(#357,#358,#359,#360));
#77=EDGE_LOOP('',(#361,#362,#363,#364));
#78=EDGE_LOOP('',(#365,#366,#367,#368));
#79=EDGE_LOOP('',(#369,#370,#371,#372));
#80=EDGE_LOOP('',(#373,#374,#375,#376));
#81=EDGE_LOOP('',(#377,#378,#379,#380));
#82=EDGE_LOOP('',(#381,#382,#383,#384));
#83=EDGE_LOOP('',(#385,#386,#387,#388));
#84=EDGE_LOOP('',(#389,#390,#391,#392));
#85=EDGE_LOOP('',(#393,#394,#395,#396));
#86=EDGE_LOOP('',(#397,#398,#399,#400));
#87=EDGE_LOOP('',(#401,#402,#403,#404));
#88=EDGE_LOOP('',(#405,#406,#407,#408));
#89=EDGE_LOOP('',(#409,#410,#411,#412));
#90=EDGE_LOOP('',(#413,#414,#415,#416));
#91=EDGE_LOOP('',(#417,#418,#419,#420));
#92=EDGE_LOOP('',(#421,#422,#423,#424));
#93=EDGE_LOOP('',(#425,#426,#427,#428,#429,#430,#431,#432,#433,#434,#435,
#436,#437,#438,#439,#440,#441,#442,#443,#444));
#94=EDGE_LOOP('',(#445));
#95=EDGE_LOOP('',(#446,#447,#448,#449,#450,#451,#452,#453,#454,#455,#456,
#457,#458,#459,#460,#461,#462,#463,#464,#465));
#96=LINE('',#666,#158);
#97=LINE('',#673,#159);
#98=LINE('',#679,#160);
#99=LINE('',#681,#161);
#100=LINE('',#683,#162);
#101=LINE('',#684,#163);
#102=LINE('',#687,#164);
#103=LINE('',#689,#165);
#104=LINE('',#690,#166);
#105=LINE('',#693,#167);
#106=LINE('',#695,#168);
#107=LINE('',#696,#169);
#108=LINE('',#699,#170);
#109=LINE('',#701,#171);
#110=LINE('',#702,#172);
#111=LINE('',#705,#173);
#112=LINE('',#707,#174);
#113=LINE('',#708,#175);
#114=LINE('',#711,#176);
#115=LINE('',#713,#177);
#116=LINE('',#714,#178);
#117=LINE('',#717,#179);
#118=LINE('',#719,#180);
#119=LINE('',#720,#181);
#120=LINE('',#723,#182);
#121=LINE('',#725,#183);
#122=LINE('',#726,#184);
#123=LINE('',#729,#185);
#124=LINE('',#731,#186);
#125=LINE('',#732,#187);
#126=LINE('',#735,#188);
#127=LINE('',#737,#189);
#128=LINE('',#738,#190);
#129=LINE('',#741,#191);
#130=LINE('',#743,#192);
#131=LINE('',#744,#193);
#132=LINE('',#747,#194);
#133=LINE('',#749,#195);
#134=LINE('',#750,#196);
#135=LINE('',#753,#197);
#136=LINE('',#755,#198);
#137=LINE('',#756,#199);
#138=LINE('',#759,#200);
#139=LINE('',#761,#201);
#140=LINE('',#762,#202);
#141=LINE('',#765,#203);
#142=LINE('',#767,#204);
#143=LINE('',#768,#205);
#144=LINE('',#771,#206);
#145=LINE('',#773,#207);
#146=LINE('',#774,#208);
#147=LINE('',#777,#209);
#148=LINE('',#779,#210);
#149=LINE('',#780,#211);
#150=LINE('',#783,#212);
#151=LINE('',#785,#213);
#152=LINE('',#786,#214);
#153=LINE('',#789,#215);
#154=LINE('',#791,#216);
#155=LINE('',#792,#217);
#156=LINE('',#794,#218);
#157=LINE('',#795,#219);
#158=VECTOR('',#543,2.);
#159=VECTOR('',#552,2.2);
#160=VECTOR('',#559,10.);
#161=VECTOR('',#560,10.);
#162=VECTOR('',#561,10.);
#163=VECTOR('',#562,10.);
#164=VECTOR('',#565,10.);
#165=VECTOR('',#566,10.);
#166=VECTOR('',#567,10.);
#167=VECTOR('',#570,10.);
#168=VECTOR('',#571,10.);
#169=VECTOR('',#572,10.);
#170=VECTOR('',#575,10.);
#171=VECTOR('',#576,10.);
#172=VECTOR('',#577,10.);
#173=VECTOR('',#580,10.);
#174=VECTOR('',#581,10.);
#175=VECTOR('',#582,10.);
#176=VECTOR('',#585,10.);
#177=VECTOR('',#586,10.);
#178=VECTOR('',#587,10.);
#179=VECTOR('',#590,10.);
#180=VECTOR('',#591,10.);
#181=VECTOR('',#592,10.);
#182=VECTOR('',#595,10.);
#183=VECTOR('',#596,10.);
#184=VECTOR('',#597,10.);
#185=VECTOR('',#600,10.);
#186=VECTOR('',#601,10.);
#187=VECTOR('',#602,10.);
#188=VECTOR('',#605,10.);
#189=VECTOR('',#606,10.);
#190=VECTOR('',#607,10.);
#191=VECTOR('',#610,10.);
#192=VECTOR('',#611,10.);
#193=VECTOR('',#612,10.);
#194=VECTOR('',#615,10.);
#195=VECTOR('',#616,10.);
#196=VECTOR('',#617,10.);
#197=VECTOR('',#620,10.);
#198=VECTOR('',#621,10.);
#199=VECTOR('',#622,10.);
#200=VECTOR('',#625,10.);
#201=VECTOR('',#626,10.);
#202=VECTOR('',#627,10.);
#203=VECTOR('',#630,10.);
#204=VECTOR('',#631,10.);
#205=VECTOR('',#632,10.);
#206=VECTOR('',#635,10.);
#207=VECTOR('',#636,10.);
#208=VECTOR('',#637,10.);
#209=VECTOR('',#640,10.);
#210=VECTOR('',#641,10.);
#211=VECTOR('',#642,10.);
#212=VECTOR('',#645,10.);
#213=VECTOR('',#646,10.);
#214=VECTOR('',#647,10.);
#215=VECTOR('',#650,10.);
#216=VECTOR('',#651,10.);
#217=VECTOR('',#652,10.);
#218=VECTOR('',#655,10.);
#219=VECTOR('',#656,10.);
#220=CIRCLE('',#508,0.798898226921532);
#221=CIRCLE('',#509,2.);
#222=CIRCLE('',#512,2.2);
#223=CIRCLE('',#513,2.2);
#224=VERTEX_POINT('',#663);
#225=VERTEX_POINT('',#665);
#226=VERTEX_POINT('',#670);
#227=VERTEX_POINT('',#672);
#228=VERTEX_POINT('',#677);
#229=VERTEX_POINT('',#678);
#230=VERTEX_POINT('',#680);
#231=VERTEX_POINT('',#682);
#232=VERTEX_POINT('',#686);
#233=VERTEX_POINT('',#688);
#234=VERTEX_POINT('',#692);
#235=VERTEX_POINT('',#694);
#236=VERTEX_POINT('',#698);
#237=VERTEX_POINT('',#700);
#238=VERTEX_POINT('',#704);
#239=VERTEX_POINT('',#706);
#240=VERTEX_POINT('',#710);
#241=VERTEX_POINT('',#712);
#242=VERTEX_POINT('',#716);
#243=VERTEX_POINT('',#718);
#244=VERTEX_POINT('',#722);
#245=VERTEX_POINT('',#724);
#246=VERTEX_POINT('',#728);
#247=VERTEX_POINT('',#730);
#248=VERTEX_POINT('',#734);
#249=VERTEX_POINT('',#736);
#250=VERTEX_POINT('',#740);
#251=VERTEX_POINT('',#742);
#252=VERTEX_POINT('',#746);
#253=VERTEX_POINT('',#748);
#254=VERTEX_POINT('',#752);
#255=VERTEX_POINT('',#754);
#256=VERTEX_POINT('',#758);
#257=VERTEX_POINT('',#760);
#258=VERTEX_POINT('',#764);
#259=VERTEX_POINT('',#766);
#260=VERTEX_POINT('',#770);
#261=VERTEX_POINT('',#772);
#262=VERTEX_POINT('',#776);
#263=VERTEX_POINT('',#778);
#264=VERTEX_POINT('',#782);
#265=VERTEX_POINT('',#784);
#266=VERTEX_POINT('',#788);
#267=VERTEX_POINT('',#790);
#268=EDGE_CURVE('',#224,#224,#220,.T.);
#269=EDGE_CURVE('',#224,#225,#96,.T.);
#270=EDGE_CURVE('',#225,#225,#221,.T.);
#271=EDGE_CURVE('',#226,#226,#222,.T.);
#272=EDGE_CURVE('',#226,#227,#97,.T.);
#273=EDGE_CURVE('',#227,#227,#223,.T.);
#274=EDGE_CURVE('',#228,#229,#98,.T.);
#275=EDGE_CURVE('',#228,#230,#99,.T.);
#276=EDGE_CURVE('',#231,#230,#100,.T.);
#277=EDGE_CURVE('',#229,#231,#101,.T.);
#278=EDGE_CURVE('',#229,#232,#102,.T.);
#279=EDGE_CURVE('',#233,#231,#103,.T.);
#280=EDGE_CURVE('',#232,#233,#104,.T.);
#281=EDGE_CURVE('',#234,#232,#105,.T.);
#282=EDGE_CURVE('',#235,#233,#106,.T.);
#283=EDGE_CURVE('',#234,#235,#107,.T.);
#284=EDGE_CURVE('',#236,#234,#108,.T.);
#285=EDGE_CURVE('',#237,#235,#109,.T.);
#286=EDGE_CURVE('',#236,#237,#110,.T.);
#287=EDGE_CURVE('',#238,#236,#111,.T.);
#288=EDGE_CURVE('',#239,#237,#112,.T.);
#289=EDGE_CURVE('',#238,#239,#113,.T.);
#290=EDGE_CURVE('',#238,#240,#114,.T.);
#291=EDGE_CURVE('',#241,#239,#115,.T.);
#292=EDGE_CURVE('',#240,#241,#116,.T.);
#293=EDGE_CURVE('',#240,#242,#117,.T.);
#294=EDGE_CURVE('',#243,#241,#118,.T.);
#295=EDGE_CURVE('',#242,#243,#119,.T.);
#296=EDGE_CURVE('',#244,#242,#120,.T.);
#297=EDGE_CURVE('',#245,#243,#121,.T.);
#298=EDGE_CURVE('',#244,#245,#122,.T.);
#299=EDGE_CURVE('',#246,#244,#123,.T.);
#300=EDGE_CURVE('',#247,#245,#124,.T.);
#301=EDGE_CURVE('',#246,#247,#125,.T.);
#302=EDGE_CURVE('',#248,#246,#126,.T.);
#303=EDGE_CURVE('',#249,#247,#127,.T.);
#304=EDGE_CURVE('',#248,#249,#128,.T.);
#305=EDGE_CURVE('',#250,#248,#129,.T.);
#306=EDGE_CURVE('',#251,#249,#130,.T.);
#307=EDGE_CURVE('',#250,#251,#131,.T.);
#308=EDGE_CURVE('',#252,#250,#132,.T.);
#309=EDGE_CURVE('',#253,#251,#133,.T.);
#310=EDGE_CURVE('',#252,#253,#134,.T.);
#311=EDGE_CURVE('',#254,#252,#135,.T.);
#312=EDGE_CURVE('',#255,#253,#136,.T.);
#313=EDGE_CURVE('',#254,#255,#137,.T.);
#314=EDGE_CURVE('',#256,#254,#138,.T.);
#315=EDGE_CURVE('',#257,#255,#139,.T.);
#316=EDGE_CURVE('',#256,#257,#140,.T.);
#317=EDGE_CURVE('',#258,#256,#141,.T.);
#318=EDGE_CURVE('',#259,#257,#142,.T.);
#319=EDGE_CURVE('',#258,#259,#143,.T.);
#320=EDGE_CURVE('',#258,#260,#144,.T.);
#321=EDGE_CURVE('',#261,#259,#145,.T.);
#322=EDGE_CURVE('',#260,#261,#146,.T.);
#323=EDGE_CURVE('',#260,#262,#147,.T.);
#324=EDGE_CURVE('',#263,#261,#148,.T.);
#325=EDGE_CURVE('',#262,#263,#149,.T.);
#326=EDGE_CURVE('',#264,#262,#150,.T.);
#327=EDGE_CURVE('',#265,#263,#151,.T.);
#328=EDGE_CURVE('',#264,#265,#152,.T.);
#329=EDGE_CURVE('',#266,#264,#153,.T.);
#330=EDGE_CURVE('',#267,#265,#154,.T.);
#331=EDGE_CURVE('',#266,#267,#155,.T.);
#332=EDGE_CURVE('',#266,#228,#156,.T.);
#333=EDGE_CURVE('',#230,#267,#157,.T.);
#334=ORIENTED_EDGE('',*,*,#268,.F.);
#335=ORIENTED_EDGE('',*,*,#269,.T.);
#336=ORIENTED_EDGE('',*,*,#270,.F.);
#337=ORIENTED_EDGE('',*,*,#269,.F.);
#338=ORIENTED_EDGE('',*,*,#268,.T.);
#339=ORIENTED_EDGE('',*,*,#271,.F.);
#340=ORIENTED_EDGE('',*,*,#272,.T.);
#341=ORIENTED_EDGE('',*,*,#273,.F.);
#342=ORIENTED_EDGE('',*,*,#272,.F.);
#343=ORIENTED_EDGE('',*,*,#271,.T.);
#344=ORIENTED_EDGE('',*,*,#270,.T.);
#345=ORIENTED_EDGE('',*,*,#274,.F.);
#346=ORIENTED_EDGE('',*,*,#275,.T.);
#347=ORIENTED_EDGE('',*,*,#276,.F.);
#348=ORIENTED_EDGE('',*,*,#277,.F.);
#349=ORIENTED_EDGE('',*,*,#278,.F.);
#350=ORIENTED_EDGE('',*,*,#277,.T.);
#351=ORIENTED_EDGE('',*,*,#279,.F.);
#352=ORIENTED_EDGE('',*,*,#280,.F.);
#353=ORIENTED_EDGE('',*,*,#281,.T.);
#354=ORIENTED_EDGE('',*,*,#280,.T.);
#355=ORIENTED_EDGE('',*,*,#282,.F.);
#356=ORIENTED_EDGE('',*,*,#283,.F.);
#357=ORIENTED_EDGE('',*,*,#284,.T.);
#358=ORIENTED_EDGE('',*,*,#283,.T.);
#359=ORIENTED_EDGE('',*,*,#285,.F.);
#360=ORIENTED_EDGE('',*,*,#286,.F.);
#361=ORIENTED_EDGE('',*,*,#287,.T.);
#362=ORIENTED_EDGE('',*,*,#286,.T.);
#363=ORIENTED_EDGE('',*,*,#288,.F.);
#364=ORIENTED_EDGE('',*,*,#289,.F.);
#365=ORIENTED_EDGE('',*,*,#290,.F.);
#366=ORIENTED_EDGE('',*,*,#289,.T.);
#367=ORIENTED_EDGE('',*,*,#291,.F.);
#368=ORIENTED_EDGE('',*,*,#292,.F.);
#369=ORIENTED_EDGE('',*,*,#293,.F.);
#370=ORIENTED_EDGE('',*,*,#292,.T.);
#371=ORIENTED_EDGE('',*,*,#294,.F.);
#372=ORIENTED_EDGE('',*,*,#295,.F.);
#373=ORIENTED_EDGE('',*,*,#296,.T.);
#374=ORIENTED_EDGE('',*,*,#295,.T.);
#375=ORIENTED_EDGE('',*,*,#297,.F.);
#376=ORIENTED_EDGE('',*,*,#298,.F.);
#377=ORIENTED_EDGE('',*,*,#299,.T.);
#378=ORIENTED_EDGE('',*,*,#298,.T.);
#379=ORIENTED_EDGE('',*,*,#300,.F.);
#380=ORIENTED_EDGE('',*,*,#301,.F.);
#381=ORIENTED_EDGE('',*,*,#302,.T.);
#382=ORIENTED_EDGE('',*,*,#301,.T.);
#383=ORIENTED_EDGE('',*,*,#303,.F.);
#384=ORIENTED_EDGE('',*,*,#304,.F.);
#385=ORIENTED_EDGE('',*,*,#305,.T.);
#386=ORIENTED_EDGE('',*,*,#304,.T.);
#387=ORIENTED_EDGE('',*,*,#306,.F.);
#388=ORIENTED_EDGE('',*,*,#307,.F.);
#389=ORIENTED_EDGE('',*,*,#308,.T.);
#390=ORIENTED_EDGE('',*,*,#307,.T.);
#391=ORIENTED_EDGE('',*,*,#309,.F.);
#392=ORIENTED_EDGE('',*,*,#310,.F.);
#393=ORIENTED_EDGE('',*,*,#311,.T.);
#394=ORIENTED_EDGE('',*,*,#310,.T.);
#395=ORIENTED_EDGE('',*,*,#312,.F.);
#396=ORIENTED_EDGE('',*,*,#313,.F.);
#397=ORIENTED_EDGE('',*,*,#314,.T.);
#398=ORIENTED_EDGE('',*,*,#313,.T.);
#399=ORIENTED_EDGE('',*,*,#315,.F.);
#400=ORIENTED_EDGE('',*,*,#316,.F.);
#401=ORIENTED_EDGE('',*,*,#317,.T.);
#402=ORIENTED_EDGE('',*,*,#316,.T.);
#403=ORIENTED_EDGE('',*,*,#318,.F.);
#404=ORIENTED_EDGE('',*,*,#319,.F.);
#405=ORIENTED_EDGE('',*,*,#320,.F.);
#406=ORIENTED_EDGE('',*,*,#319,.T.);
#407=ORIENTED_EDGE('',*,*,#321,.F.);
#408=ORIENTED_EDGE('',*,*,#322,.F.);
#409=ORIENTED_EDGE('',*,*,#323,.F.);
#410=ORIENTED_EDGE('',*,*,#322,.T.);
#411=ORIENTED_EDGE('',*,*,#324,.F.);
#412=ORIENTED_EDGE('',*,*,#325,.F.);
#413=ORIENTED_EDGE('',*,*,#326,.T.);
#414=ORIENTED_EDGE('',*,*,#325,.T.);
#415=ORIENTED_EDGE('',*,*,#327,.F.);
#416=ORIENTED_EDGE('',*,*,#328,.F.);
#417=ORIENTED_EDGE('',*,*,#329,.T.);
#418=ORIENTED_EDGE('',*,*,#328,.T.);
#419=ORIENTED_EDGE('',*,*,#330,.F.);
#420=ORIENTED_EDGE('',*,*,#331,.F.);
#421=ORIENTED_EDGE('',*,*,#332,.F.);
#422=ORIENTED_EDGE('',*,*,#331,.T.);
#423=ORIENTED_EDGE('',*,*,#333,.F.);
#424=ORIENTED_EDGE('',*,*,#275,.F.);
#425=ORIENTED_EDGE('',*,*,#333,.T.);
#426=ORIENTED_EDGE('',*,*,#330,.T.);
#427=ORIENTED_EDGE('',*,*,#327,.T.);
#428=ORIENTED_EDGE('',*,*,#324,.T.);
#429=ORIENTED_EDGE('',*,*,#321,.T.);
#430=ORIENTED_EDGE('',*,*,#318,.T.);
#431=ORIENTED_EDGE('',*,*,#315,.T.);
#432=ORIENTED_EDGE('',*,*,#312,.T.);
#433=ORIENTED_EDGE('',*,*,#309,.T.);
#434=ORIENTED_EDGE('',*,*,#306,.T.);
#435=ORIENTED_EDGE('',*,*,#303,.T.);
#436=ORIENTED_EDGE('',*,*,#300,.T.);
#437=ORIENTED_EDGE('',*,*,#297,.T.);
#438=ORIENTED_EDGE('',*,*,#294,.T.);
#439=ORIENTED_EDGE('',*,*,#291,.T.);
#440=ORIENTED_EDGE('',*,*,#288,.T.);
#441=ORIENTED_EDGE('',*,*,#285,.T.);
#442=ORIENTED_EDGE('',*,*,#282,.T.);
#443=ORIENTED_EDGE('',*,*,#279,.T.);
#444=ORIENTED_EDGE('',*,*,#276,.T.);
#445=ORIENTED_EDGE('',*,*,#273,.T.);
#446=ORIENTED_EDGE('',*,*,#332,.T.);
#447=ORIENTED_EDGE('',*,*,#274,.T.);
#448=ORIENTED_EDGE('',*,*,#278,.T.);
#449=ORIENTED_EDGE('',*,*,#281,.F.);
#450=ORIENTED_EDGE('',*,*,#284,.F.);
#451=ORIENTED_EDGE('',*,*,#287,.F.);
#452=ORIENTED_EDGE('',*,*,#290,.T.);
#453=ORIENTED_EDGE('',*,*,#293,.T.);
#454=ORIENTED_EDGE('',*,*,#296,.F.);
#455=ORIENTED_EDGE('',*,*,#299,.F.);
#456=ORIENTED_EDGE('',*,*,#302,.F.);
#457=ORIENTED_EDGE('',*,*,#305,.F.);
#458=ORIENTED_EDGE('',*,*,#308,.F.);
#459=ORIENTED_EDGE('',*,*,#311,.F.);
#460=ORIENTED_EDGE('',*,*,#314,.F.);
#461=ORIENTED_EDGE('',*,*,#317,.F.);
#462=ORIENTED_EDGE('',*,*,#320,.T.);
#463=ORIENTED_EDGE('',*,*,#323,.T.);
#464=ORIENTED_EDGE('',*,*,#326,.F.);
#465=ORIENTED_EDGE('',*,*,#329,.F.);
#466=CONICAL_SURFACE('',#507,2.,0.349065850398866);
#467=ADVANCED_FACE('',(#42),#466,.F.);
#468=ADVANCED_FACE('',(#43),#18,.T.);
#469=ADVANCED_FACE('',(#44),#17,.T.);
#470=ADVANCED_FACE('',(#45,#15),#19,.T.);
#471=ADVANCED_FACE('',(#46),#20,.T.);
#472=ADVANCED_FACE('',(#47),#21,.T.);
#473=ADVANCED_FACE('',(#48),#22,.T.);
#474=ADVANCED_FACE('',(#49),#23,.T.);
#475=ADVANCED_FACE('',(#50),#24,.T.);
#476=ADVANCED_FACE('',(#51),#25,.T.);
#477=ADVANCED_FACE('',(#52),#26,.T.);
#478=ADVANCED_FACE('',(#53),#27,.T.);
#479=ADVANCED_FACE('',(#54),#28,.T.);
#480=ADVANCED_FACE('',(#55),#29,.T.);
#481=ADVANCED_FACE('',(#56),#30,.T.);
#482=ADVANCED_FACE('',(#57),#31,.T.);
#483=ADVANCED_FACE('',(#58),#32,.T.);
#484=ADVANCED_FACE('',(#59),#33,.T.);
#485=ADVANCED_FACE('',(#60),#34,.T.);
#486=ADVANCED_FACE('',(#61),#35,.T.);
#487=ADVANCED_FACE('',(#62),#36,.T.);
#488=ADVANCED_FACE('',(#63),#37,.T.);
#489=ADVANCED_FACE('',(#64),#38,.T.);
#490=ADVANCED_FACE('',(#65),#39,.T.);
#491=ADVANCED_FACE('',(#66,#16),#40,.T.);
#492=ADVANCED_FACE('',(#67),#41,.F.);
#493=CLOSED_SHELL('',(#467,#468,#469,#470,#471,#472,#473,#474,#475,#476,
#477,#478,#479,#480,#481,#482,#483,#484,#485,#486,#487,#488,#489,#490,#491,
#492));
#494=DERIVED_UNIT_ELEMENT(#496,1.);
#495=DERIVED_UNIT_ELEMENT(#803,-3.);
#496=(
MASS_UNIT()
NAMED_UNIT(*)
SI_UNIT(.KILO.,.GRAM.)
);
#497=DERIVED_UNIT((#494,#495));
#498=MEASURE_REPRESENTATION_ITEM('density measure',
POSITIVE_RATIO_MEASURE(7850.),#497);
#499=PROPERTY_DEFINITION_REPRESENTATION(#504,#501);
#500=PROPERTY_DEFINITION_REPRESENTATION(#505,#502);
#501=REPRESENTATION('material name',(#503),#800);
#502=REPRESENTATION('density',(#498),#800);
#503=DESCRIPTIVE_REPRESENTATION_ITEM('Steel','Steel');
#504=PROPERTY_DEFINITION('material property','material name',#810);
#505=PROPERTY_DEFINITION('material property','density of part',#810);
#506=AXIS2_PLACEMENT_3D('',#661,#537,#538);
#507=AXIS2_PLACEMENT_3D('',#662,#539,#540);
#508=AXIS2_PLACEMENT_3D('',#664,#541,#542);
#509=AXIS2_PLACEMENT_3D('',#667,#544,#545);
#510=AXIS2_PLACEMENT_3D('',#668,#546,#547);
#511=AXIS2_PLACEMENT_3D('',#669,#548,#549);
#512=AXIS2_PLACEMENT_3D('',#671,#550,#551);
#513=AXIS2_PLACEMENT_3D('',#674,#553,#554);
#514=AXIS2_PLACEMENT_3D('',#675,#555,#556);
#515=AXIS2_PLACEMENT_3D('',#676,#557,#558);
#516=AXIS2_PLACEMENT_3D('',#685,#563,#564);
#517=AXIS2_PLACEMENT_3D('',#691,#568,#569);
#518=AXIS2_PLACEMENT_3D('',#697,#573,#574);
#519=AXIS2_PLACEMENT_3D('',#703,#578,#579);
#520=AXIS2_PLACEMENT_3D('',#709,#583,#584);
#521=AXIS2_PLACEMENT_3D('',#715,#588,#589);
#522=AXIS2_PLACEMENT_3D('',#721,#593,#594);
#523=AXIS2_PLACEMENT_3D('',#727,#598,#599);
#524=AXIS2_PLACEMENT_3D('',#733,#603,#604);
#525=AXIS2_PLACEMENT_3D('',#739,#608,#609);
#526=AXIS2_PLACEMENT_3D('',#745,#613,#614);
#527=AXIS2_PLACEMENT_3D('',#751,#618,#619);
#528=AXIS2_PLACEMENT_3D('',#757,#623,#624);
#529=AXIS2_PLACEMENT_3D('',#763,#628,#629);
#530=AXIS2_PLACEMENT_3D('',#769,#633,#634);
#531=AXIS2_PLACEMENT_3D('',#775,#638,#639);
#532=AXIS2_PLACEMENT_3D('',#781,#643,#644);
#533=AXIS2_PLACEMENT_3D('',#787,#648,#649);
#534=AXIS2_PLACEMENT_3D('',#793,#653,#654);
#535=AXIS2_PLACEMENT_3D('',#796,#657,#658);
#536=AXIS2_PLACEMENT_3D('',#797,#659,#660);
#537=DIRECTION('axis',(0.,0.,1.));
#538=DIRECTION('refdir',(1.,0.,0.));
#539=DIRECTION('center_axis',(0.,0.,1.));
#540=DIRECTION('ref_axis',(-1.,0.,0.));
#541=DIRECTION('center_axis',(0.,0.,1.));
#542=DIRECTION('ref_axis',(-1.,0.,0.));
#543=DIRECTION('',(0.342020143325669,4.18853873767699E-17,0.939692620785908));
#544=DIRECTION('center_axis',(0.,0.,-1.));
#545=DIRECTION('ref_axis',(-1.,0.,0.));
#546=DIRECTION('center_axis',(0.,0.,1.));
#547=DIRECTION('ref_axis',(-1.,0.,0.));
#548=DIRECTION('center_axis',(0.,0.,1.));
#549=DIRECTION('ref_axis',(1.,0.,0.));
#550=DIRECTION('center_axis',(0.,0.,1.));
#551=DIRECTION('ref_axis',(1.,0.,0.));
#552=DIRECTION('',(0.,0.,-1.));
#553=DIRECTION('center_axis',(0.,0.,-1.));
#554=DIRECTION('ref_axis',(1.,0.,0.));
#555=DIRECTION('center_axis',(0.,0.,1.));
#556=DIRECTION('ref_axis',(1.,0.,0.));
#557=DIRECTION('center_axis',(-2.3136812727136E-9,-1.,0.));
#558=DIRECTION('ref_axis',(1.,-2.3136812727136E-9,0.));
#559=DIRECTION('',(-1.,2.3136812727136E-9,0.));
#560=DIRECTION('',(0.,0.,1.));
#561=DIRECTION('',(1.,-2.3136812727136E-9,0.));
#562=DIRECTION('',(0.,0.,1.));
#563=DIRECTION('center_axis',(1.,-2.31368072848663E-9,0.));
#564=DIRECTION('ref_axis',(2.31368072848663E-9,1.,0.));
#565=DIRECTION('',(-2.31368072848663E-9,-1.,0.));
#566=DIRECTION('',(2.31368072848663E-9,1.,0.));
#567=DIRECTION('',(0.,0.,1.));
#568=DIRECTION('center_axis',(8.49923583847116E-9,-1.,0.));
#569=DIRECTION('ref_axis',(1.,8.49923583847116E-9,0.));
#570=DIRECTION('',(1.,8.49923583847116E-9,0.));
#571=DIRECTION('',(1.,8.49923583847116E-9,0.));
#572=DIRECTION('',(0.,0.,1.));
#573=DIRECTION('center_axis',(-1.,-5.63472708921634E-24,0.));
#574=DIRECTION('ref_axis',(5.63472708921634E-24,-1.,0.));
#575=DIRECTION('',(5.63472708921634E-24,-1.,0.));
#576=DIRECTION('',(5.63472708921634E-24,-1.,0.));
#577=DIRECTION('',(0.,0.,1.));
#578=DIRECTION('center_axis',(-3.82835525634301E-16,-1.,0.));
#579=DIRECTION('ref_axis',(1.,-3.82835525634301E-16,0.));
#580=DIRECTION('',(1.,-3.82835525634301E-16,0.));
#581=DIRECTION('',(1.,-3.82835525634301E-16,0.));
#582=DIRECTION('',(0.,0.,1.));
#583=DIRECTION('center_axis',(-1.,4.1233128023066E-11,0.));
#584=DIRECTION('ref_axis',(-4.1233128023066E-11,-1.,0.));
#585=DIRECTION('',(4.1233128023066E-11,1.,0.));
#586=DIRECTION('',(-4.1233128023066E-11,-1.,0.));
#587=DIRECTION('',(0.,0.,1.));
#588=DIRECTION('center_axis',(0.,1.,0.));
#589=DIRECTION('ref_axis',(-1.,0.,0.));
#590=DIRECTION('',(1.,0.,0.));
#591=DIRECTION('',(-1.,0.,0.));
#592=DIRECTION('',(0.,0.,1.));
#593=DIRECTION('center_axis',(-1.,-1.05942040742539E-15,0.));
#594=DIRECTION('ref_axis',(1.05942040742539E-15,-1.,0.));
#595=DIRECTION('',(1.05942040742539E-15,-1.,0.));
#596=DIRECTION('',(1.05942040742539E-15,-1.,0.));
#597=DIRECTION('',(0.,0.,1.));
#598=DIRECTION('center_axis',(0.,1.,0.));
#599=DIRECTION('ref_axis',(-1.,0.,0.));
#600=DIRECTION('',(-1.,0.,0.));
#601=DIRECTION('',(-1.,0.,0.));
#602=DIRECTION('',(0.,0.,1.));
#603=DIRECTION('center_axis',(1.,0.,0.));
#604=DIRECTION('ref_axis',(0.,1.,0.));
#605=DIRECTION('',(0.,1.,0.));
#606=DIRECTION('',(0.,1.,0.));
#607=DIRECTION('',(0.,0.,1.));
#608=DIRECTION('center_axis',(0.,1.,0.));
#609=DIRECTION('ref_axis',(-1.,0.,0.));
#610=DIRECTION('',(-1.,0.,0.));
#611=DIRECTION('',(-1.,0.,0.));
#612=DIRECTION('',(0.,0.,1.));
#613=DIRECTION('center_axis',(-1.,0.,0.));
#614=DIRECTION('ref_axis',(0.,-1.,0.));
#615=DIRECTION('',(0.,-1.,0.));
#616=DIRECTION('',(0.,-1.,0.));
#617=DIRECTION('',(0.,0.,1.));
#618=DIRECTION('center_axis',(0.,1.,0.));
#619=DIRECTION('ref_axis',(-1.,0.,0.));
#620=DIRECTION('',(-1.,0.,0.));
#621=DIRECTION('',(-1.,0.,0.));
#622=DIRECTION('',(0.,0.,1.));
#623=DIRECTION('center_axis',(1.,6.34413156928661E-16,0.));
#624=DIRECTION('ref_axis',(-6.34413156928661E-16,1.,0.));
#625=DIRECTION('',(-6.34413156928661E-16,1.,0.));
#626=DIRECTION('',(-6.34413156928661E-16,1.,0.));
#627=DIRECTION('',(0.,0.,1.));
#628=DIRECTION('center_axis',(0.,1.,0.));
#629=DIRECTION('ref_axis',(-1.,0.,0.));
#630=DIRECTION('',(-1.,0.,0.));
#631=DIRECTION('',(-1.,0.,0.));
#632=DIRECTION('',(0.,0.,1.));
#633=DIRECTION('center_axis',(1.,0.,0.));
#634=DIRECTION('ref_axis',(0.,1.,0.));
#635=DIRECTION('',(0.,-1.,0.));
#636=DIRECTION('',(0.,1.,0.));
#637=DIRECTION('',(0.,0.,1.));
#638=DIRECTION('center_axis',(0.,-1.,0.));
#639=DIRECTION('ref_axis',(1.,0.,0.));
#640=DIRECTION('',(-1.,0.,0.));
#641=DIRECTION('',(1.,0.,0.));
#642=DIRECTION('',(0.,0.,1.));
#643=DIRECTION('center_axis',(1.,0.,0.));
#644=DIRECTION('ref_axis',(0.,1.,0.));
#645=DIRECTION('',(0.,1.,0.));
#646=DIRECTION('',(0.,1.,0.));
#647=DIRECTION('',(0.,0.,1.));
#648=DIRECTION('center_axis',(-3.68300127188337E-9,-1.,0.));
#649=DIRECTION('ref_axis',(1.,-3.68300127188337E-9,0.));
#650=DIRECTION('',(1.,-3.68300127188337E-9,0.));
#651=DIRECTION('',(1.,-3.68300127188337E-9,0.));
#652=DIRECTION('',(0.,0.,1.));
#653=DIRECTION('center_axis',(-1.,2.31368072848663E-9,0.));
#654=DIRECTION('ref_axis',(-2.31368072848663E-9,-1.,0.));
#655=DIRECTION('',(2.31368072848663E-9,1.,0.));
#656=DIRECTION('',(-2.31368072848663E-9,-1.,0.));
#657=DIRECTION('center_axis',(0.,0.,1.));
#658=DIRECTION('ref_axis',(1.,0.,0.));
#659=DIRECTION('center_axis',(0.,0.,1.));
#660=DIRECTION('ref_axis',(1.,0.,0.));
#661=CARTESIAN_POINT('',(0.,0.,0.));
#662=CARTESIAN_POINT('Origin',(5.,7.,9.2));
#663=CARTESIAN_POINT('',(5.79889822692153,7.,5.9));
#664=CARTESIAN_POINT('Origin',(5.,7.,5.9));
#665=CARTESIAN_POINT('',(7.,7.,9.2));
#666=CARTESIAN_POINT('',(7.,7.,9.2));
#667=CARTESIAN_POINT('Origin',(5.,7.,9.2));
#668=CARTESIAN_POINT('Origin',(5.,7.,5.9));
#669=CARTESIAN_POINT('Origin',(5.,7.,0.));
#670=CARTESIAN_POINT('',(2.8,7.,9.2));
#671=CARTESIAN_POINT('Origin',(5.,7.,9.2));
#672=CARTESIAN_POINT('',(2.8,7.,1.2));
#673=CARTESIAN_POINT('',(2.8,7.,0.));
#674=CARTESIAN_POINT('Origin',(5.,7.,1.2));
#675=CARTESIAN_POINT('Origin',(5.,7.,9.2));
#676=CARTESIAN_POINT('Origin',(2.44999998658065,1.20000002082313,0.));
#677=CARTESIAN_POINT('',(7.54999998658065,1.20000000902335,0.));
#678=CARTESIAN_POINT('',(2.44999998658065,1.20000002082313,0.));
#679=CARTESIAN_POINT('',(7.54999998658065,1.20000000902335,0.));
#680=CARTESIAN_POINT('',(7.54999998658065,1.20000000902335,1.2));
#681=CARTESIAN_POINT('',(7.54999998658065,1.20000000902335,0.));
#682=CARTESIAN_POINT('',(2.44999998658065,1.20000002082313,1.2));
#683=CARTESIAN_POINT('',(7.54999998658065,1.20000000902335,1.2));
#684=CARTESIAN_POINT('',(2.44999998658065,1.20000002082313,0.));
#685=CARTESIAN_POINT('Origin',(2.44999998380423,2.08231276666027E-8,0.));
#686=CARTESIAN_POINT('',(2.44999998380423,2.08231276666027E-8,0.));
#687=CARTESIAN_POINT('',(2.44999998658065,1.20000002082313,0.));
#688=CARTESIAN_POINT('',(2.44999998380423,2.08231276666027E-8,1.2));
#689=CARTESIAN_POINT('',(2.44999998658065,1.20000002082313,1.2));
#690=CARTESIAN_POINT('',(2.44999998380423,2.08231276666027E-8,0.));
#691=CARTESIAN_POINT('Origin',(0.,0.,0.));
#692=CARTESIAN_POINT('',(0.,0.,0.));
#693=CARTESIAN_POINT('',(0.,0.,0.));
#694=CARTESIAN_POINT('',(0.,0.,1.2));
#695=CARTESIAN_POINT('',(0.,0.,1.2));
#696=CARTESIAN_POINT('',(0.,0.,0.));
#697=CARTESIAN_POINT('Origin',(-1.97215448963456E-23,3.50000001492324,0.));
#698=CARTESIAN_POINT('',(-1.97215448963456E-23,3.50000001492324,0.));
#699=CARTESIAN_POINT('',(-1.97215448963456E-23,3.50000001492324,0.));
#700=CARTESIAN_POINT('',(0.,3.50000001492324,1.2));
#701=CARTESIAN_POINT('',(-1.97215448963456E-23,3.50000001492324,1.2));
#702=CARTESIAN_POINT('',(-1.97215448963456E-23,3.50000001492324,0.));
#703=CARTESIAN_POINT('Origin',(-1.45000000037311,3.50000001492324,0.));
#704=CARTESIAN_POINT('',(-1.45000000037311,3.50000001492324,0.));
#705=CARTESIAN_POINT('',(-1.45000000037311,3.50000001492324,0.));
#706=CARTESIAN_POINT('',(-1.45000000037312,3.50000001492324,1.2));
#707=CARTESIAN_POINT('',(-1.45000000037311,3.50000001492324,1.2));
#708=CARTESIAN_POINT('',(-1.45000000037311,3.50000001492324,0.));
#709=CARTESIAN_POINT('Origin',(-1.45,10.5000000149232,0.));
#710=CARTESIAN_POINT('',(-1.45,10.5000000149232,0.));
#711=CARTESIAN_POINT('',(-1.45000000014431,7.00000001492324,0.));
#712=CARTESIAN_POINT('',(-1.45,10.5000000149232,1.2));
#713=CARTESIAN_POINT('',(-1.45000000014431,7.00000001492324,1.2));
#714=CARTESIAN_POINT('',(-1.45,10.5000000149232,0.));
#715=CARTESIAN_POINT('Origin',(3.60822483003176E-15,10.5000000149232,0.));
#716=CARTESIAN_POINT('',(3.70797141017888E-15,10.5000000149232,0.));
#717=CARTESIAN_POINT('',(-1.45,10.5000000149232,0.));
#718=CARTESIAN_POINT('',(3.88578058618805E-15,10.5000000149232,1.2));
#719=CARTESIAN_POINT('',(-1.45,10.5000000149232,1.2));
#720=CARTESIAN_POINT('',(3.70797141017888E-15,10.5000000149232,0.));
#721=CARTESIAN_POINT('Origin',(0.,14.,0.));
#722=CARTESIAN_POINT('',(0.,14.,0.));
#723=CARTESIAN_POINT('',(0.,14.,0.));
#724=CARTESIAN_POINT('',(0.,14.,1.2));
#725=CARTESIAN_POINT('',(0.,14.,1.2));
#726=CARTESIAN_POINT('',(0.,14.,0.));
#727=CARTESIAN_POINT('Origin',(2.45,14.,0.));
#728=CARTESIAN_POINT('',(2.45,14.,0.));
#729=CARTESIAN_POINT('',(2.45,14.,0.));
#730=CARTESIAN_POINT('',(2.45,14.,1.2));
#731=CARTESIAN_POINT('',(2.45,14.,1.2));
#732=CARTESIAN_POINT('',(2.45,14.,0.));
#733=CARTESIAN_POINT('Origin',(2.45,12.8,0.));
#734=CARTESIAN_POINT('',(2.45,12.8,0.));
#735=CARTESIAN_POINT('',(2.45,12.8,0.));
#736=CARTESIAN_POINT('',(2.45,12.8,1.2));
#737=CARTESIAN_POINT('',(2.45,12.8,1.2));
#738=CARTESIAN_POINT('',(2.45,12.8,0.));
#739=CARTESIAN_POINT('Origin',(7.55,12.8,0.));
#740=CARTESIAN_POINT('',(7.55,12.8,0.));
#741=CARTESIAN_POINT('',(7.55,12.8,0.));
#742=CARTESIAN_POINT('',(7.55,12.8,1.2));
#743=CARTESIAN_POINT('',(7.55,12.8,1.2));
#744=CARTESIAN_POINT('',(7.55,12.8,0.));
#745=CARTESIAN_POINT('Origin',(7.55,14.,0.));
#746=CARTESIAN_POINT('',(7.55,14.,0.));
#747=CARTESIAN_POINT('',(7.55,14.,0.));
#748=CARTESIAN_POINT('',(7.55,14.,1.2));
#749=CARTESIAN_POINT('',(7.55,14.,1.2));
#750=CARTESIAN_POINT('',(7.55,14.,0.));
#751=CARTESIAN_POINT('Origin',(10.,14.,0.));
#752=CARTESIAN_POINT('',(10.,14.,0.));
#753=CARTESIAN_POINT('',(10.,14.,0.));
#754=CARTESIAN_POINT('',(10.,14.,1.2));
#755=CARTESIAN_POINT('',(10.,14.,1.2));
#756=CARTESIAN_POINT('',(10.,14.,0.));
#757=CARTESIAN_POINT('Origin',(10.,10.5,0.));
#758=CARTESIAN_POINT('',(10.,10.5,0.));
#759=CARTESIAN_POINT('',(10.,10.5,0.));
#760=CARTESIAN_POINT('',(10.,10.5,1.2));
#761=CARTESIAN_POINT('',(10.,10.5,1.2));
#762=CARTESIAN_POINT('',(10.,10.5,0.));
#763=CARTESIAN_POINT('Origin',(11.45,10.5,0.));
#764=CARTESIAN_POINT('',(11.45,10.5,0.));
#765=CARTESIAN_POINT('',(11.45,10.5,0.));
#766=CARTESIAN_POINT('',(11.45,10.5,1.2));
#767=CARTESIAN_POINT('',(11.45,10.5,1.2));
#768=CARTESIAN_POINT('',(11.45,10.5,0.));
#769=CARTESIAN_POINT('Origin',(11.45,3.50000005215406,0.));
#770=CARTESIAN_POINT('',(11.45,3.50000005215406,0.));
#771=CARTESIAN_POINT('',(11.45,7.,0.));
#772=CARTESIAN_POINT('',(11.45,3.50000005215406,1.2));
#773=CARTESIAN_POINT('',(11.45,7.,1.2));
#774=CARTESIAN_POINT('',(11.45,3.50000005215406,0.));
#775=CARTESIAN_POINT('Origin',(10.,3.50000005215406,0.));
#776=CARTESIAN_POINT('',(10.,3.50000005215406,0.));
#777=CARTESIAN_POINT('',(11.45,3.50000005215406,0.));
#778=CARTESIAN_POINT('',(10.,3.50000005215406,1.2));
#779=CARTESIAN_POINT('',(11.45,3.50000005215406,1.2));
#780=CARTESIAN_POINT('',(10.,3.50000005215406,0.));
#781=CARTESIAN_POINT('Origin',(10.,0.,0.));
#782=CARTESIAN_POINT('',(10.,0.,0.));
#783=CARTESIAN_POINT('',(10.,0.,0.));
#784=CARTESIAN_POINT('',(10.,0.,1.2));
#785=CARTESIAN_POINT('',(10.,0.,1.2));
#786=CARTESIAN_POINT('',(10.,0.,0.));
#787=CARTESIAN_POINT('Origin',(7.54999998380423,9.0233531757633E-9,0.));
#788=CARTESIAN_POINT('',(7.54999998380423,9.0233531757633E-9,0.));
#789=CARTESIAN_POINT('',(7.54999998380423,9.0233531757633E-9,0.));
#790=CARTESIAN_POINT('',(7.54999998380423,9.0233531757633E-9,1.2));
#791=CARTESIAN_POINT('',(7.54999998380423,9.0233531757633E-9,1.2));
#792=CARTESIAN_POINT('',(7.54999998380423,9.0233531757633E-9,0.));
#793=CARTESIAN_POINT('Origin',(7.54999998658065,1.20000000902335,0.));
#794=CARTESIAN_POINT('',(7.54999998380423,9.0233531757633E-9,0.));
#795=CARTESIAN_POINT('',(7.54999998380423,9.0233531757633E-9,1.2));
#796=CARTESIAN_POINT('Origin',(4.99999999981344,7.,1.2));
#797=CARTESIAN_POINT('Origin',(4.99999999981344,7.,0.));
#798=UNCERTAINTY_MEASURE_WITH_UNIT(LENGTH_MEASURE(0.01),#802,
'DISTANCE_ACCURACY_VALUE',
'Maximum model space distance between geometric entities at asserted c
onnectivities');
#799=UNCERTAINTY_MEASURE_WITH_UNIT(LENGTH_MEASURE(0.01),#802,
'DISTANCE_ACCURACY_VALUE',
'Maximum model space distance between geometric entities at asserted c
onnectivities');
#800=(
GEOMETRIC_REPRESENTATION_CONTEXT(3)
GLOBAL_UNCERTAINTY_ASSIGNED_CONTEXT((#798))
GLOBAL_UNIT_ASSIGNED_CONTEXT((#802,#804,#805))
REPRESENTATION_CONTEXT('','3D')
);
#801=(
GEOMETRIC_REPRESENTATION_CONTEXT(3)
GLOBAL_UNCERTAINTY_ASSIGNED_CONTEXT((#799))
GLOBAL_UNIT_ASSIGNED_CONTEXT((#802,#804,#805))
REPRESENTATION_CONTEXT('','3D')
);
#802=(
LENGTH_UNIT()
NAMED_UNIT(*)
SI_UNIT(.MILLI.,.METRE.)
);
#803=(
LENGTH_UNIT()
NAMED_UNIT(*)
SI_UNIT($,.METRE.)
);
#804=(
NAMED_UNIT(*)
PLANE_ANGLE_UNIT()
SI_UNIT($,.RADIAN.)
);
#805=(
NAMED_UNIT(*)
SI_UNIT($,.STERADIAN.)
SOLID_ANGLE_UNIT()
);
#806=SHAPE_DEFINITION_REPRESENTATION(#807,#808);
#807=PRODUCT_DEFINITION_SHAPE('',$,#810);
#808=SHAPE_REPRESENTATION('',(#506),#800);
#809=PRODUCT_DEFINITION_CONTEXT('part definition',#814,'design');
#810=PRODUCT_DEFINITION('#2 part 5 long coil part',
'#2 part 5 long coil part v1',#811,#809);
#811=PRODUCT_DEFINITION_FORMATION('',$,#816);
#812=PRODUCT_RELATED_PRODUCT_CATEGORY('#2 part 5 long coil part v1',
'#2 part 5 long coil part v1',(#816));
#813=APPLICATION_PROTOCOL_DEFINITION('international standard',
'automotive_design',2009,#814);
#814=APPLICATION_CONTEXT(
'Core Data for Automotive Mechanical Design Process');
#815=PRODUCT_CONTEXT('part definition',#814,'mechanical');
#816=PRODUCT('#2 part 5 long coil part','#2 part 5 long coil part v1',$,
(#815));
#817=PRESENTATION_STYLE_ASSIGNMENT((#819));
#818=PRESENTATION_STYLE_ASSIGNMENT((#820));
#819=SURFACE_STYLE_USAGE(.BOTH.,#821);
#820=SURFACE_STYLE_USAGE(.BOTH.,#822);
#821=SURFACE_SIDE_STYLE('',(#823));
#822=SURFACE_SIDE_STYLE('',(#824));
#823=SURFACE_STYLE_FILL_AREA(#825);
#824=SURFACE_STYLE_FILL_AREA(#826);
#825=FILL_AREA_STYLE('Steel - Satin',(#827));
#826=FILL_AREA_STYLE('Opaque(160,160,160)',(#828));
#827=FILL_AREA_STYLE_COLOUR('Steel - Satin',#829);
#828=FILL_AREA_STYLE_COLOUR('Opaque(160,160,160)',#830);
#829=COLOUR_RGB('Steel - Satin',0.627450980392157,0.627450980392157,0.627450980392157);
#830=COLOUR_RGB('Opaque(160,160,160)',0.627450980392157,0.627450980392157,
0.627450980392157);
ENDSEC;
END-ISO-10303-21;
