ISO-10303-21;
HEADER;
/* Generated by software containing ST-Developer
 * from STEP Tools, Inc. (www.steptools.com) 
 */

FILE_DESCRIPTION(
/* description */ (''),
/* implementation_level */ '2;1');

FILE_NAME(
/* name */ '#2 part  long coil .step',
/* time_stamp */ '2023-07-05T12:03:33+05:30',
/* author */ (''),
/* organization */ (''),
/* preprocessor_version */ 'ST-DEVELOPER v19.2',
/* originating_system */ 'Autodesk Translation Framework v12.6.0.85',
/* authorisation */ '');

FILE_SCHEMA (('AUTOMOTIVE_DESIGN { 1 0 10303 214 3 1 1 }'));
ENDSEC;

DATA;
#10=MECHANICAL_DESIGN_GEOMETRIC_PRESENTATION_REPRESENTATION('',(#13),#1379);
#11=SHAPE_REPRESENTATION_RELATIONSHIP('SRR','None',#1386,#12);
#12=ADVANCED_BREP_SHAPE_REPRESENTATION('',(#14),#1378);
#13=STYLED_ITEM('',(#1396),#14);
#14=MANIFOLD_SOLID_BREP('Body1',#811);
#15=CYLINDRICAL_SURFACE('',#831,2.25);
#16=CYLINDRICAL_SURFACE('',#870,0.350000000000001);
#17=CYLINDRICAL_SURFACE('',#873,0.35);
#18=CYLINDRICAL_SURFACE('',#877,0.35);
#19=CYLINDRICAL_SURFACE('',#880,0.35);
#20=CYLINDRICAL_SURFACE('',#888,4.75);
#21=CYLINDRICAL_SURFACE('',#889,4.);
#22=CYLINDRICAL_SURFACE('',#890,0.349999999999999);
#23=CYLINDRICAL_SURFACE('',#894,0.349999999999997);
#24=CYLINDRICAL_SURFACE('',#897,0.349999999999997);
#25=CYLINDRICAL_SURFACE('',#901,0.35);
#26=FACE_BOUND('',#108,.T.);
#27=FACE_BOUND('',#141,.T.);
#28=FACE_BOUND('',#143,.T.);
#29=FACE_BOUND('',#157,.T.);
#30=PLANE('',#829);
#31=PLANE('',#833);
#32=PLANE('',#834);
#33=PLANE('',#835);
#34=PLANE('',#839);
#35=PLANE('',#843);
#36=PLANE('',#844);
#37=PLANE('',#848);
#38=PLANE('',#852);
#39=PLANE('',#856);
#40=PLANE('',#860);
#41=PLANE('',#864);
#42=PLANE('',#868);
#43=PLANE('',#869);
#44=PLANE('',#872);
#45=PLANE('',#875);
#46=PLANE('',#876);
#47=PLANE('',#879);
#48=PLANE('',#882);
#49=PLANE('',#883);
#50=PLANE('',#885);
#51=PLANE('',#892);
#52=PLANE('',#893);
#53=PLANE('',#896);
#54=PLANE('',#899);
#55=PLANE('',#900);
#56=PLANE('',#903);
#57=PLANE('',#904);
#58=FACE_OUTER_BOUND('',#106,.T.);
#59=FACE_OUTER_BOUND('',#107,.T.);
#60=FACE_OUTER_BOUND('',#109,.T.);
#61=FACE_OUTER_BOUND('',#110,.T.);
#62=FACE_OUTER_BOUND('',#111,.T.);
#63=FACE_OUTER_BOUND('',#112,.T.);
#64=FACE_OUTER_BOUND('',#113,.T.);
#65=FACE_OUTER_BOUND('',#114,.T.);
#66=FACE_OUTER_BOUND('',#115,.T.);
#67=FACE_OUTER_BOUND('',#116,.T.);
#68=FACE_OUTER_BOUND('',#117,.T.);
#69=FACE_OUTER_BOUND('',#118,.T.);
#70=FACE_OUTER_BOUND('',#119,.T.);
#71=FACE_OUTER_BOUND('',#120,.T.);
#72=FACE_OUTER_BOUND('',#121,.T.);
#73=FACE_OUTER_BOUND('',#122,.T.);
#74=FACE_OUTER_BOUND('',#123,.T.);
#75=FACE_OUTER_BOUND('',#124,.T.);
#76=FACE_OUTER_BOUND('',#125,.T.);
#77=FACE_OUTER_BOUND('',#126,.T.);
#78=FACE_OUTER_BOUND('',#127,.T.);
#79=FACE_OUTER_BOUND('',#128,.T.);
#80=FACE_OUTER_BOUND('',#129,.T.);
#81=FACE_OUTER_BOUND('',#130,.T.);
#82=FACE_OUTER_BOUND('',#131,.T.);
#83=FACE_OUTER_BOUND('',#132,.T.);
#84=FACE_OUTER_BOUND('',#133,.T.);
#85=FACE_OUTER_BOUND('',#134,.T.);
#86=FACE_OUTER_BOUND('',#135,.T.);
#87=FACE_OUTER_BOUND('',#136,.T.);
#88=FACE_OUTER_BOUND('',#137,.T.);
#89=FACE_OUTER_BOUND('',#138,.T.);
#90=FACE_OUTER_BOUND('',#139,.T.);
#91=FACE_OUTER_BOUND('',#140,.T.);
#92=FACE_OUTER_BOUND('',#142,.T.);
#93=FACE_OUTER_BOUND('',#144,.T.);
#94=FACE_OUTER_BOUND('',#145,.T.);
#95=FACE_OUTER_BOUND('',#146,.T.);
#96=FACE_OUTER_BOUND('',#147,.T.);
#97=FACE_OUTER_BOUND('',#148,.T.);
#98=FACE_OUTER_BOUND('',#149,.T.);
#99=FACE_OUTER_BOUND('',#150,.T.);
#100=FACE_OUTER_BOUND('',#151,.T.);
#101=FACE_OUTER_BOUND('',#152,.T.);
#102=FACE_OUTER_BOUND('',#153,.T.);
#103=FACE_OUTER_BOUND('',#154,.T.);
#104=FACE_OUTER_BOUND('',#155,.T.);
#105=FACE_OUTER_BOUND('',#156,.T.);
#106=EDGE_LOOP('',(#530,#531,#532,#533,#534));
#107=EDGE_LOOP('',(#535));
#108=EDGE_LOOP('',(#536));
#109=EDGE_LOOP('',(#537,#538,#539,#540,#541));
#110=EDGE_LOOP('',(#542,#543,#544,#545));
#111=EDGE_LOOP('',(#546,#547,#548,#549));
#112=EDGE_LOOP('',(#550,#551,#552,#553));
#113=EDGE_LOOP('',(#554,#555,#556,#557));
#114=EDGE_LOOP('',(#558,#559,#560,#561));
#115=EDGE_LOOP('',(#562,#563,#564,#565));
#116=EDGE_LOOP('',(#566,#567,#568,#569));
#117=EDGE_LOOP('',(#570,#571,#572,#573));
#118=EDGE_LOOP('',(#574,#575,#576,#577));
#119=EDGE_LOOP('',(#578,#579,#580,#581));
#120=EDGE_LOOP('',(#582,#583,#584,#585));
#121=EDGE_LOOP('',(#586,#587,#588,#589));
#122=EDGE_LOOP('',(#590,#591,#592,#593));
#123=EDGE_LOOP('',(#594,#595,#596,#597));
#124=EDGE_LOOP('',(#598,#599,#600,#601));
#125=EDGE_LOOP('',(#602,#603,#604,#605));
#126=EDGE_LOOP('',(#606,#607,#608,#609));
#127=EDGE_LOOP('',(#610,#611,#612,#613));
#128=EDGE_LOOP('',(#614,#615,#616,#617));
#129=EDGE_LOOP('',(#618,#619,#620,#621));
#130=EDGE_LOOP('',(#622,#623,#624,#625));
#131=EDGE_LOOP('',(#626,#627,#628,#629));
#132=EDGE_LOOP('',(#630,#631,#632,#633));
#133=EDGE_LOOP('',(#634,#635,#636,#637));
#134=EDGE_LOOP('',(#638,#639,#640,#641));
#135=EDGE_LOOP('',(#642,#643,#644,#645));
#136=EDGE_LOOP('',(#646,#647,#648,#649));
#137=EDGE_LOOP('',(#650,#651,#652,#653));
#138=EDGE_LOOP('',(#654,#655,#656,#657));
#139=EDGE_LOOP('',(#658,#659,#660,#661));
#140=EDGE_LOOP('',(#662,#663,#664,#665,#666,#667,#668,#669,#670,#671,#672,
#673,#674,#675,#676,#677,#678,#679,#680,#681));
#141=EDGE_LOOP('',(#682));
#142=EDGE_LOOP('',(#683));
#143=EDGE_LOOP('',(#684));
#144=EDGE_LOOP('',(#685,#686,#687,#688));
#145=EDGE_LOOP('',(#689,#690,#691,#692));
#146=EDGE_LOOP('',(#693,#694,#695,#696));
#147=EDGE_LOOP('',(#697,#698,#699,#700));
#148=EDGE_LOOP('',(#701,#702,#703,#704));
#149=EDGE_LOOP('',(#705,#706,#707,#708));
#150=EDGE_LOOP('',(#709,#710,#711,#712));
#151=EDGE_LOOP('',(#713,#714,#715,#716));
#152=EDGE_LOOP('',(#717,#718,#719,#720));
#153=EDGE_LOOP('',(#721,#722,#723,#724));
#154=EDGE_LOOP('',(#725,#726,#727,#728));
#155=EDGE_LOOP('',(#729,#730,#731,#732));
#156=EDGE_LOOP('',(#733,#734,#735,#736,#737,#738,#739,#740,#741,#742,#743,
#744,#745,#746,#747,#748,#749,#750,#751,#752));
#157=EDGE_LOOP('',(#753));
#158=LINE('',#1153,#238);
#159=LINE('',#1162,#239);
#160=LINE('',#1166,#240);
#161=LINE('',#1168,#241);
#162=LINE('',#1170,#242);
#163=LINE('',#1171,#243);
#164=LINE('',#1175,#244);
#165=LINE('',#1177,#245);
#166=LINE('',#1179,#246);
#167=LINE('',#1180,#247);
#168=LINE('',#1184,#248);
#169=LINE('',#1186,#249);
#170=LINE('',#1188,#250);
#171=LINE('',#1189,#251);
#172=LINE('',#1193,#252);
#173=LINE('',#1199,#253);
#174=LINE('',#1200,#254);
#175=LINE('',#1201,#255);
#176=LINE('',#1205,#256);
#177=LINE('',#1209,#257);
#178=LINE('',#1210,#258);
#179=LINE('',#1214,#259);
#180=LINE('',#1216,#260);
#181=LINE('',#1218,#261);
#182=LINE('',#1219,#262);
#183=LINE('',#1223,#263);
#184=LINE('',#1229,#264);
#185=LINE('',#1230,#265);
#186=LINE('',#1231,#266);
#187=LINE('',#1235,#267);
#188=LINE('',#1239,#268);
#189=LINE('',#1240,#269);
#190=LINE('',#1244,#270);
#191=LINE('',#1250,#271);
#192=LINE('',#1251,#272);
#193=LINE('',#1252,#273);
#194=LINE('',#1256,#274);
#195=LINE('',#1260,#275);
#196=LINE('',#1261,#276);
#197=LINE('',#1265,#277);
#198=LINE('',#1271,#278);
#199=LINE('',#1272,#279);
#200=LINE('',#1273,#280);
#201=LINE('',#1277,#281);
#202=LINE('',#1281,#282);
#203=LINE('',#1282,#283);
#204=LINE('',#1285,#284);
#205=LINE('',#1287,#285);
#206=LINE('',#1288,#286);
#207=LINE('',#1291,#287);
#208=LINE('',#1295,#288);
#209=LINE('',#1296,#289);
#210=LINE('',#1299,#290);
#211=LINE('',#1303,#291);
#212=LINE('',#1304,#292);
#213=LINE('',#1307,#293);
#214=LINE('',#1308,#294);
#215=LINE('',#1311,#295);
#216=LINE('',#1315,#296);
#217=LINE('',#1316,#297);
#218=LINE('',#1319,#298);
#219=LINE('',#1323,#299);
#220=LINE('',#1324,#300);
#221=LINE('',#1334,#301);
#222=LINE('',#1336,#302);
#223=LINE('',#1339,#303);
#224=LINE('',#1342,#304);
#225=LINE('',#1345,#305);
#226=LINE('',#1346,#306);
#227=LINE('',#1349,#307);
#228=LINE('',#1350,#308);
#229=LINE('',#1353,#309);
#230=LINE('',#1357,#310);
#231=LINE('',#1358,#311);
#232=LINE('',#1361,#312);
#233=LINE('',#1364,#313);
#234=LINE('',#1367,#314);
#235=LINE('',#1368,#315);
#236=LINE('',#1371,#316);
#237=LINE('',#1374,#317);
#238=VECTOR('',#911,2.35);
#239=VECTOR('',#924,2.25);
#240=VECTOR('',#927,10.);
#241=VECTOR('',#928,10.);
#242=VECTOR('',#929,10.);
#243=VECTOR('',#930,10.);
#244=VECTOR('',#933,10.);
#245=VECTOR('',#934,10.);
#246=VECTOR('',#935,10.);
#247=VECTOR('',#936,10.);
#248=VECTOR('',#939,10.);
#249=VECTOR('',#940,10.);
#250=VECTOR('',#941,10.);
#251=VECTOR('',#942,10.);
#252=VECTOR('',#945,10.);
#253=VECTOR('',#952,10.);
#254=VECTOR('',#953,10.);
#255=VECTOR('',#954,10.);
#256=VECTOR('',#957,10.);
#257=VECTOR('',#964,10.);
#258=VECTOR('',#965,10.);
#259=VECTOR('',#968,10.);
#260=VECTOR('',#969,10.);
#261=VECTOR('',#970,10.);
#262=VECTOR('',#971,10.);
#263=VECTOR('',#974,10.);
#264=VECTOR('',#981,10.);
#265=VECTOR('',#982,10.);
#266=VECTOR('',#983,10.);
#267=VECTOR('',#986,10.);
#268=VECTOR('',#993,10.);
#269=VECTOR('',#994,10.);
#270=VECTOR('',#997,10.);
#271=VECTOR('',#1004,10.);
#272=VECTOR('',#1005,10.);
#273=VECTOR('',#1006,10.);
#274=VECTOR('',#1009,10.);
#275=VECTOR('',#1016,10.);
#276=VECTOR('',#1017,10.);
#277=VECTOR('',#1020,10.);
#278=VECTOR('',#1027,10.);
#279=VECTOR('',#1028,10.);
#280=VECTOR('',#1029,10.);
#281=VECTOR('',#1032,10.);
#282=VECTOR('',#1039,10.);
#283=VECTOR('',#1040,10.);
#284=VECTOR('',#1043,10.);
#285=VECTOR('',#1044,10.);
#286=VECTOR('',#1045,10.);
#287=VECTOR('',#1048,10.);
#288=VECTOR('',#1053,10.);
#289=VECTOR('',#1054,10.);
#290=VECTOR('',#1057,10.);
#291=VECTOR('',#1062,10.);
#292=VECTOR('',#1063,10.);
#293=VECTOR('',#1066,10.);
#294=VECTOR('',#1067,10.);
#295=VECTOR('',#1070,10.);
#296=VECTOR('',#1075,10.);
#297=VECTOR('',#1076,10.);
#298=VECTOR('',#1079,10.);
#299=VECTOR('',#1084,10.);
#300=VECTOR('',#1085,10.);
#301=VECTOR('',#1098,4.75);
#302=VECTOR('',#1101,4.);
#303=VECTOR('',#1104,10.);
#304=VECTOR('',#1107,10.);
#305=VECTOR('',#1110,10.);
#306=VECTOR('',#1111,10.);
#307=VECTOR('',#1114,10.);
#308=VECTOR('',#1115,10.);
#309=VECTOR('',#1118,10.);
#310=VECTOR('',#1123,10.);
#311=VECTOR('',#1124,10.);
#312=VECTOR('',#1127,10.);
#313=VECTOR('',#1132,10.);
#314=VECTOR('',#1135,10.);
#315=VECTOR('',#1136,10.);
#316=VECTOR('',#1139,10.);
#317=VECTOR('',#1144,10.);
#318=CIRCLE('',#826,2.25);
#319=CIRCLE('',#827,2.45);
#320=CIRCLE('',#828,2.25);
#321=CIRCLE('',#830,4.75);
#322=CIRCLE('',#832,2.25);
#323=CIRCLE('',#837,0.150000000000001);
#324=CIRCLE('',#838,0.35);
#325=CIRCLE('',#841,0.150000000000001);
#326=CIRCLE('',#842,0.350000000000001);
#327=CIRCLE('',#846,0.15);
#328=CIRCLE('',#847,0.35);
#329=CIRCLE('',#850,0.150000000000001);
#330=CIRCLE('',#851,0.35);
#331=CIRCLE('',#854,0.149999999999997);
#332=CIRCLE('',#855,0.349999999999997);
#333=CIRCLE('',#858,0.149999999999996);
#334=CIRCLE('',#859,0.349999999999997);
#335=CIRCLE('',#862,0.149999999999999);
#336=CIRCLE('',#863,0.349999999999999);
#337=CIRCLE('',#866,0.15);
#338=CIRCLE('',#867,0.35);
#339=CIRCLE('',#871,0.350000000000001);
#340=CIRCLE('',#874,0.35);
#341=CIRCLE('',#878,0.35);
#342=CIRCLE('',#881,0.35);
#343=CIRCLE('',#884,4.);
#344=CIRCLE('',#886,4.75);
#345=CIRCLE('',#887,4.);
#346=CIRCLE('',#891,0.349999999999999);
#347=CIRCLE('',#895,0.349999999999997);
#348=CIRCLE('',#898,0.349999999999997);
#349=CIRCLE('',#902,0.35);
#350=VERTEX_POINT('',#1149);
#351=VERTEX_POINT('',#1150);
#352=VERTEX_POINT('',#1152);
#353=VERTEX_POINT('',#1157);
#354=VERTEX_POINT('',#1160);
#355=VERTEX_POINT('',#1164);
#356=VERTEX_POINT('',#1165);
#357=VERTEX_POINT('',#1167);
#358=VERTEX_POINT('',#1169);
#359=VERTEX_POINT('',#1173);
#360=VERTEX_POINT('',#1174);
#361=VERTEX_POINT('',#1176);
#362=VERTEX_POINT('',#1178);
#363=VERTEX_POINT('',#1182);
#364=VERTEX_POINT('',#1183);
#365=VERTEX_POINT('',#1185);
#366=VERTEX_POINT('',#1187);
#367=VERTEX_POINT('',#1191);
#368=VERTEX_POINT('',#1192);
#369=VERTEX_POINT('',#1197);
#370=VERTEX_POINT('',#1198);
#371=VERTEX_POINT('',#1203);
#372=VERTEX_POINT('',#1204);
#373=VERTEX_POINT('',#1212);
#374=VERTEX_POINT('',#1213);
#375=VERTEX_POINT('',#1215);
#376=VERTEX_POINT('',#1217);
#377=VERTEX_POINT('',#1221);
#378=VERTEX_POINT('',#1222);
#379=VERTEX_POINT('',#1227);
#380=VERTEX_POINT('',#1228);
#381=VERTEX_POINT('',#1233);
#382=VERTEX_POINT('',#1234);
#383=VERTEX_POINT('',#1242);
#384=VERTEX_POINT('',#1243);
#385=VERTEX_POINT('',#1248);
#386=VERTEX_POINT('',#1249);
#387=VERTEX_POINT('',#1254);
#388=VERTEX_POINT('',#1255);
#389=VERTEX_POINT('',#1263);
#390=VERTEX_POINT('',#1264);
#391=VERTEX_POINT('',#1269);
#392=VERTEX_POINT('',#1270);
#393=VERTEX_POINT('',#1275);
#394=VERTEX_POINT('',#1276);
#395=VERTEX_POINT('',#1284);
#396=VERTEX_POINT('',#1286);
#397=VERTEX_POINT('',#1290);
#398=VERTEX_POINT('',#1294);
#399=VERTEX_POINT('',#1298);
#400=VERTEX_POINT('',#1302);
#401=VERTEX_POINT('',#1306);
#402=VERTEX_POINT('',#1310);
#403=VERTEX_POINT('',#1314);
#404=VERTEX_POINT('',#1318);
#405=VERTEX_POINT('',#1322);
#406=VERTEX_POINT('',#1326);
#407=VERTEX_POINT('',#1329);
#408=VERTEX_POINT('',#1331);
#409=VERTEX_POINT('',#1338);
#410=VERTEX_POINT('',#1340);
#411=VERTEX_POINT('',#1344);
#412=VERTEX_POINT('',#1348);
#413=VERTEX_POINT('',#1352);
#414=VERTEX_POINT('',#1356);
#415=VERTEX_POINT('',#1360);
#416=VERTEX_POINT('',#1366);
#417=VERTEX_POINT('',#1370);
#418=EDGE_CURVE('',#350,#351,#318,.T.);
#419=EDGE_CURVE('',#351,#352,#158,.T.);
#420=EDGE_CURVE('',#352,#352,#319,.T.);
#421=EDGE_CURVE('',#351,#350,#320,.T.);
#422=EDGE_CURVE('',#353,#353,#321,.T.);
#423=EDGE_CURVE('',#354,#354,#322,.T.);
#424=EDGE_CURVE('',#354,#350,#159,.T.);
#425=EDGE_CURVE('',#355,#356,#160,.T.);
#426=EDGE_CURVE('',#356,#357,#161,.T.);
#427=EDGE_CURVE('',#357,#358,#162,.T.);
#428=EDGE_CURVE('',#358,#355,#163,.T.);
#429=EDGE_CURVE('',#359,#360,#164,.T.);
#430=EDGE_CURVE('',#360,#361,#165,.T.);
#431=EDGE_CURVE('',#361,#362,#166,.T.);
#432=EDGE_CURVE('',#362,#359,#167,.T.);
#433=EDGE_CURVE('',#363,#364,#168,.T.);
#434=EDGE_CURVE('',#364,#365,#169,.T.);
#435=EDGE_CURVE('',#365,#366,#170,.T.);
#436=EDGE_CURVE('',#366,#363,#171,.T.);
#437=EDGE_CURVE('',#367,#368,#172,.T.);
#438=EDGE_CURVE('',#368,#365,#323,.T.);
#439=EDGE_CURVE('',#364,#367,#324,.T.);
#440=EDGE_CURVE('',#369,#370,#173,.T.);
#441=EDGE_CURVE('',#370,#368,#174,.T.);
#442=EDGE_CURVE('',#367,#369,#175,.T.);
#443=EDGE_CURVE('',#371,#372,#176,.T.);
#444=EDGE_CURVE('',#372,#370,#325,.T.);
#445=EDGE_CURVE('',#369,#371,#326,.T.);
#446=EDGE_CURVE('',#362,#372,#177,.T.);
#447=EDGE_CURVE('',#371,#359,#178,.T.);
#448=EDGE_CURVE('',#373,#374,#179,.T.);
#449=EDGE_CURVE('',#374,#375,#180,.T.);
#450=EDGE_CURVE('',#375,#376,#181,.T.);
#451=EDGE_CURVE('',#376,#373,#182,.T.);
#452=EDGE_CURVE('',#377,#378,#183,.T.);
#453=EDGE_CURVE('',#378,#375,#327,.T.);
#454=EDGE_CURVE('',#374,#377,#328,.T.);
#455=EDGE_CURVE('',#379,#380,#184,.T.);
#456=EDGE_CURVE('',#380,#378,#185,.T.);
#457=EDGE_CURVE('',#377,#379,#186,.T.);
#458=EDGE_CURVE('',#381,#382,#187,.T.);
#459=EDGE_CURVE('',#382,#380,#329,.T.);
#460=EDGE_CURVE('',#379,#381,#330,.T.);
#461=EDGE_CURVE('',#366,#382,#188,.T.);
#462=EDGE_CURVE('',#381,#363,#189,.T.);
#463=EDGE_CURVE('',#383,#384,#190,.T.);
#464=EDGE_CURVE('',#384,#361,#331,.T.);
#465=EDGE_CURVE('',#360,#383,#332,.T.);
#466=EDGE_CURVE('',#385,#386,#191,.T.);
#467=EDGE_CURVE('',#386,#384,#192,.T.);
#468=EDGE_CURVE('',#383,#385,#193,.T.);
#469=EDGE_CURVE('',#387,#388,#194,.T.);
#470=EDGE_CURVE('',#388,#386,#333,.T.);
#471=EDGE_CURVE('',#385,#387,#334,.T.);
#472=EDGE_CURVE('',#358,#388,#195,.T.);
#473=EDGE_CURVE('',#387,#355,#196,.T.);
#474=EDGE_CURVE('',#389,#390,#197,.T.);
#475=EDGE_CURVE('',#390,#357,#335,.T.);
#476=EDGE_CURVE('',#356,#389,#336,.T.);
#477=EDGE_CURVE('',#391,#392,#198,.T.);
#478=EDGE_CURVE('',#392,#390,#199,.T.);
#479=EDGE_CURVE('',#389,#391,#200,.T.);
#480=EDGE_CURVE('',#393,#394,#201,.T.);
#481=EDGE_CURVE('',#394,#392,#337,.T.);
#482=EDGE_CURVE('',#391,#393,#338,.T.);
#483=EDGE_CURVE('',#376,#394,#202,.T.);
#484=EDGE_CURVE('',#393,#373,#203,.T.);
#485=EDGE_CURVE('',#395,#371,#204,.T.);
#486=EDGE_CURVE('',#395,#396,#205,.T.);
#487=EDGE_CURVE('',#396,#359,#206,.T.);
#488=EDGE_CURVE('',#397,#369,#207,.T.);
#489=EDGE_CURVE('',#397,#395,#339,.T.);
#490=EDGE_CURVE('',#398,#367,#208,.T.);
#491=EDGE_CURVE('',#397,#398,#209,.T.);
#492=EDGE_CURVE('',#399,#364,#210,.T.);
#493=EDGE_CURVE('',#399,#398,#340,.T.);
#494=EDGE_CURVE('',#400,#363,#211,.T.);
#495=EDGE_CURVE('',#399,#400,#212,.T.);
#496=EDGE_CURVE('',#401,#381,#213,.T.);
#497=EDGE_CURVE('',#401,#400,#214,.T.);
#498=EDGE_CURVE('',#402,#379,#215,.T.);
#499=EDGE_CURVE('',#402,#401,#341,.T.);
#500=EDGE_CURVE('',#403,#377,#216,.T.);
#501=EDGE_CURVE('',#403,#402,#217,.T.);
#502=EDGE_CURVE('',#404,#374,#218,.T.);
#503=EDGE_CURVE('',#404,#403,#342,.T.);
#504=EDGE_CURVE('',#405,#373,#219,.T.);
#505=EDGE_CURVE('',#405,#404,#220,.T.);
#506=EDGE_CURVE('',#406,#406,#343,.T.);
#507=EDGE_CURVE('',#407,#407,#344,.T.);
#508=EDGE_CURVE('',#408,#408,#345,.T.);
#509=EDGE_CURVE('',#353,#407,#221,.T.);
#510=EDGE_CURVE('',#408,#406,#222,.T.);
#511=EDGE_CURVE('',#409,#356,#223,.T.);
#512=EDGE_CURVE('',#409,#410,#346,.T.);
#513=EDGE_CURVE('',#410,#389,#224,.T.);
#514=EDGE_CURVE('',#411,#355,#225,.T.);
#515=EDGE_CURVE('',#409,#411,#226,.T.);
#516=EDGE_CURVE('',#412,#387,#227,.T.);
#517=EDGE_CURVE('',#412,#411,#228,.T.);
#518=EDGE_CURVE('',#413,#385,#229,.T.);
#519=EDGE_CURVE('',#413,#412,#347,.T.);
#520=EDGE_CURVE('',#414,#383,#230,.T.);
#521=EDGE_CURVE('',#414,#413,#231,.T.);
#522=EDGE_CURVE('',#415,#360,#232,.T.);
#523=EDGE_CURVE('',#415,#414,#348,.T.);
#524=EDGE_CURVE('',#396,#415,#233,.T.);
#525=EDGE_CURVE('',#416,#393,#234,.T.);
#526=EDGE_CURVE('',#416,#405,#235,.T.);
#527=EDGE_CURVE('',#417,#391,#236,.T.);
#528=EDGE_CURVE('',#417,#416,#349,.T.);
#529=EDGE_CURVE('',#410,#417,#237,.T.);
#530=ORIENTED_EDGE('',*,*,#418,.T.);
#531=ORIENTED_EDGE('',*,*,#419,.T.);
#532=ORIENTED_EDGE('',*,*,#420,.T.);
#533=ORIENTED_EDGE('',*,*,#419,.F.);
#534=ORIENTED_EDGE('',*,*,#421,.T.);
#535=ORIENTED_EDGE('',*,*,#422,.T.);
#536=ORIENTED_EDGE('',*,*,#420,.F.);
#537=ORIENTED_EDGE('',*,*,#423,.T.);
#538=ORIENTED_EDGE('',*,*,#424,.T.);
#539=ORIENTED_EDGE('',*,*,#421,.F.);
#540=ORIENTED_EDGE('',*,*,#418,.F.);
#541=ORIENTED_EDGE('',*,*,#424,.F.);
#542=ORIENTED_EDGE('',*,*,#425,.T.);
#543=ORIENTED_EDGE('',*,*,#426,.T.);
#544=ORIENTED_EDGE('',*,*,#427,.T.);
#545=ORIENTED_EDGE('',*,*,#428,.T.);
#546=ORIENTED_EDGE('',*,*,#429,.T.);
#547=ORIENTED_EDGE('',*,*,#430,.T.);
#548=ORIENTED_EDGE('',*,*,#431,.T.);
#549=ORIENTED_EDGE('',*,*,#432,.T.);
#550=ORIENTED_EDGE('',*,*,#433,.T.);
#551=ORIENTED_EDGE('',*,*,#434,.T.);
#552=ORIENTED_EDGE('',*,*,#435,.T.);
#553=ORIENTED_EDGE('',*,*,#436,.T.);
#554=ORIENTED_EDGE('',*,*,#437,.T.);
#555=ORIENTED_EDGE('',*,*,#438,.T.);
#556=ORIENTED_EDGE('',*,*,#434,.F.);
#557=ORIENTED_EDGE('',*,*,#439,.T.);
#558=ORIENTED_EDGE('',*,*,#440,.T.);
#559=ORIENTED_EDGE('',*,*,#441,.T.);
#560=ORIENTED_EDGE('',*,*,#437,.F.);
#561=ORIENTED_EDGE('',*,*,#442,.T.);
#562=ORIENTED_EDGE('',*,*,#443,.T.);
#563=ORIENTED_EDGE('',*,*,#444,.T.);
#564=ORIENTED_EDGE('',*,*,#440,.F.);
#565=ORIENTED_EDGE('',*,*,#445,.T.);
#566=ORIENTED_EDGE('',*,*,#446,.T.);
#567=ORIENTED_EDGE('',*,*,#443,.F.);
#568=ORIENTED_EDGE('',*,*,#447,.T.);
#569=ORIENTED_EDGE('',*,*,#432,.F.);
#570=ORIENTED_EDGE('',*,*,#448,.T.);
#571=ORIENTED_EDGE('',*,*,#449,.T.);
#572=ORIENTED_EDGE('',*,*,#450,.T.);
#573=ORIENTED_EDGE('',*,*,#451,.T.);
#574=ORIENTED_EDGE('',*,*,#452,.T.);
#575=ORIENTED_EDGE('',*,*,#453,.T.);
#576=ORIENTED_EDGE('',*,*,#449,.F.);
#577=ORIENTED_EDGE('',*,*,#454,.T.);
#578=ORIENTED_EDGE('',*,*,#455,.T.);
#579=ORIENTED_EDGE('',*,*,#456,.T.);
#580=ORIENTED_EDGE('',*,*,#452,.F.);
#581=ORIENTED_EDGE('',*,*,#457,.T.);
#582=ORIENTED_EDGE('',*,*,#458,.T.);
#583=ORIENTED_EDGE('',*,*,#459,.T.);
#584=ORIENTED_EDGE('',*,*,#455,.F.);
#585=ORIENTED_EDGE('',*,*,#460,.T.);
#586=ORIENTED_EDGE('',*,*,#461,.T.);
#587=ORIENTED_EDGE('',*,*,#458,.F.);
#588=ORIENTED_EDGE('',*,*,#462,.T.);
#589=ORIENTED_EDGE('',*,*,#436,.F.);
#590=ORIENTED_EDGE('',*,*,#463,.T.);
#591=ORIENTED_EDGE('',*,*,#464,.T.);
#592=ORIENTED_EDGE('',*,*,#430,.F.);
#593=ORIENTED_EDGE('',*,*,#465,.T.);
#594=ORIENTED_EDGE('',*,*,#466,.T.);
#595=ORIENTED_EDGE('',*,*,#467,.T.);
#596=ORIENTED_EDGE('',*,*,#463,.F.);
#597=ORIENTED_EDGE('',*,*,#468,.T.);
#598=ORIENTED_EDGE('',*,*,#469,.T.);
#599=ORIENTED_EDGE('',*,*,#470,.T.);
#600=ORIENTED_EDGE('',*,*,#466,.F.);
#601=ORIENTED_EDGE('',*,*,#471,.T.);
#602=ORIENTED_EDGE('',*,*,#472,.T.);
#603=ORIENTED_EDGE('',*,*,#469,.F.);
#604=ORIENTED_EDGE('',*,*,#473,.T.);
#605=ORIENTED_EDGE('',*,*,#428,.F.);
#606=ORIENTED_EDGE('',*,*,#474,.T.);
#607=ORIENTED_EDGE('',*,*,#475,.T.);
#608=ORIENTED_EDGE('',*,*,#426,.F.);
#609=ORIENTED_EDGE('',*,*,#476,.T.);
#610=ORIENTED_EDGE('',*,*,#477,.T.);
#611=ORIENTED_EDGE('',*,*,#478,.T.);
#612=ORIENTED_EDGE('',*,*,#474,.F.);
#613=ORIENTED_EDGE('',*,*,#479,.T.);
#614=ORIENTED_EDGE('',*,*,#480,.T.);
#615=ORIENTED_EDGE('',*,*,#481,.T.);
#616=ORIENTED_EDGE('',*,*,#477,.F.);
#617=ORIENTED_EDGE('',*,*,#482,.T.);
#618=ORIENTED_EDGE('',*,*,#483,.T.);
#619=ORIENTED_EDGE('',*,*,#480,.F.);
#620=ORIENTED_EDGE('',*,*,#484,.T.);
#621=ORIENTED_EDGE('',*,*,#451,.F.);
#622=ORIENTED_EDGE('',*,*,#447,.F.);
#623=ORIENTED_EDGE('',*,*,#485,.F.);
#624=ORIENTED_EDGE('',*,*,#486,.T.);
#625=ORIENTED_EDGE('',*,*,#487,.T.);
#626=ORIENTED_EDGE('',*,*,#445,.F.);
#627=ORIENTED_EDGE('',*,*,#488,.F.);
#628=ORIENTED_EDGE('',*,*,#489,.T.);
#629=ORIENTED_EDGE('',*,*,#485,.T.);
#630=ORIENTED_EDGE('',*,*,#442,.F.);
#631=ORIENTED_EDGE('',*,*,#490,.F.);
#632=ORIENTED_EDGE('',*,*,#491,.F.);
#633=ORIENTED_EDGE('',*,*,#488,.T.);
#634=ORIENTED_EDGE('',*,*,#439,.F.);
#635=ORIENTED_EDGE('',*,*,#492,.F.);
#636=ORIENTED_EDGE('',*,*,#493,.T.);
#637=ORIENTED_EDGE('',*,*,#490,.T.);
#638=ORIENTED_EDGE('',*,*,#433,.F.);
#639=ORIENTED_EDGE('',*,*,#494,.F.);
#640=ORIENTED_EDGE('',*,*,#495,.F.);
#641=ORIENTED_EDGE('',*,*,#492,.T.);
#642=ORIENTED_EDGE('',*,*,#462,.F.);
#643=ORIENTED_EDGE('',*,*,#496,.F.);
#644=ORIENTED_EDGE('',*,*,#497,.T.);
#645=ORIENTED_EDGE('',*,*,#494,.T.);
#646=ORIENTED_EDGE('',*,*,#460,.F.);
#647=ORIENTED_EDGE('',*,*,#498,.F.);
#648=ORIENTED_EDGE('',*,*,#499,.T.);
#649=ORIENTED_EDGE('',*,*,#496,.T.);
#650=ORIENTED_EDGE('',*,*,#457,.F.);
#651=ORIENTED_EDGE('',*,*,#500,.F.);
#652=ORIENTED_EDGE('',*,*,#501,.T.);
#653=ORIENTED_EDGE('',*,*,#498,.T.);
#654=ORIENTED_EDGE('',*,*,#454,.F.);
#655=ORIENTED_EDGE('',*,*,#502,.F.);
#656=ORIENTED_EDGE('',*,*,#503,.T.);
#657=ORIENTED_EDGE('',*,*,#500,.T.);
#658=ORIENTED_EDGE('',*,*,#448,.F.);
#659=ORIENTED_EDGE('',*,*,#504,.F.);
#660=ORIENTED_EDGE('',*,*,#505,.T.);
#661=ORIENTED_EDGE('',*,*,#502,.T.);
#662=ORIENTED_EDGE('',*,*,#450,.F.);
#663=ORIENTED_EDGE('',*,*,#453,.F.);
#664=ORIENTED_EDGE('',*,*,#456,.F.);
#665=ORIENTED_EDGE('',*,*,#459,.F.);
#666=ORIENTED_EDGE('',*,*,#461,.F.);
#667=ORIENTED_EDGE('',*,*,#435,.F.);
#668=ORIENTED_EDGE('',*,*,#438,.F.);
#669=ORIENTED_EDGE('',*,*,#441,.F.);
#670=ORIENTED_EDGE('',*,*,#444,.F.);
#671=ORIENTED_EDGE('',*,*,#446,.F.);
#672=ORIENTED_EDGE('',*,*,#431,.F.);
#673=ORIENTED_EDGE('',*,*,#464,.F.);
#674=ORIENTED_EDGE('',*,*,#467,.F.);
#675=ORIENTED_EDGE('',*,*,#470,.F.);
#676=ORIENTED_EDGE('',*,*,#472,.F.);
#677=ORIENTED_EDGE('',*,*,#427,.F.);
#678=ORIENTED_EDGE('',*,*,#475,.F.);
#679=ORIENTED_EDGE('',*,*,#478,.F.);
#680=ORIENTED_EDGE('',*,*,#481,.F.);
#681=ORIENTED_EDGE('',*,*,#483,.F.);
#682=ORIENTED_EDGE('',*,*,#506,.T.);
#683=ORIENTED_EDGE('',*,*,#507,.F.);
#684=ORIENTED_EDGE('',*,*,#508,.T.);
#685=ORIENTED_EDGE('',*,*,#422,.F.);
#686=ORIENTED_EDGE('',*,*,#509,.T.);
#687=ORIENTED_EDGE('',*,*,#507,.T.);
#688=ORIENTED_EDGE('',*,*,#509,.F.);
#689=ORIENTED_EDGE('',*,*,#508,.F.);
#690=ORIENTED_EDGE('',*,*,#510,.T.);
#691=ORIENTED_EDGE('',*,*,#506,.F.);
#692=ORIENTED_EDGE('',*,*,#510,.F.);
#693=ORIENTED_EDGE('',*,*,#476,.F.);
#694=ORIENTED_EDGE('',*,*,#511,.F.);
#695=ORIENTED_EDGE('',*,*,#512,.T.);
#696=ORIENTED_EDGE('',*,*,#513,.T.);
#697=ORIENTED_EDGE('',*,*,#425,.F.);
#698=ORIENTED_EDGE('',*,*,#514,.F.);
#699=ORIENTED_EDGE('',*,*,#515,.F.);
#700=ORIENTED_EDGE('',*,*,#511,.T.);
#701=ORIENTED_EDGE('',*,*,#473,.F.);
#702=ORIENTED_EDGE('',*,*,#516,.F.);
#703=ORIENTED_EDGE('',*,*,#517,.T.);
#704=ORIENTED_EDGE('',*,*,#514,.T.);
#705=ORIENTED_EDGE('',*,*,#471,.F.);
#706=ORIENTED_EDGE('',*,*,#518,.F.);
#707=ORIENTED_EDGE('',*,*,#519,.T.);
#708=ORIENTED_EDGE('',*,*,#516,.T.);
#709=ORIENTED_EDGE('',*,*,#468,.F.);
#710=ORIENTED_EDGE('',*,*,#520,.F.);
#711=ORIENTED_EDGE('',*,*,#521,.T.);
#712=ORIENTED_EDGE('',*,*,#518,.T.);
#713=ORIENTED_EDGE('',*,*,#465,.F.);
#714=ORIENTED_EDGE('',*,*,#522,.F.);
#715=ORIENTED_EDGE('',*,*,#523,.T.);
#716=ORIENTED_EDGE('',*,*,#520,.T.);
#717=ORIENTED_EDGE('',*,*,#429,.F.);
#718=ORIENTED_EDGE('',*,*,#487,.F.);
#719=ORIENTED_EDGE('',*,*,#524,.T.);
#720=ORIENTED_EDGE('',*,*,#522,.T.);
#721=ORIENTED_EDGE('',*,*,#484,.F.);
#722=ORIENTED_EDGE('',*,*,#525,.F.);
#723=ORIENTED_EDGE('',*,*,#526,.T.);
#724=ORIENTED_EDGE('',*,*,#504,.T.);
#725=ORIENTED_EDGE('',*,*,#482,.F.);
#726=ORIENTED_EDGE('',*,*,#527,.F.);
#727=ORIENTED_EDGE('',*,*,#528,.T.);
#728=ORIENTED_EDGE('',*,*,#525,.T.);
#729=ORIENTED_EDGE('',*,*,#479,.F.);
#730=ORIENTED_EDGE('',*,*,#513,.F.);
#731=ORIENTED_EDGE('',*,*,#529,.T.);
#732=ORIENTED_EDGE('',*,*,#527,.T.);
#733=ORIENTED_EDGE('',*,*,#529,.F.);
#734=ORIENTED_EDGE('',*,*,#512,.F.);
#735=ORIENTED_EDGE('',*,*,#515,.T.);
#736=ORIENTED_EDGE('',*,*,#517,.F.);
#737=ORIENTED_EDGE('',*,*,#519,.F.);
#738=ORIENTED_EDGE('',*,*,#521,.F.);
#739=ORIENTED_EDGE('',*,*,#523,.F.);
#740=ORIENTED_EDGE('',*,*,#524,.F.);
#741=ORIENTED_EDGE('',*,*,#486,.F.);
#742=ORIENTED_EDGE('',*,*,#489,.F.);
#743=ORIENTED_EDGE('',*,*,#491,.T.);
#744=ORIENTED_EDGE('',*,*,#493,.F.);
#745=ORIENTED_EDGE('',*,*,#495,.T.);
#746=ORIENTED_EDGE('',*,*,#497,.F.);
#747=ORIENTED_EDGE('',*,*,#499,.F.);
#748=ORIENTED_EDGE('',*,*,#501,.F.);
#749=ORIENTED_EDGE('',*,*,#503,.F.);
#750=ORIENTED_EDGE('',*,*,#505,.F.);
#751=ORIENTED_EDGE('',*,*,#526,.F.);
#752=ORIENTED_EDGE('',*,*,#528,.F.);
#753=ORIENTED_EDGE('',*,*,#423,.F.);
#754=CONICAL_SURFACE('',#825,2.35,0.785398163397448);
#755=CONICAL_SURFACE('',#836,0.25,0.785398163397447);
#756=CONICAL_SURFACE('',#840,0.250000000000001,0.785398163397448);
#757=CONICAL_SURFACE('',#845,0.25,0.785398163397448);
#758=CONICAL_SURFACE('',#849,0.250000000000001,0.785398163397447);
#759=CONICAL_SURFACE('',#853,0.249999999999997,0.785398163397448);
#760=CONICAL_SURFACE('',#857,0.249999999999997,0.78539816339745);
#761=CONICAL_SURFACE('',#861,0.249999999999999,0.785398163397449);
#762=CONICAL_SURFACE('',#865,0.25,0.785398163397448);
#763=ADVANCED_FACE('',(#58),#754,.F.);
#764=ADVANCED_FACE('',(#59,#26),#30,.T.);
#765=ADVANCED_FACE('',(#60),#15,.F.);
#766=ADVANCED_FACE('',(#61),#31,.T.);
#767=ADVANCED_FACE('',(#62),#32,.T.);
#768=ADVANCED_FACE('',(#63),#33,.T.);
#769=ADVANCED_FACE('',(#64),#755,.T.);
#770=ADVANCED_FACE('',(#65),#34,.T.);
#771=ADVANCED_FACE('',(#66),#756,.T.);
#772=ADVANCED_FACE('',(#67),#35,.T.);
#773=ADVANCED_FACE('',(#68),#36,.T.);
#774=ADVANCED_FACE('',(#69),#757,.T.);
#775=ADVANCED_FACE('',(#70),#37,.T.);
#776=ADVANCED_FACE('',(#71),#758,.T.);
#777=ADVANCED_FACE('',(#72),#38,.T.);
#778=ADVANCED_FACE('',(#73),#759,.T.);
#779=ADVANCED_FACE('',(#74),#39,.T.);
#780=ADVANCED_FACE('',(#75),#760,.T.);
#781=ADVANCED_FACE('',(#76),#40,.T.);
#782=ADVANCED_FACE('',(#77),#761,.T.);
#783=ADVANCED_FACE('',(#78),#41,.T.);
#784=ADVANCED_FACE('',(#79),#762,.T.);
#785=ADVANCED_FACE('',(#80),#42,.T.);
#786=ADVANCED_FACE('',(#81),#43,.T.);
#787=ADVANCED_FACE('',(#82),#16,.T.);
#788=ADVANCED_FACE('',(#83),#44,.T.);
#789=ADVANCED_FACE('',(#84),#17,.T.);
#790=ADVANCED_FACE('',(#85),#45,.T.);
#791=ADVANCED_FACE('',(#86),#46,.T.);
#792=ADVANCED_FACE('',(#87),#18,.T.);
#793=ADVANCED_FACE('',(#88),#47,.T.);
#794=ADVANCED_FACE('',(#89),#19,.T.);
#795=ADVANCED_FACE('',(#90),#48,.T.);
#796=ADVANCED_FACE('',(#91,#27),#49,.T.);
#797=ADVANCED_FACE('',(#92,#28),#50,.F.);
#798=ADVANCED_FACE('',(#93),#20,.T.);
#799=ADVANCED_FACE('',(#94),#21,.T.);
#800=ADVANCED_FACE('',(#95),#22,.T.);
#801=ADVANCED_FACE('',(#96),#51,.T.);
#802=ADVANCED_FACE('',(#97),#52,.T.);
#803=ADVANCED_FACE('',(#98),#23,.T.);
#804=ADVANCED_FACE('',(#99),#53,.T.);
#805=ADVANCED_FACE('',(#100),#24,.T.);
#806=ADVANCED_FACE('',(#101),#54,.T.);
#807=ADVANCED_FACE('',(#102),#55,.T.);
#808=ADVANCED_FACE('',(#103),#25,.T.);
#809=ADVANCED_FACE('',(#104),#56,.T.);
#810=ADVANCED_FACE('',(#105,#29),#57,.F.);
#811=CLOSED_SHELL('',(#763,#764,#765,#766,#767,#768,#769,#770,#771,#772,
#773,#774,#775,#776,#777,#778,#779,#780,#781,#782,#783,#784,#785,#786,#787,
#788,#789,#790,#791,#792,#793,#794,#795,#796,#797,#798,#799,#800,#801,#802,
#803,#804,#805,#806,#807,#808,#809,#810));
#812=DERIVED_UNIT_ELEMENT(#814,1.);
#813=DERIVED_UNIT_ELEMENT(#1381,-3.);
#814=(
MASS_UNIT()
NAMED_UNIT(*)
SI_UNIT(.KILO.,.GRAM.)
);
#815=DERIVED_UNIT((#812,#813));
#816=MEASURE_REPRESENTATION_ITEM('density measure',
POSITIVE_RATIO_MEASURE(7850.),#815);
#817=PROPERTY_DEFINITION_REPRESENTATION(#822,#819);
#818=PROPERTY_DEFINITION_REPRESENTATION(#823,#820);
#819=REPRESENTATION('material name',(#821),#1378);
#820=REPRESENTATION('density',(#816),#1378);
#821=DESCRIPTIVE_REPRESENTATION_ITEM('Steel','Steel');
#822=PROPERTY_DEFINITION('material property','material name',#1388);
#823=PROPERTY_DEFINITION('material property','density of part',#1388);
#824=AXIS2_PLACEMENT_3D('',#1147,#905,#906);
#825=AXIS2_PLACEMENT_3D('',#1148,#907,#908);
#826=AXIS2_PLACEMENT_3D('',#1151,#909,#910);
#827=AXIS2_PLACEMENT_3D('',#1154,#912,#913);
#828=AXIS2_PLACEMENT_3D('',#1155,#914,#915);
#829=AXIS2_PLACEMENT_3D('',#1156,#916,#917);
#830=AXIS2_PLACEMENT_3D('',#1158,#918,#919);
#831=AXIS2_PLACEMENT_3D('',#1159,#920,#921);
#832=AXIS2_PLACEMENT_3D('',#1161,#922,#923);
#833=AXIS2_PLACEMENT_3D('',#1163,#925,#926);
#834=AXIS2_PLACEMENT_3D('',#1172,#931,#932);
#835=AXIS2_PLACEMENT_3D('',#1181,#937,#938);
#836=AXIS2_PLACEMENT_3D('',#1190,#943,#944);
#837=AXIS2_PLACEMENT_3D('',#1194,#946,#947);
#838=AXIS2_PLACEMENT_3D('',#1195,#948,#949);
#839=AXIS2_PLACEMENT_3D('',#1196,#950,#951);
#840=AXIS2_PLACEMENT_3D('',#1202,#955,#956);
#841=AXIS2_PLACEMENT_3D('',#1206,#958,#959);
#842=AXIS2_PLACEMENT_3D('',#1207,#960,#961);
#843=AXIS2_PLACEMENT_3D('',#1208,#962,#963);
#844=AXIS2_PLACEMENT_3D('',#1211,#966,#967);
#845=AXIS2_PLACEMENT_3D('',#1220,#972,#973);
#846=AXIS2_PLACEMENT_3D('',#1224,#975,#976);
#847=AXIS2_PLACEMENT_3D('',#1225,#977,#978);
#848=AXIS2_PLACEMENT_3D('',#1226,#979,#980);
#849=AXIS2_PLACEMENT_3D('',#1232,#984,#985);
#850=AXIS2_PLACEMENT_3D('',#1236,#987,#988);
#851=AXIS2_PLACEMENT_3D('',#1237,#989,#990);
#852=AXIS2_PLACEMENT_3D('',#1238,#991,#992);
#853=AXIS2_PLACEMENT_3D('',#1241,#995,#996);
#854=AXIS2_PLACEMENT_3D('',#1245,#998,#999);
#855=AXIS2_PLACEMENT_3D('',#1246,#1000,#1001);
#856=AXIS2_PLACEMENT_3D('',#1247,#1002,#1003);
#857=AXIS2_PLACEMENT_3D('',#1253,#1007,#1008);
#858=AXIS2_PLACEMENT_3D('',#1257,#1010,#1011);
#859=AXIS2_PLACEMENT_3D('',#1258,#1012,#1013);
#860=AXIS2_PLACEMENT_3D('',#1259,#1014,#1015);
#861=AXIS2_PLACEMENT_3D('',#1262,#1018,#1019);
#862=AXIS2_PLACEMENT_3D('',#1266,#1021,#1022);
#863=AXIS2_PLACEMENT_3D('',#1267,#1023,#1024);
#864=AXIS2_PLACEMENT_3D('',#1268,#1025,#1026);
#865=AXIS2_PLACEMENT_3D('',#1274,#1030,#1031);
#866=AXIS2_PLACEMENT_3D('',#1278,#1033,#1034);
#867=AXIS2_PLACEMENT_3D('',#1279,#1035,#1036);
#868=AXIS2_PLACEMENT_3D('',#1280,#1037,#1038);
#869=AXIS2_PLACEMENT_3D('',#1283,#1041,#1042);
#870=AXIS2_PLACEMENT_3D('',#1289,#1046,#1047);
#871=AXIS2_PLACEMENT_3D('',#1292,#1049,#1050);
#872=AXIS2_PLACEMENT_3D('',#1293,#1051,#1052);
#873=AXIS2_PLACEMENT_3D('',#1297,#1055,#1056);
#874=AXIS2_PLACEMENT_3D('',#1300,#1058,#1059);
#875=AXIS2_PLACEMENT_3D('',#1301,#1060,#1061);
#876=AXIS2_PLACEMENT_3D('',#1305,#1064,#1065);
#877=AXIS2_PLACEMENT_3D('',#1309,#1068,#1069);
#878=AXIS2_PLACEMENT_3D('',#1312,#1071,#1072);
#879=AXIS2_PLACEMENT_3D('',#1313,#1073,#1074);
#880=AXIS2_PLACEMENT_3D('',#1317,#1077,#1078);
#881=AXIS2_PLACEMENT_3D('',#1320,#1080,#1081);
#882=AXIS2_PLACEMENT_3D('',#1321,#1082,#1083);
#883=AXIS2_PLACEMENT_3D('',#1325,#1086,#1087);
#884=AXIS2_PLACEMENT_3D('',#1327,#1088,#1089);
#885=AXIS2_PLACEMENT_3D('',#1328,#1090,#1091);
#886=AXIS2_PLACEMENT_3D('',#1330,#1092,#1093);
#887=AXIS2_PLACEMENT_3D('',#1332,#1094,#1095);
#888=AXIS2_PLACEMENT_3D('',#1333,#1096,#1097);
#889=AXIS2_PLACEMENT_3D('',#1335,#1099,#1100);
#890=AXIS2_PLACEMENT_3D('',#1337,#1102,#1103);
#891=AXIS2_PLACEMENT_3D('',#1341,#1105,#1106);
#892=AXIS2_PLACEMENT_3D('',#1343,#1108,#1109);
#893=AXIS2_PLACEMENT_3D('',#1347,#1112,#1113);
#894=AXIS2_PLACEMENT_3D('',#1351,#1116,#1117);
#895=AXIS2_PLACEMENT_3D('',#1354,#1119,#1120);
#896=AXIS2_PLACEMENT_3D('',#1355,#1121,#1122);
#897=AXIS2_PLACEMENT_3D('',#1359,#1125,#1126);
#898=AXIS2_PLACEMENT_3D('',#1362,#1128,#1129);
#899=AXIS2_PLACEMENT_3D('',#1363,#1130,#1131);
#900=AXIS2_PLACEMENT_3D('',#1365,#1133,#1134);
#901=AXIS2_PLACEMENT_3D('',#1369,#1137,#1138);
#902=AXIS2_PLACEMENT_3D('',#1372,#1140,#1141);
#903=AXIS2_PLACEMENT_3D('',#1373,#1142,#1143);
#904=AXIS2_PLACEMENT_3D('',#1375,#1145,#1146);
#905=DIRECTION('axis',(0.,0.,1.));
#906=DIRECTION('refdir',(1.,0.,0.));
#907=DIRECTION('center_axis',(0.,0.,1.));
#908=DIRECTION('ref_axis',(-1.,0.,0.));
#909=DIRECTION('center_axis',(0.,0.,-1.));
#910=DIRECTION('ref_axis',(-1.,0.,0.));
#911=DIRECTION('',(0.707106781186547,8.65956056235493E-17,0.707106781186548));
#912=DIRECTION('center_axis',(0.,0.,1.));
#913=DIRECTION('ref_axis',(-1.,0.,0.));
#914=DIRECTION('center_axis',(0.,0.,-1.));
#915=DIRECTION('ref_axis',(-1.,0.,0.));
#916=DIRECTION('center_axis',(0.,0.,1.));
#917=DIRECTION('ref_axis',(-1.,0.,0.));
#918=DIRECTION('center_axis',(0.,0.,1.));
#919=DIRECTION('ref_axis',(-1.,0.,0.));
#920=DIRECTION('center_axis',(0.,0.,1.));
#921=DIRECTION('ref_axis',(1.,0.,0.));
#922=DIRECTION('center_axis',(0.,0.,-1.));
#923=DIRECTION('ref_axis',(1.,0.,0.));
#924=DIRECTION('',(0.,0.,1.));
#925=DIRECTION('center_axis',(0.,0.707106781186548,0.707106781186548));
#926=DIRECTION('ref_axis',(1.,0.,0.));
#927=DIRECTION('',(-1.,0.,0.));
#928=DIRECTION('',(-9.81307786677357E-16,-0.707106781186547,0.707106781186547));
#929=DIRECTION('',(1.,0.,0.));
#930=DIRECTION('',(-0.577350269189626,0.577350269189626,-0.577350269189626));
#931=DIRECTION('center_axis',(0.707106781186548,7.47663075563702E-16,0.707106781186548));
#932=DIRECTION('ref_axis',(0.707106781186548,0.,-0.707106781186548));
#933=DIRECTION('',(-1.05735526154777E-15,1.,0.));
#934=DIRECTION('',(-0.707106781186547,0.,0.707106781186547));
#935=DIRECTION('',(1.05735526154777E-15,-1.,0.));
#936=DIRECTION('',(0.577350269189626,0.577350269189626,-0.577350269189626));
#937=DIRECTION('center_axis',(2.73853335816937E-16,-0.707106781186548,0.707106781186548));
#938=DIRECTION('ref_axis',(1.,-6.65601388780229E-31,-3.87287101613426E-16));
#939=DIRECTION('',(1.,3.87287101613427E-16,0.));
#940=DIRECTION('',(0.,0.707106781186547,0.707106781186547));
#941=DIRECTION('',(-1.,-3.87287101613427E-16,0.));
#942=DIRECTION('',(0.577350269189626,-0.577350269189626,-0.577350269189626));
#943=DIRECTION('center_axis',(0.,0.,-1.));
#944=DIRECTION('ref_axis',(0.,-1.,0.));
#945=DIRECTION('',(-0.707106781186548,1.96261557335472E-15,0.707106781186548));
#946=DIRECTION('center_axis',(0.,0.,-1.));
#947=DIRECTION('ref_axis',(0.,-1.,0.));
#948=DIRECTION('center_axis',(0.,0.,1.));
#949=DIRECTION('ref_axis',(0.,-1.,0.));
#950=DIRECTION('center_axis',(0.707106781186548,0.,0.707106781186548));
#951=DIRECTION('ref_axis',(0.707106781186548,0.,-0.707106781186548));
#952=DIRECTION('',(-0.707106781186549,0.,0.707106781186546));
#953=DIRECTION('',(0.,-1.,0.));
#954=DIRECTION('',(0.,1.,0.));
#955=DIRECTION('center_axis',(0.,0.,-1.));
#956=DIRECTION('ref_axis',(1.,6.34413156928658E-15,0.));
#957=DIRECTION('',(0.,-0.707106781186547,0.707106781186547));
#958=DIRECTION('center_axis',(0.,0.,-1.));
#959=DIRECTION('ref_axis',(1.,6.34413156928658E-15,0.));
#960=DIRECTION('center_axis',(0.,0.,1.));
#961=DIRECTION('ref_axis',(1.,6.34413156928658E-15,0.));
#962=DIRECTION('center_axis',(0.,0.707106781186548,0.707106781186548));
#963=DIRECTION('ref_axis',(1.,0.,0.));
#964=DIRECTION('',(1.,0.,0.));
#965=DIRECTION('',(-1.,0.,0.));
#966=DIRECTION('center_axis',(-0.707106781186548,0.,0.707106781186548));
#967=DIRECTION('ref_axis',(0.707106781186548,0.,0.707106781186548));
#968=DIRECTION('',(0.,-1.,0.));
#969=DIRECTION('',(0.707106781186547,9.81307786677357E-16,0.707106781186547));
#970=DIRECTION('',(0.,1.,0.));
#971=DIRECTION('',(-0.577350269189626,-0.577350269189626,-0.577350269189626));
#972=DIRECTION('center_axis',(0.,0.,-1.));
#973=DIRECTION('ref_axis',(-1.,7.93016446160827E-16,0.));
#974=DIRECTION('',(-2.4532694666934E-16,0.707106781186547,0.707106781186548));
#975=DIRECTION('center_axis',(0.,0.,-1.));
#976=DIRECTION('ref_axis',(-1.,7.93016446160827E-16,0.));
#977=DIRECTION('center_axis',(0.,0.,1.));
#978=DIRECTION('ref_axis',(-1.,7.93016446160827E-16,0.));
#979=DIRECTION('center_axis',(0.,-0.707106781186548,0.707106781186548));
#980=DIRECTION('ref_axis',(1.,0.,0.));
#981=DIRECTION('',(0.,0.707106781186547,0.707106781186547));
#982=DIRECTION('',(-1.,0.,0.));
#983=DIRECTION('',(1.,0.,0.));
#984=DIRECTION('center_axis',(0.,0.,-1.));
#985=DIRECTION('ref_axis',(0.,-1.,0.));
#986=DIRECTION('',(-0.707106781186545,9.81307786677361E-16,0.70710678118655));
#987=DIRECTION('center_axis',(0.,0.,-1.));
#988=DIRECTION('ref_axis',(0.,-1.,0.));
#989=DIRECTION('center_axis',(0.,0.,1.));
#990=DIRECTION('ref_axis',(0.,-1.,0.));
#991=DIRECTION('center_axis',(0.707106781186548,0.,0.707106781186548));
#992=DIRECTION('ref_axis',(0.707106781186548,0.,-0.707106781186548));
#993=DIRECTION('',(0.,-1.,0.));
#994=DIRECTION('',(0.,1.,0.));
#995=DIRECTION('center_axis',(0.,0.,-1.));
#996=DIRECTION('ref_axis',(1.,-6.34413156928666E-15,0.));
#997=DIRECTION('',(3.92523114670943E-15,-0.707106781186547,0.707106781186547));
#998=DIRECTION('center_axis',(0.,0.,-1.));
#999=DIRECTION('ref_axis',(1.,-6.34413156928666E-15,0.));
#1000=DIRECTION('center_axis',(0.,0.,1.));
#1001=DIRECTION('ref_axis',(1.,-6.34413156928666E-15,0.));
#1002=DIRECTION('center_axis',(0.,0.707106781186548,0.707106781186548));
#1003=DIRECTION('ref_axis',(1.,0.,0.));
#1004=DIRECTION('',(0.,-0.707106781186547,0.707106781186547));
#1005=DIRECTION('',(1.,0.,0.));
#1006=DIRECTION('',(-1.,0.,0.));
#1007=DIRECTION('center_axis',(0.,0.,-1.));
#1008=DIRECTION('ref_axis',(7.73191035006812E-15,1.,0.));
#1009=DIRECTION('',(0.707106781186548,7.85046229341886E-15,0.707106781186547));
#1010=DIRECTION('center_axis',(0.,0.,-1.));
#1011=DIRECTION('ref_axis',(7.73191035006812E-15,1.,0.));
#1012=DIRECTION('center_axis',(0.,0.,1.));
#1013=DIRECTION('ref_axis',(7.73191035006812E-15,1.,0.));
#1014=DIRECTION('center_axis',(-0.707106781186547,4.20560480004583E-16,
0.707106781186548));
#1015=DIRECTION('ref_axis',(0.707106781186548,0.,0.707106781186547));
#1016=DIRECTION('',(5.9476233462062E-16,1.,0.));
#1017=DIRECTION('',(-5.9476233462062E-16,-1.,0.));
#1018=DIRECTION('center_axis',(0.,0.,-1.));
#1019=DIRECTION('ref_axis',(3.96508223080414E-15,1.,0.));
#1020=DIRECTION('',(0.707106781186547,0.,0.707106781186547));
#1021=DIRECTION('center_axis',(0.,0.,-1.));
#1022=DIRECTION('ref_axis',(3.96508223080414E-15,1.,0.));
#1023=DIRECTION('center_axis',(0.,0.,1.));
#1024=DIRECTION('ref_axis',(3.96508223080414E-15,1.,0.));
#1025=DIRECTION('center_axis',(-0.707106781186548,0.,0.707106781186548));
#1026=DIRECTION('ref_axis',(0.707106781186548,0.,0.707106781186548));
#1027=DIRECTION('',(0.707106781186547,0.,0.707106781186547));
#1028=DIRECTION('',(0.,1.,0.));
#1029=DIRECTION('',(0.,-1.,0.));
#1030=DIRECTION('center_axis',(0.,0.,-1.));
#1031=DIRECTION('ref_axis',(-1.,-7.93016446160826E-16,0.));
#1032=DIRECTION('',(0.,0.707106781186547,0.707106781186547));
#1033=DIRECTION('center_axis',(0.,0.,-1.));
#1034=DIRECTION('ref_axis',(-1.,-7.93016446160826E-16,0.));
#1035=DIRECTION('center_axis',(0.,0.,1.));
#1036=DIRECTION('ref_axis',(-1.,-7.93016446160826E-16,0.));
#1037=DIRECTION('center_axis',(0.,-0.707106781186548,0.707106781186548));
#1038=DIRECTION('ref_axis',(1.,0.,0.));
#1039=DIRECTION('',(-1.,0.,0.));
#1040=DIRECTION('',(1.,0.,0.));
#1041=DIRECTION('center_axis',(0.,1.,0.));
#1042=DIRECTION('ref_axis',(-1.,0.,0.));
#1043=DIRECTION('',(0.,0.,1.));
#1044=DIRECTION('',(-1.,0.,0.));
#1045=DIRECTION('',(0.,0.,1.));
#1046=DIRECTION('center_axis',(0.,0.,1.));
#1047=DIRECTION('ref_axis',(1.,6.34413156928658E-15,0.));
#1048=DIRECTION('',(0.,0.,1.));
#1049=DIRECTION('center_axis',(0.,0.,1.));
#1050=DIRECTION('ref_axis',(1.,6.34413156928658E-15,0.));
#1051=DIRECTION('center_axis',(1.,0.,0.));
#1052=DIRECTION('ref_axis',(0.,1.,0.));
#1053=DIRECTION('',(0.,0.,1.));
#1054=DIRECTION('',(0.,-1.,0.));
#1055=DIRECTION('center_axis',(0.,0.,1.));
#1056=DIRECTION('ref_axis',(0.,-1.,0.));
#1057=DIRECTION('',(0.,0.,1.));
#1058=DIRECTION('center_axis',(0.,0.,1.));
#1059=DIRECTION('ref_axis',(0.,-1.,0.));
#1060=DIRECTION('center_axis',(3.87287101613427E-16,-1.,0.));
#1061=DIRECTION('ref_axis',(1.,3.87287101613427E-16,0.));
#1062=DIRECTION('',(0.,0.,1.));
#1063=DIRECTION('',(-1.,-3.87287101613427E-16,0.));
#1064=DIRECTION('center_axis',(1.,0.,0.));
#1065=DIRECTION('ref_axis',(0.,1.,0.));
#1066=DIRECTION('',(0.,0.,1.));
#1067=DIRECTION('',(0.,1.,0.));
#1068=DIRECTION('center_axis',(0.,0.,1.));
#1069=DIRECTION('ref_axis',(0.,-1.,0.));
#1070=DIRECTION('',(0.,0.,1.));
#1071=DIRECTION('center_axis',(0.,0.,1.));
#1072=DIRECTION('ref_axis',(0.,-1.,0.));
#1073=DIRECTION('center_axis',(0.,-1.,0.));
#1074=DIRECTION('ref_axis',(1.,0.,0.));
#1075=DIRECTION('',(0.,0.,1.));
#1076=DIRECTION('',(1.,0.,0.));
#1077=DIRECTION('center_axis',(0.,0.,1.));
#1078=DIRECTION('ref_axis',(-1.,7.93016446160827E-16,0.));
#1079=DIRECTION('',(0.,0.,1.));
#1080=DIRECTION('center_axis',(0.,0.,1.));
#1081=DIRECTION('ref_axis',(-1.,7.93016446160827E-16,0.));
#1082=DIRECTION('center_axis',(-1.,0.,0.));
#1083=DIRECTION('ref_axis',(0.,-1.,0.));
#1084=DIRECTION('',(0.,0.,1.));
#1085=DIRECTION('',(0.,-1.,0.));
#1086=DIRECTION('center_axis',(0.,0.,1.));
#1087=DIRECTION('ref_axis',(1.,0.,0.));
#1088=DIRECTION('center_axis',(0.,0.,-1.));
#1089=DIRECTION('ref_axis',(1.,0.,0.));
#1090=DIRECTION('center_axis',(0.,0.,1.));
#1091=DIRECTION('ref_axis',(-1.,0.,0.));
#1092=DIRECTION('center_axis',(0.,0.,1.));
#1093=DIRECTION('ref_axis',(-1.,0.,0.));
#1094=DIRECTION('center_axis',(0.,0.,1.));
#1095=DIRECTION('ref_axis',(1.,0.,0.));
#1096=DIRECTION('center_axis',(0.,0.,1.));
#1097=DIRECTION('ref_axis',(-1.,0.,0.));
#1098=DIRECTION('',(0.,0.,-1.));
#1099=DIRECTION('center_axis',(0.,0.,1.));
#1100=DIRECTION('ref_axis',(1.,0.,0.));
#1101=DIRECTION('',(0.,0.,-1.));
#1102=DIRECTION('center_axis',(0.,0.,1.));
#1103=DIRECTION('ref_axis',(3.96508223080414E-15,1.,0.));
#1104=DIRECTION('',(0.,0.,1.));
#1105=DIRECTION('center_axis',(0.,0.,1.));
#1106=DIRECTION('ref_axis',(3.96508223080414E-15,1.,0.));
#1107=DIRECTION('',(0.,0.,1.));
#1108=DIRECTION('center_axis',(0.,1.,0.));
#1109=DIRECTION('ref_axis',(-1.,0.,0.));
#1110=DIRECTION('',(0.,0.,1.));
#1111=DIRECTION('',(1.,0.,0.));
#1112=DIRECTION('center_axis',(-1.,5.9476233462062E-16,0.));
#1113=DIRECTION('ref_axis',(-5.9476233462062E-16,-1.,0.));
#1114=DIRECTION('',(0.,0.,1.));
#1115=DIRECTION('',(-5.9476233462062E-16,-1.,0.));
#1116=DIRECTION('center_axis',(0.,0.,1.));
#1117=DIRECTION('ref_axis',(7.73191035006812E-15,1.,0.));
#1118=DIRECTION('',(0.,0.,1.));
#1119=DIRECTION('center_axis',(0.,0.,1.));
#1120=DIRECTION('ref_axis',(7.73191035006812E-15,1.,0.));
#1121=DIRECTION('center_axis',(0.,1.,0.));
#1122=DIRECTION('ref_axis',(-1.,0.,0.));
#1123=DIRECTION('',(0.,0.,1.));
#1124=DIRECTION('',(-1.,0.,0.));
#1125=DIRECTION('center_axis',(0.,0.,1.));
#1126=DIRECTION('ref_axis',(1.,-6.34413156928666E-15,0.));
#1127=DIRECTION('',(0.,0.,1.));
#1128=DIRECTION('center_axis',(0.,0.,1.));
#1129=DIRECTION('ref_axis',(1.,-6.34413156928666E-15,0.));
#1130=DIRECTION('center_axis',(1.,1.05735526154777E-15,0.));
#1131=DIRECTION('ref_axis',(-1.05735526154777E-15,1.,0.));
#1132=DIRECTION('',(-1.05735526154777E-15,1.,0.));
#1133=DIRECTION('center_axis',(0.,-1.,0.));
#1134=DIRECTION('ref_axis',(1.,0.,0.));
#1135=DIRECTION('',(0.,0.,1.));
#1136=DIRECTION('',(1.,0.,0.));
#1137=DIRECTION('center_axis',(0.,0.,1.));
#1138=DIRECTION('ref_axis',(-1.,-7.93016446160826E-16,0.));
#1139=DIRECTION('',(0.,0.,1.));
#1140=DIRECTION('center_axis',(0.,0.,1.));
#1141=DIRECTION('ref_axis',(-1.,-7.93016446160826E-16,0.));
#1142=DIRECTION('center_axis',(-1.,0.,0.));
#1143=DIRECTION('ref_axis',(0.,-1.,0.));
#1144=DIRECTION('',(0.,-1.,0.));
#1145=DIRECTION('center_axis',(0.,0.,1.));
#1146=DIRECTION('ref_axis',(1.,0.,0.));
#1147=CARTESIAN_POINT('',(0.,0.,0.));
#1148=CARTESIAN_POINT('Origin',(3.4,6.35,34.9));
#1149=CARTESIAN_POINT('',(1.15,6.35,34.8));
#1150=CARTESIAN_POINT('',(5.65,6.35,34.8));
#1151=CARTESIAN_POINT('Origin',(3.4,6.35,34.8));
#1152=CARTESIAN_POINT('',(5.85,6.35,35.));
#1153=CARTESIAN_POINT('',(5.75,6.35,34.9));
#1154=CARTESIAN_POINT('Origin',(3.4,6.35,35.));
#1155=CARTESIAN_POINT('Origin',(3.4,6.35,34.8));
#1156=CARTESIAN_POINT('Origin',(3.4,6.35,35.));
#1157=CARTESIAN_POINT('',(8.15,6.35,35.));
#1158=CARTESIAN_POINT('Origin',(3.4,6.35,35.));
#1159=CARTESIAN_POINT('Origin',(3.4,6.35,0.));
#1160=CARTESIAN_POINT('',(1.15,6.35,0.));
#1161=CARTESIAN_POINT('Origin',(3.4,6.35,0.));
#1162=CARTESIAN_POINT('',(1.15,6.35,0.));
#1163=CARTESIAN_POINT('Origin',(1.7,11.2,2.2));
#1164=CARTESIAN_POINT('',(0.,11.3,2.1));
#1165=CARTESIAN_POINT('',(-2.15,11.3,2.1));
#1166=CARTESIAN_POINT('',(1.7,11.3,2.1));
#1167=CARTESIAN_POINT('',(-2.15,11.1,2.3));
#1168=CARTESIAN_POINT('',(-2.15,11.3,2.1));
#1169=CARTESIAN_POINT('',(0.2,11.1,2.3));
#1170=CARTESIAN_POINT('',(1.7,11.1,2.3));
#1171=CARTESIAN_POINT('',(0.2,11.1,2.3));
#1172=CARTESIAN_POINT('Origin',(6.7,8.825,2.2));
#1173=CARTESIAN_POINT('',(6.8,11.3,2.1));
#1174=CARTESIAN_POINT('',(6.8,12.35,2.1));
#1175=CARTESIAN_POINT('',(6.8,8.825,2.1));
#1176=CARTESIAN_POINT('',(6.6,12.35,2.3));
#1177=CARTESIAN_POINT('',(6.8,12.35,2.1));
#1178=CARTESIAN_POINT('',(6.6,11.1,2.3));
#1179=CARTESIAN_POINT('',(6.6,8.825,2.3));
#1180=CARTESIAN_POINT('',(6.6,11.1,2.3));
#1181=CARTESIAN_POINT('Origin',(5.1,1.5,2.2));
#1182=CARTESIAN_POINT('',(6.8,1.4,2.1));
#1183=CARTESIAN_POINT('',(8.95,1.4,2.1));
#1184=CARTESIAN_POINT('',(5.1,1.4,2.1));
#1185=CARTESIAN_POINT('',(8.95,1.6,2.3));
#1186=CARTESIAN_POINT('',(8.95,1.4,2.1));
#1187=CARTESIAN_POINT('',(6.6,1.6,2.3));
#1188=CARTESIAN_POINT('',(5.1,1.6,2.3));
#1189=CARTESIAN_POINT('',(6.6,1.6,2.3));
#1190=CARTESIAN_POINT('Origin',(8.95,1.75,2.2));
#1191=CARTESIAN_POINT('',(9.3,1.75,2.1));
#1192=CARTESIAN_POINT('',(9.1,1.75,2.3));
#1193=CARTESIAN_POINT('',(9.3,1.75,2.1));
#1194=CARTESIAN_POINT('Origin',(8.95,1.75,2.3));
#1195=CARTESIAN_POINT('Origin',(8.95,1.75,2.1));
#1196=CARTESIAN_POINT('Origin',(9.2,4.05,2.2));
#1197=CARTESIAN_POINT('',(9.3,10.95,2.1));
#1198=CARTESIAN_POINT('',(9.1,10.95,2.3));
#1199=CARTESIAN_POINT('',(9.3,10.95,2.1));
#1200=CARTESIAN_POINT('',(9.1,4.05,2.3));
#1201=CARTESIAN_POINT('',(9.3,4.05,2.1));
#1202=CARTESIAN_POINT('Origin',(8.95,10.95,2.2));
#1203=CARTESIAN_POINT('',(8.95,11.3,2.1));
#1204=CARTESIAN_POINT('',(8.95,11.1,2.3));
#1205=CARTESIAN_POINT('',(8.95,11.3,2.1));
#1206=CARTESIAN_POINT('Origin',(8.95,10.95,2.3));
#1207=CARTESIAN_POINT('Origin',(8.95,10.95,2.1));
#1208=CARTESIAN_POINT('Origin',(6.175,11.2,2.2));
#1209=CARTESIAN_POINT('',(6.175,11.1,2.3));
#1210=CARTESIAN_POINT('',(6.175,11.3,2.1));
#1211=CARTESIAN_POINT('Origin',(0.1,3.875,2.2));
#1212=CARTESIAN_POINT('',(0.,1.4,2.1));
#1213=CARTESIAN_POINT('',(0.,0.35,2.1));
#1214=CARTESIAN_POINT('',(0.,3.875,2.1));
#1215=CARTESIAN_POINT('',(0.2,0.35,2.3));
#1216=CARTESIAN_POINT('',(0.,0.35,2.1));
#1217=CARTESIAN_POINT('',(0.2,1.6,2.3));
#1218=CARTESIAN_POINT('',(0.2,3.875,2.3));
#1219=CARTESIAN_POINT('',(0.2,1.6,2.3));
#1220=CARTESIAN_POINT('Origin',(0.35,0.35,2.2));
#1221=CARTESIAN_POINT('',(0.35,0.,2.1));
#1222=CARTESIAN_POINT('',(0.35,0.2,2.3));
#1223=CARTESIAN_POINT('',(0.35,0.,2.1));
#1224=CARTESIAN_POINT('Origin',(0.35,0.35,2.3));
#1225=CARTESIAN_POINT('Origin',(0.35,0.35,2.1));
#1226=CARTESIAN_POINT('Origin',(1.875,0.1,2.2));
#1227=CARTESIAN_POINT('',(6.45,0.,2.1));
#1228=CARTESIAN_POINT('',(6.45,0.2,2.3));
#1229=CARTESIAN_POINT('',(6.45,0.,2.1));
#1230=CARTESIAN_POINT('',(1.875,0.2,2.3));
#1231=CARTESIAN_POINT('',(1.875,0.,2.1));
#1232=CARTESIAN_POINT('Origin',(6.45,0.35,2.2));
#1233=CARTESIAN_POINT('',(6.8,0.35,2.1));
#1234=CARTESIAN_POINT('',(6.6,0.35,2.3));
#1235=CARTESIAN_POINT('',(6.8,0.35,2.1));
#1236=CARTESIAN_POINT('Origin',(6.45,0.35,2.3));
#1237=CARTESIAN_POINT('Origin',(6.45,0.35,2.1));
#1238=CARTESIAN_POINT('Origin',(6.7,3.35,2.2));
#1239=CARTESIAN_POINT('',(6.6,3.35,2.3));
#1240=CARTESIAN_POINT('',(6.8,3.35,2.1));
#1241=CARTESIAN_POINT('Origin',(6.45,12.35,2.2));
#1242=CARTESIAN_POINT('',(6.45,12.7,2.1));
#1243=CARTESIAN_POINT('',(6.45,12.5,2.3));
#1244=CARTESIAN_POINT('',(6.45,12.7,2.1));
#1245=CARTESIAN_POINT('Origin',(6.45,12.35,2.3));
#1246=CARTESIAN_POINT('Origin',(6.45,12.35,2.1));
#1247=CARTESIAN_POINT('Origin',(4.925,12.6,2.2));
#1248=CARTESIAN_POINT('',(0.35,12.7,2.1));
#1249=CARTESIAN_POINT('',(0.35,12.5,2.3));
#1250=CARTESIAN_POINT('',(0.35,12.7,2.1));
#1251=CARTESIAN_POINT('',(4.925,12.5,2.3));
#1252=CARTESIAN_POINT('',(4.925,12.7,2.1));
#1253=CARTESIAN_POINT('Origin',(0.349999999999998,12.35,2.2));
#1254=CARTESIAN_POINT('',(6.24500451351651E-16,12.35,2.1));
#1255=CARTESIAN_POINT('',(0.200000000000001,12.35,2.3));
#1256=CARTESIAN_POINT('',(6.24500451351651E-16,12.35,2.1));
#1257=CARTESIAN_POINT('Origin',(0.349999999999998,12.35,2.3));
#1258=CARTESIAN_POINT('Origin',(0.349999999999998,12.35,2.1));
#1259=CARTESIAN_POINT('Origin',(0.099999999999999,9.35,2.2));
#1260=CARTESIAN_POINT('',(0.199999999999999,9.35,2.3));
#1261=CARTESIAN_POINT('',(-1.14491749414469E-15,9.35,2.1));
#1262=CARTESIAN_POINT('Origin',(-2.15,10.95,2.2));
#1263=CARTESIAN_POINT('',(-2.5,10.95,2.1));
#1264=CARTESIAN_POINT('',(-2.3,10.95,2.3));
#1265=CARTESIAN_POINT('',(-2.5,10.95,2.1));
#1266=CARTESIAN_POINT('Origin',(-2.15,10.95,2.3));
#1267=CARTESIAN_POINT('Origin',(-2.15,10.95,2.1));
#1268=CARTESIAN_POINT('Origin',(-2.4,8.65,2.2));
#1269=CARTESIAN_POINT('',(-2.5,1.75,2.1));
#1270=CARTESIAN_POINT('',(-2.3,1.75,2.3));
#1271=CARTESIAN_POINT('',(-2.5,1.75,2.1));
#1272=CARTESIAN_POINT('',(-2.3,8.65,2.3));
#1273=CARTESIAN_POINT('',(-2.5,8.65,2.1));
#1274=CARTESIAN_POINT('Origin',(-2.15,1.75,2.2));
#1275=CARTESIAN_POINT('',(-2.15,1.4,2.1));
#1276=CARTESIAN_POINT('',(-2.15,1.6,2.3));
#1277=CARTESIAN_POINT('',(-2.15,1.4,2.1));
#1278=CARTESIAN_POINT('Origin',(-2.15,1.75,2.3));
#1279=CARTESIAN_POINT('Origin',(-2.15,1.75,2.1));
#1280=CARTESIAN_POINT('Origin',(0.625000000000001,1.5,2.2));
#1281=CARTESIAN_POINT('',(0.625000000000001,1.6,2.3));
#1282=CARTESIAN_POINT('',(0.625000000000001,1.4,2.1));
#1283=CARTESIAN_POINT('Origin',(8.95,11.3,0.));
#1284=CARTESIAN_POINT('',(8.95,11.3,0.));
#1285=CARTESIAN_POINT('',(8.95,11.3,0.));
#1286=CARTESIAN_POINT('',(6.8,11.3,0.));
#1287=CARTESIAN_POINT('',(8.95,11.3,0.));
#1288=CARTESIAN_POINT('',(6.8,11.3,0.));
#1289=CARTESIAN_POINT('Origin',(8.95,10.95,0.));
#1290=CARTESIAN_POINT('',(9.3,10.95,0.));
#1291=CARTESIAN_POINT('',(9.3,10.95,0.));
#1292=CARTESIAN_POINT('Origin',(8.95,10.95,0.));
#1293=CARTESIAN_POINT('Origin',(9.3,1.75,0.));
#1294=CARTESIAN_POINT('',(9.3,1.75,0.));
#1295=CARTESIAN_POINT('',(9.3,1.75,0.));
#1296=CARTESIAN_POINT('',(9.3,6.35,0.));
#1297=CARTESIAN_POINT('Origin',(8.95,1.75,0.));
#1298=CARTESIAN_POINT('',(8.95,1.4,0.));
#1299=CARTESIAN_POINT('',(8.95,1.4,0.));
#1300=CARTESIAN_POINT('Origin',(8.95,1.75,0.));
#1301=CARTESIAN_POINT('Origin',(6.8,1.4,0.));
#1302=CARTESIAN_POINT('',(6.8,1.4,0.));
#1303=CARTESIAN_POINT('',(6.8,1.4,0.));
#1304=CARTESIAN_POINT('',(8.95,1.4,0.));
#1305=CARTESIAN_POINT('Origin',(6.8,0.35,0.));
#1306=CARTESIAN_POINT('',(6.8,0.35,0.));
#1307=CARTESIAN_POINT('',(6.8,0.35,0.));
#1308=CARTESIAN_POINT('',(6.8,0.35,0.));
#1309=CARTESIAN_POINT('Origin',(6.45,0.35,0.));
#1310=CARTESIAN_POINT('',(6.45,0.,0.));
#1311=CARTESIAN_POINT('',(6.45,0.,0.));
#1312=CARTESIAN_POINT('Origin',(6.45,0.35,0.));
#1313=CARTESIAN_POINT('Origin',(0.35,0.,0.));
#1314=CARTESIAN_POINT('',(0.35,0.,0.));
#1315=CARTESIAN_POINT('',(0.35,0.,0.));
#1316=CARTESIAN_POINT('',(0.35,0.,0.));
#1317=CARTESIAN_POINT('Origin',(0.35,0.35,0.));
#1318=CARTESIAN_POINT('',(0.,0.35,0.));
#1319=CARTESIAN_POINT('',(0.,0.35,0.));
#1320=CARTESIAN_POINT('Origin',(0.35,0.35,0.));
#1321=CARTESIAN_POINT('Origin',(0.,1.4,0.));
#1322=CARTESIAN_POINT('',(0.,1.4,0.));
#1323=CARTESIAN_POINT('',(0.,1.4,0.));
#1324=CARTESIAN_POINT('',(0.,1.4,0.));
#1325=CARTESIAN_POINT('Origin',(3.4,6.35,2.3));
#1326=CARTESIAN_POINT('',(-0.599999999999999,6.35,2.3));
#1327=CARTESIAN_POINT('Origin',(3.4,6.35,2.3));
#1328=CARTESIAN_POINT('Origin',(3.4,6.35,34.2));
#1329=CARTESIAN_POINT('',(8.15,6.35,34.2));
#1330=CARTESIAN_POINT('Origin',(3.4,6.35,34.2));
#1331=CARTESIAN_POINT('',(-0.599999999999999,6.35,34.2));
#1332=CARTESIAN_POINT('Origin',(3.4,6.35,34.2));
#1333=CARTESIAN_POINT('Origin',(3.4,6.35,34.2));
#1334=CARTESIAN_POINT('',(8.15,6.35,34.2));
#1335=CARTESIAN_POINT('Origin',(3.4,6.35,0.));
#1336=CARTESIAN_POINT('',(-0.6,6.35,0.));
#1337=CARTESIAN_POINT('Origin',(-2.15,10.95,0.));
#1338=CARTESIAN_POINT('',(-2.15,11.3,0.));
#1339=CARTESIAN_POINT('',(-2.15,11.3,0.));
#1340=CARTESIAN_POINT('',(-2.5,10.95,0.));
#1341=CARTESIAN_POINT('Origin',(-2.15,10.95,0.));
#1342=CARTESIAN_POINT('',(-2.5,10.95,0.));
#1343=CARTESIAN_POINT('Origin',(0.,11.3,0.));
#1344=CARTESIAN_POINT('',(0.,11.3,0.));
#1345=CARTESIAN_POINT('',(0.,11.3,0.));
#1346=CARTESIAN_POINT('',(-2.15,11.3,0.));
#1347=CARTESIAN_POINT('Origin',(6.24500451351651E-16,12.35,0.));
#1348=CARTESIAN_POINT('',(6.24500451351651E-16,12.35,0.));
#1349=CARTESIAN_POINT('',(6.24500451351651E-16,12.35,0.));
#1350=CARTESIAN_POINT('',(6.24500451351651E-16,12.35,0.));
#1351=CARTESIAN_POINT('Origin',(0.349999999999998,12.35,0.));
#1352=CARTESIAN_POINT('',(0.35,12.7,0.));
#1353=CARTESIAN_POINT('',(0.35,12.7,0.));
#1354=CARTESIAN_POINT('Origin',(0.349999999999998,12.35,0.));
#1355=CARTESIAN_POINT('Origin',(6.45,12.7,0.));
#1356=CARTESIAN_POINT('',(6.45,12.7,0.));
#1357=CARTESIAN_POINT('',(6.45,12.7,0.));
#1358=CARTESIAN_POINT('',(6.45,12.7,0.));
#1359=CARTESIAN_POINT('Origin',(6.45,12.35,0.));
#1360=CARTESIAN_POINT('',(6.8,12.35,0.));
#1361=CARTESIAN_POINT('',(6.8,12.35,0.));
#1362=CARTESIAN_POINT('Origin',(6.45,12.35,0.));
#1363=CARTESIAN_POINT('Origin',(6.8,11.3,0.));
#1364=CARTESIAN_POINT('',(6.8,11.3,0.));
#1365=CARTESIAN_POINT('Origin',(-2.15,1.4,0.));
#1366=CARTESIAN_POINT('',(-2.15,1.4,0.));
#1367=CARTESIAN_POINT('',(-2.15,1.4,0.));
#1368=CARTESIAN_POINT('',(-2.15,1.4,0.));
#1369=CARTESIAN_POINT('Origin',(-2.15,1.75,0.));
#1370=CARTESIAN_POINT('',(-2.5,1.75,0.));
#1371=CARTESIAN_POINT('',(-2.5,1.75,0.));
#1372=CARTESIAN_POINT('Origin',(-2.15,1.75,0.));
#1373=CARTESIAN_POINT('Origin',(-2.5,10.95,0.));
#1374=CARTESIAN_POINT('',(-2.5,6.35,0.));
#1375=CARTESIAN_POINT('Origin',(3.4,6.35,0.));
#1376=UNCERTAINTY_MEASURE_WITH_UNIT(LENGTH_MEASURE(0.01),#1380,
'DISTANCE_ACCURACY_VALUE',
'Maximum model space distance between geometric entities at asserted c
onnectivities');
#1377=UNCERTAINTY_MEASURE_WITH_UNIT(LENGTH_MEASURE(0.01),#1380,
'DISTANCE_ACCURACY_VALUE',
'Maximum model space distance between geometric entities at asserted c
onnectivities');
#1378=(
GEOMETRIC_REPRESENTATION_CONTEXT(3)
GLOBAL_UNCERTAINTY_ASSIGNED_CONTEXT((#1376))
GLOBAL_UNIT_ASSIGNED_CONTEXT((#1380,#1382,#1383))
REPRESENTATION_CONTEXT('','3D')
);
#1379=(
GEOMETRIC_REPRESENTATION_CONTEXT(3)
GLOBAL_UNCERTAINTY_ASSIGNED_CONTEXT((#1377))
GLOBAL_UNIT_ASSIGNED_CONTEXT((#1380,#1382,#1383))
REPRESENTATION_CONTEXT('','3D')
);
#1380=(
LENGTH_UNIT()
NAMED_UNIT(*)
SI_UNIT(.MILLI.,.METRE.)
);
#1381=(
LENGTH_UNIT()
NAMED_UNIT(*)
SI_UNIT($,.METRE.)
);
#1382=(
NAMED_UNIT(*)
PLANE_ANGLE_UNIT()
SI_UNIT($,.RADIAN.)
);
#1383=(
NAMED_UNIT(*)
SI_UNIT($,.STERADIAN.)
SOLID_ANGLE_UNIT()
);
#1384=SHAPE_DEFINITION_REPRESENTATION(#1385,#1386);
#1385=PRODUCT_DEFINITION_SHAPE('',$,#1388);
#1386=SHAPE_REPRESENTATION('',(#824),#1378);
#1387=PRODUCT_DEFINITION_CONTEXT('part definition',#1392,'design');
#1388=PRODUCT_DEFINITION('#2 part 3 long coil','#2 part 3 long coil v1',
#1389,#1387);
#1389=PRODUCT_DEFINITION_FORMATION('',$,#1394);
#1390=PRODUCT_RELATED_PRODUCT_CATEGORY('#2 part 3 long coil v1',
'#2 part 3 long coil v1',(#1394));
#1391=APPLICATION_PROTOCOL_DEFINITION('international standard',
'automotive_design',2009,#1392);
#1392=APPLICATION_CONTEXT(
'Core Data for Automotive Mechanical Design Process');
#1393=PRODUCT_CONTEXT('part definition',#1392,'mechanical');
#1394=PRODUCT('#2 part 3 long coil','#2 part 3 long coil v1',$,(#1393));
#1395=PRESENTATION_STYLE_ASSIGNMENT((#1397));
#1396=PRESENTATION_STYLE_ASSIGNMENT((#1398));
#1397=SURFACE_STYLE_USAGE(.BOTH.,#1399);
#1398=SURFACE_STYLE_USAGE(.BOTH.,#1400);
#1399=SURFACE_SIDE_STYLE('',(#1401));
#1400=SURFACE_SIDE_STYLE('',(#1402));
#1401=SURFACE_STYLE_FILL_AREA(#1403);
#1402=SURFACE_STYLE_FILL_AREA(#1404);
#1403=FILL_AREA_STYLE('Steel - Satin',(#1405));
#1404=FILL_AREA_STYLE('Opaque(48,59,150)',(#1406));
#1405=FILL_AREA_STYLE_COLOUR('Steel - Satin',#1407);
#1406=FILL_AREA_STYLE_COLOUR('Opaque(48,59,150)',#1408);
#1407=COLOUR_RGB('Steel - Satin',0.627450980392157,0.627450980392157,0.627450980392157);
#1408=COLOUR_RGB('Opaque(48,59,150)',0.188235294117647,0.231372549019608,
0.588235294117647);
ENDSEC;
END-ISO-10303-21;
